<?xml version="1.0" encoding="UTF-8"?><svg xmlns="http://www.w3.org/2000/svg" viewBox="0 0 673.92 407.02"><g id="Background_Complete"><path d="m582.52,403.71c-24.12-14.77-31.18-44.47-31.9-71.51-.12-4.51-.9-9.23,1-13.31,1.91-4.08,6.74-7.08,10.89-5.43,3.44,1.37,5.13,5.18,7.2,8.28,2.75,4.13,6.67,7.45,11.17,9.45,2.96,1.32,6.56,2.01,9.3.28,3.76-2.38,3.89-7.77,3.59-12.25-.56-8.35-1.11-16.69-1.67-25.04-.3-4.48-.59-9.05.55-13.39,1.14-4.34,3.98-8.47,8.17-9.92,4.19-1.45,9.61.69,10.77,5.02.48,1.8.23,3.72.46,5.57.24,1.85,1.23,3.86,3.02,4.27,1.82.42,3.54-.96,4.8-2.35,4.35-4.8,7.14-10.82,9.72-16.79,2.58-5.97,5.07-12.07,8.97-17.26,3.9-5.19,9.46-9.45,15.86-10.2,6.39-.75,13.47,2.8,15.47,9,2.01,6.22-1.29,12.85-4.99,18.2-5.49,7.94-12.12,15.07-19.62,21.1-1.35,1.09-2.82,2.26-3.26,3.95-.79,3.05,2.22,5.84,5.22,6.64,3.41.91,7.01.35,10.53.55,3.52.2,7.39,1.51,8.91,4.73,2.11,4.47-1.43,9.5-5.01,12.87-7.16,6.75-15.48,12.24-24.47,16.16-3.22,1.4-6.63,2.67-9.14,5.15-2.52,2.48-3.88,6.6-2.08,9.66,1.8,3.06,5.98,3.82,9.39,2.97,3.41-.85,6.39-2.91,9.6-4.35,6.02-2.69,13.99-2.75,18.25,2.33,2.8,3.34,3.32,8.2,2.27,12.44-1.06,4.25-3.5,8-6.12,11.48-9.17,12.17-21.24,22.25-35.22,28.06-13.98,5.81-27.13,7.95-41.63,3.62" fill="#f5f5f5"/><path d="m588.47,386.37c3.15-13.86,7.86-28.76,13.32-44.17,1.38-3.85,2.74-7.65,4.09-11.4,1.35-3.74,2.69-7.45,4.22-10.99,3.04-7.11,6.5-13.71,9.98-19.87,3.48-6.17,7.01-11.89,10.34-17.22,3.35-5.32,6.57-10.23,9.69-14.57,6.22-8.71,12.05-15.14,16.24-19.38,2.09-2.13,3.76-3.73,4.91-4.8.55-.51.99-.91,1.31-1.21.3-.27.46-.4.47-.39.01.01-.13.16-.41.45-.31.31-.73.73-1.26,1.27-1.11,1.11-2.75,2.74-4.8,4.9-4.11,4.31-9.86,10.77-15.99,19.5-3.08,4.35-6.26,9.26-9.58,14.59-3.31,5.34-6.81,11.07-10.26,17.23-3.45,6.16-6.89,12.74-9.9,19.81-1.52,3.53-2.84,7.2-4.19,10.95-1.34,3.75-2.7,7.55-4.08,11.4-5.46,15.4-10.18,30.26-13.36,44.07" fill="#e0e0e0"/><path d="m610.34,319.76c-.05.01-.25-.66-.55-1.88-.31-1.22-.7-3.01-1.15-5.22-.9-4.42-1.94-10.57-3.06-17.35-1.12-6.79-2.24-12.9-3.21-17.3-.48-2.2-.88-3.98-1.18-5.2-.29-1.23-.42-1.91-.37-1.93.05-.02.29.64.68,1.84.39,1.2.88,2.96,1.43,5.15,1.12,4.38,2.34,10.5,3.46,17.3,1.09,6.7,2.07,12.76,2.82,17.38.35,2.09.65,3.85.89,5.26.21,1.24.29,1.94.24,1.95Z" fill="#e0e0e0"/><path d="m667.28,305.52c0,.06-.81.2-2.28.41-1.47.22-3.6.53-6.21.99-5.24.89-12.44,2.37-20.3,4.35-7.87,1.99-14.91,4.1-19.96,5.77-2.53.82-4.56,1.54-5.97,2.02-1.4.49-2.19.74-2.21.69-.02-.05.73-.4,2.1-.99,1.37-.58,3.38-1.38,5.89-2.28,5.02-1.82,12.06-4.02,19.95-6.03,7.89-1.98,15.13-3.38,20.41-4.12,2.64-.39,4.78-.61,6.27-.73,1.49-.11,2.31-.15,2.32-.09Z" fill="#e0e0e0"/><path d="m589.11,385.27s-.17-.22-.44-.68c-.3-.55-.67-1.22-1.11-2.02-.96-1.76-2.27-4.35-3.86-7.56-3.18-6.43-7.29-15.45-11.68-25.46-4.4-10.02-8.42-19.06-11.46-25.55-1.49-3.15-2.71-5.75-3.62-7.67-.39-.84-.71-1.53-.97-2.09-.21-.48-.32-.74-.29-.76.03-.01.17.22.44.68.3.55.67,1.21,1.11,2.02.96,1.76,2.27,4.35,3.86,7.56,3.18,6.43,7.28,15.45,11.69,25.47,4.4,10.02,8.42,19.06,11.46,25.55,1.49,3.15,2.71,5.75,3.62,7.67.39.84.71,1.53.97,2.09.21.48.32.74.29.76Z" fill="#e0e0e0"/><path d="m664.15,355.99s-.25.15-.74.36c-.59.24-1.31.53-2.18.88-2.01.79-4.73,1.86-8.03,3.15-6.78,2.66-16.11,6.45-26.41,10.64-10.3,4.2-19.68,7.9-26.52,10.42-3.42,1.26-6.2,2.26-8.13,2.9-.89.29-1.63.53-2.23.73-.51.16-.79.23-.8.2,0-.03.25-.15.74-.36.58-.24,1.3-.53,2.18-.88,2.01-.79,4.73-1.85,8.03-3.15,6.78-2.66,16.11-6.45,26.42-10.64,10.3-4.2,19.67-7.9,26.51-10.42,3.42-1.26,6.2-2.26,8.13-2.9.89-.29,1.63-.54,2.23-.73.51-.16.79-.23.8-.2Z" fill="#e0e0e0"/><path d="m594.5,96.64c-4.11,10.3-10.7,26.95-13.72,34.6-.89,2.26.21,4.81,2.47,5.7l28.14,11.21c2.26.9,4.82-.2,5.72-2.46l13.65-34.28c2-5.01-.45-10.69-5.46-12.69h0l2.01-5.04-18.43-7.34-1.9,4.77-.07-.02c-4.96-1.8-10.44.66-12.4,5.56Z" fill="#f5f5f5"/><polygon points="608.61 86.99 607.7 89.28 625.86 97.27 627.04 94.33 608.61 86.99" fill="#e0e0e0"/><path d="m609.85,82.65h18.49c1.65,0,2.99,1.34,2.99,2.99v4.92c0,1.07-.87,1.93-1.93,1.93h-20.61c-1.07,0-1.93-.87-1.93-1.93v-4.92c0-1.65,1.34-2.99,2.99-2.99Z" transform="translate(76.34 -222.86) rotate(21.72)" fill="#ebebeb"/><path d="m608.8,88.81c-.13-.05.57-2.14,1.57-4.65,1-2.52,1.92-4.51,2.06-4.46.13.05-.57,2.13-1.57,4.65-1,2.51-1.92,4.51-2.06,4.46Z" fill="#e0e0e0"/><path d="m611.23,89.78c-.13-.05.57-2.13,1.57-4.65,1-2.52,1.92-4.51,2.06-4.46.13.05-.57,2.13-1.57,4.65-1,2.51-1.92,4.51-2.06,4.46Z" fill="#e0e0e0"/><path d="m613.66,90.75c-.13-.05.57-2.13,1.57-4.65,1-2.52,1.92-4.51,2.06-4.46.13.05-.57,2.13-1.57,4.65-1,2.51-1.92,4.51-2.06,4.46Z" fill="#e0e0e0"/><path d="m616.09,91.71c-.13-.05.57-2.14,1.57-4.65,1-2.52,1.92-4.51,2.06-4.46.13.05-.57,2.13-1.57,4.65-1,2.51-1.92,4.51-2.06,4.46Z" fill="#e0e0e0"/><path d="m618.52,92.68c-.13-.05.57-2.13,1.57-4.65,1-2.51,1.92-4.51,2.06-4.46.13.05-.57,2.13-1.57,4.65-1,2.51-1.92,4.51-2.06,4.46Z" fill="#e0e0e0"/><path d="m620.94,93.65c-.13-.05.57-2.13,1.57-4.65,1-2.52,1.92-4.51,2.06-4.46s-.57,2.13-1.57,4.65c-1,2.51-1.92,4.51-2.06,4.46Z" fill="#e0e0e0"/><path d="m623.37,94.61c-.13-.05.57-2.14,1.57-4.65,1-2.51,1.92-4.51,2.06-4.46s-.57,2.13-1.57,4.65c-1,2.51-1.92,4.51-2.06,4.46Z" fill="#e0e0e0"/><path d="m625.8,95.58c-.13-.05.57-2.13,1.57-4.65,1-2.52,1.92-4.51,2.06-4.46.13.05-.57,2.13-1.57,4.65-1,2.51-1.92,4.51-2.06,4.46Z" fill="#e0e0e0"/><rect x="593.18" y="108.25" width="28.42" height="18.8" rx="1.48" ry="1.48" transform="translate(86.64 -216.39) rotate(21.72)" fill="#ebebeb"/><path d="m615.82,129.74s.03-.11.1-.3c.08-.22.18-.49.3-.82.29-.75.68-1.79,1.17-3.08,1.04-2.68,2.5-6.45,4.28-11.03l.12.27c-6.38-2.52-14.43-5.71-23.16-9.17-.08.03.64-.28.34-.14h0s0,.01,0,.01v.02s-.02.03-.02.03l-.03.06-.05.13-.1.25-.2.5-.4,1c-.27.67-.53,1.33-.79,1.98-.52,1.31-1.04,2.6-1.55,3.87-1.01,2.53-1.99,4.97-2.92,7.29l-.13-.31c6.73,2.73,12.46,5.06,16.56,6.72,2.01.83,3.61,1.49,4.76,1.97.53.22.95.4,1.28.54.29.13.45.2.45.21s-.14-.03-.42-.14c-.32-.12-.74-.28-1.25-.47-1.15-.44-2.76-1.06-4.76-1.83-4.16-1.62-9.97-3.9-16.8-6.56l-.22-.09.09-.22c.92-2.32,1.89-4.77,2.89-7.3.5-1.27,1.02-2.56,1.54-3.87.26-.66.52-1.32.79-1.98l.4-1,.2-.5.1-.25.05-.13.03-.06v-.03s.02-.02.02-.02h0s0-.01,0-.01c-.3.13.41-.18.34-.15,8.72,3.49,16.76,6.72,23.12,9.27l.19.08-.08.19c-1.88,4.6-3.43,8.38-4.53,11.07-.53,1.26-.95,2.27-1.25,3-.13.31-.24.56-.33.77-.08.17-.12.25-.12.24Z" fill="#e0e0e0"/><path d="m616.32,118.06c-.05.13-3.62-1.16-7.96-2.89-4.34-1.73-7.82-3.24-7.77-3.37.05-.13,3.62,1.16,7.96,2.89,4.34,1.73,7.82,3.24,7.77,3.37Z" fill="#e0e0e0"/><path d="m615.26,120.73c-.05.13-3.62-1.16-7.96-2.89-4.34-1.73-7.82-3.24-7.77-3.37s3.62,1.16,7.96,2.89c4.34,1.73,7.82,3.24,7.77,3.37Z" fill="#e0e0e0"/><path d="m614.24,123.3c-.05.13-3.62-1.16-7.96-2.89-4.34-1.73-7.82-3.24-7.77-3.37.05-.13,3.62,1.16,7.96,2.89,4.34,1.73,7.82,3.24,7.77,3.37Z" fill="#e0e0e0"/><path d="m624.29,98.15c-.05.13-3.94-1.29-8.68-3.18-4.74-1.89-8.54-3.53-8.49-3.66s3.94,1.29,8.68,3.18c4.74,1.89,8.54,3.53,8.49,3.66Z" fill="#e0e0e0"/><path d="m583.08,129.86s.17-.6.56-1.66c.43-1.13,1-2.63,1.7-4.45,1.45-3.75,3.5-8.91,5.78-14.6,1.15-2.84,2.24-5.55,3.24-8.02.99-2.46,2.15-4.66,3.65-6.08,1.49-1.43,3.12-2.04,4.25-2.17.57-.08,1.01-.03,1.31,0,.3.05.45.09.44.11,0,.05-.63-.09-1.72.1-1.08.19-2.63.83-4.02,2.23-1.41,1.39-2.5,3.54-3.47,6-.99,2.48-2.07,5.19-3.21,8.03-2.29,5.69-4.38,10.83-5.93,14.55-.76,1.79-1.38,3.27-1.85,4.39-.45,1.03-.71,1.6-.74,1.58Z" fill="#fff"/><path d="m614.7,147.96s-.42-.3-1.11-.9c-.34-.3-.76-.67-1.27-1.07-.51-.4-1.06-.89-1.73-1.36-1.3-.99-2.91-2.07-4.77-3.16-1.87-1.07-3.99-2.13-6.29-3.06-2.31-.91-4.58-1.59-6.67-2.1-2.1-.48-4.01-.81-5.63-.98-.81-.12-1.54-.15-2.19-.2-.65-.06-1.2-.08-1.66-.1-.91-.04-1.42-.07-1.42-.11,0-.04.5-.07,1.42-.09.46-.02,1.02-.03,1.67,0,.65.03,1.4.03,2.21.13,1.64.13,3.58.42,5.7.88,2.12.49,4.42,1.17,6.76,2.09,2.33.94,4.47,2.03,6.34,3.13,1.86,1.13,3.47,2.25,4.75,3.28.66.49,1.2,1,1.7,1.43.5.42.9.81,1.22,1.14.65.65,1,1.02.97,1.04Z" fill="#fff"/><rect x="31.17" y="152.81" width="90.75" height="124.67" rx="2.41" ry="2.41" transform="translate(-85.74 54.49) rotate(-25.7)" fill="#e0e0e0"/><rect x="35.52" y="155.63" width="80.62" height="116.04" transform="translate(-85.16 54.03) rotate(-25.7)" fill="#fafafa"/><path d="m66.19,155.84c-2.96-2.29-6.96-2.71-10.33-1.08l-2.23-4.42c-1.63-3.38-5.68-4.8-9.06-3.17h0c-3.38,1.63-4.8,5.68-3.17,9.06l2.23,4.64-1.55.78c-3.3,1.65-5.4,5.01-5.45,8.7l-.03,2.3,31.63-15.22-2.04-1.58Zm-16.88.72c-1.82.87-4,.11-4.88-1.71-.87-1.82-.11-4,1.71-4.88,1.82-.87,4-.11,4.88,1.71.88,1.82.11,4-1.71,4.88Z" fill="#ebebeb"/><path d="m48.39,180.71c.06.13-4.3,2.36-9.74,4.97-5.44,2.62-9.9,4.64-9.96,4.51-.06-.13,4.3-2.36,9.74-4.98,5.44-2.62,9.9-4.64,9.96-4.51Z" fill="#e0e0e0"/><path d="m39.79,188.94c.06.13-2.01,1.26-4.63,2.52-2.62,1.26-4.8,2.18-4.86,2.05-.06-.13,2.01-1.26,4.63-2.52,2.62-1.26,4.8-2.18,4.86-2.05Z" fill="#e0e0e0"/><path d="m90.52,175.92c.06.13-12.16,6.14-27.3,13.43-15.14,7.29-27.46,13.09-27.52,12.96-.06-.13,12.16-6.14,27.3-13.43,15.14-7.29,27.46-13.09,27.52-12.96Z" fill="#e0e0e0"/><path d="m93.04,181.15c.06.13-12.16,6.14-27.3,13.43-15.14,7.29-27.46,13.09-27.52,12.96-.06-.13,12.16-6.14,27.3-13.43,15.14-7.29,27.46-13.09,27.52-12.96Z" fill="#e0e0e0"/><path d="m95.55,186.38c.06.13-12.16,6.14-27.3,13.43-15.14,7.29-27.46,13.09-27.52,12.96-.06-.13,12.16-6.14,27.3-13.43,15.14-7.29,27.46-13.09,27.52-12.96Z" fill="#e0e0e0"/><path d="m98.07,191.6c.06.13-12.16,6.14-27.3,13.43-15.14,7.29-27.46,13.09-27.52,12.96-.06-.13,12.16-6.14,27.3-13.43,15.14-7.29,27.46-13.09,27.52-12.96Z" fill="#e0e0e0"/><path d="m100.59,196.83c.06.13-12.16,6.14-27.3,13.43-15.14,7.29-27.46,13.09-27.52,12.96-.06-.13,12.16-6.14,27.3-13.43,15.14-7.29,27.46-13.09,27.52-12.96Z" fill="#e0e0e0"/><path d="m103.1,202.06c.06.13-12.16,6.14-27.3,13.43-15.14,7.29-27.46,13.09-27.52,12.96-.06-.13,12.16-6.14,27.3-13.43,15.14-7.29,27.46-13.09,27.52-12.96Z" fill="#e0e0e0"/><path d="m77.96,219.97s-.35.25-1.03.61c-.78.4-1.75.9-2.9,1.49-2.46,1.24-5.87,2.91-9.66,4.73-3.79,1.82-7.22,3.45-9.72,4.6-1.18.53-2.17.98-2.97,1.34-.71.31-1.11.46-1.12.43-.02-.03.35-.25,1.03-.61.78-.4,1.75-.9,2.9-1.49,2.46-1.24,5.87-2.91,9.66-4.73,3.78-1.82,7.22-3.44,9.72-4.6,1.18-.53,2.17-.98,2.97-1.34.71-.31,1.11-.46,1.12-.43Z" fill="#e0e0e0"/><path d="m86.61,161.73c.06.13-1.85,1.18-4.28,2.35-2.43,1.17-4.44,2.01-4.5,1.88-.06-.13,1.85-1.18,4.28-2.35,2.42-1.17,4.44-2.01,4.5-1.88Z" fill="#e0e0e0"/><path d="m70.98,237.35c.06.13-3.07,1.77-7.01,3.66-3.93,1.89-7.17,3.32-7.23,3.19-.06-.13,3.07-1.77,7.01-3.66,3.93-1.89,7.17-3.32,7.23-3.19Z" fill="#e0e0e0"/><path d="m73.74,241.87c.06.13-3.13,1.79-7.12,3.72-4,1.92-7.29,3.38-7.35,3.25-.06-.13,3.13-1.79,7.13-3.72,4-1.92,7.29-3.38,7.35-3.25Z" fill="#e0e0e0"/><path d="m111.93,216.77c.06.13-1.43.98-3.33,1.89-1.9.91-3.49,1.55-3.55,1.42-.06-.13,1.43-.98,3.33-1.89,1.9-.91,3.49-1.55,3.55-1.42Z" fill="#e0e0e0"/><path d="m114.23,220.92c.06.13-1.43.98-3.33,1.89-1.9.91-3.49,1.55-3.55,1.42s1.43-.98,3.33-1.89c1.9-.91,3.49-1.55,3.55-1.42Z" fill="#e0e0e0"/><path d="m69.5,250.05c.06.13-1.37.95-3.21,1.83-1.84.88-3.37,1.49-3.44,1.36-.06-.13,1.37-.95,3.21-1.83,1.83-.88,3.37-1.49,3.44-1.36Z" fill="#e0e0e0"/><path d="m116.86,225.79c.06.13-1,.77-2.38,1.43-1.38.66-2.54,1.09-2.6.96-.06-.13,1-.77,2.38-1.43,1.38-.66,2.54-1.09,2.6-.96Z" fill="#e0e0e0"/><path d="m67.83,264.72s.09-.08.28-.21c.22-.15.5-.33.84-.56.79-.51,1.88-1.2,3.23-2.07,2.85-1.79,6.84-4.29,11.61-7.29l.23-.14.1.25c.52,1.34.62,2.92.13,4.41-.46,1.48-1.6,2.88-3.2,3.46-1.56.58-3.48.51-4.95-.56-1.49-1.05-2.1-3.09-1.66-4.87.17-.67.49-1.3.96-1.82.11-.13.24-.25.37-.36.13-.11.26-.22.45-.31.18-.09.48-.12.7.02.21.13.31.31.4.46.62,1.16.95,2.44,1.02,3.7.07,1.26-.13,2.52-.57,3.66-.43,1.13-1.11,2.21-2.15,2.85-1.05.67-2.43.54-3.38-.08-.97-.6-1.66-1.51-2-2.51-.65-2.02-.24-3.98.03-5.64l.06-.38.26.29c1.19,1.34,1.75,2.93,1.91,4.31.17,1.4-.04,2.61-.33,3.55-.3.94-.71,1.59-1.01,2.01-.15.21-.29.35-.37.45-.09.1-.13.15-.14.14-.07-.04.77-.81,1.32-2.66.26-.92.44-2.1.24-3.45-.18-1.33-.74-2.85-1.89-4.1l.32-.09c-.26,1.67-.61,3.58.01,5.44.32.9.97,1.73,1.83,2.26.86.53,2,.63,2.89.06.9-.56,1.54-1.55,1.93-2.62.41-1.07.59-2.26.53-3.45-.06-1.19-.38-2.4-.96-3.48-.07-.13-.15-.23-.21-.26-.06-.03-.11-.04-.22,0-.2.11-.47.33-.65.54-.4.44-.69,1-.84,1.59-.4,1.6.15,3.41,1.45,4.33,1.29.94,3.05,1.03,4.47.5,1.44-.52,2.48-1.77,2.92-3.14.46-1.37.39-2.85-.09-4.09l.33.11c-4.81,2.93-8.83,5.38-11.71,7.13-1.39.83-2.49,1.49-3.3,1.97-.36.2-.64.37-.88.5-.2.11-.31.16-.31.15Z" fill="#e0e0e0"/><path d="m119.75,239.51s-.01.34-.17.94c-.08.3-.21.67-.45,1.06-.25.39-.66.78-1.26.96-.29.08-.64.09-.97-.03-.33-.12-.61-.37-.83-.65-.43-.58-.73-1.23-1.12-1.91-.75-1.38-1.59-2.9-2.49-4.54l.46-.11c-.08,2.29-.17,4.8-.26,7.42-.02.62-.05,1.24-.07,1.85l-.04,1.03-.45-.93c-1.37-2.81-2.64-5.43-3.76-7.72l.42-.04c-.78,2.82-.94,5.27-.95,6.98,0,1.71.12,2.68.06,2.69-.02,0-.08-.24-.14-.69-.06-.46-.14-1.13-.17-1.99-.07-1.72.03-4.21.78-7.1l.15-.57.27.53c1.13,2.28,2.43,4.89,3.82,7.69l-.49.1c.02-.61.05-1.22.07-1.85.1-2.62.2-5.12.3-7.42l.04-.9.42.79c.87,1.65,1.68,3.19,2.42,4.57.37.68.67,1.37,1.04,1.88.37.53.94.76,1.45.61,1.06-.28,1.43-1.24,1.63-1.78.2-.57.29-.9.32-.89Z" fill="#e0e0e0"/><path d="m119.65,235.76c.08.12-4.05,3.07-9.22,6.58-5.17,3.52-9.43,6.27-9.51,6.15-.08-.12,4.05-3.07,9.22-6.58,5.17-3.52,9.43-6.27,9.51-6.15Z" fill="#e0e0e0"/><path d="m124.72,236.64c.09.11-2.93,2.86-6.76,6.15-3.83,3.29-7,5.87-7.1,5.76-.09-.11,2.93-2.86,6.76-6.15,3.83-3.29,7-5.87,7.1-5.76Z" fill="#e0e0e0"/><path d="m161.3,21.2h-4.21l-9.18-12.8V0s-6.5-.4-5.74,10.6c.77,11-.06,8.2-.06,8.2,0,0-13.81.05-14.96,1.25-.84.87-1.21,14.59-1.36,22.03-.07,3.75,2.22,7.23,5.71,8.11.49.13,1,.2,1.49.2,3.44,0,21.05-2.8,21.05-2.8h7.27v-26.4Z" fill="#f5f5f5"/><polygon points="173.35 18.89 170.76 47.68 163.55 47.68 163.55 19.47 173.35 18.89" fill="#f5f5f5"/></g><g id="Icons"><path d="m485.92,23.75c-1.09-8.76-8.49-16.92-17.32-16.93-5.21,0-10.17,2.72-13.73,6.53-1.56,1.66-2.62,2.88-3.48,4.13-.59-1.39-1.4-2.79-2.6-4.73-2.74-4.43-7.06-8.08-12.18-9.1-8.65-1.73-17.52,4.82-20.31,13.19-2.79,8.37-.47,17.77,4.12,25.31,4.59,7.54,12.48,17.39,27.03,22.28,10.03-1.29,23.46-10.18,29.44-16.67,5.98-6.49,10.11-15.25,9.02-24Z" fill="#6673f0"/><path d="m482.74,39.48s-.1.01-.29,0c-.23-.01-.51-.03-.85-.05-.79-.07-1.89-.15-3.27-.27-2.88-.26-6.97-.64-12-1.1l.22-.13c-1.45,3.77-3.14,8.19-5,13.04l-.3.79-.2-.82c-1.52-6.33-3.23-13.41-5.03-20.88-.55-2.31-1.1-4.59-1.63-6.81l.51.1c-3.26,4.48-6.35,8.73-9.16,12.59l-.09.12-.15-.02c-8.63-.9-15.91-1.66-21.09-2.2-2.53-.28-4.54-.51-5.97-.67-.66-.08-1.18-.15-1.58-.2-.36-.05-.54-.08-.54-.1,0-.01.19,0,.55.01.4.03.93.07,1.59.12,1.44.13,3.45.3,5.98.52,5.18.49,12.47,1.18,21.11,1.99l-.24.11c2.8-3.88,5.87-8.13,9.12-12.63l.36-.5.14.6c.53,2.22,1.08,4.5,1.63,6.81,1.78,7.47,3.47,14.56,4.98,20.89l-.5-.03c1.89-4.83,3.62-9.24,5.1-13l.06-.15.16.02c5.02.54,9.1.98,11.98,1.28,1.38.16,2.46.29,3.26.38.34.05.62.08.85.11.19.03.29.05.29.06Z" fill="#fafafa"/><rect x="262.2" y="78.43" width="6.6" height="29.59" fill="#6673f0"/><rect x="262.2" y="78.43" width="6.6" height="29.59" transform="translate(172.27 358.72) rotate(-90)" fill="#6673f0"/><path d="m290.07,93.29s-.02-.14-.05-.4c-.02-.29-.05-.68-.08-1.17-.02-.26-.04-.55-.06-.86-.03-.32-.1-.66-.16-1.03-.12-.74-.23-1.6-.52-2.54-.44-1.9-1.33-4.15-2.74-6.52-1.42-2.37-3.46-4.84-6.24-6.94-2.77-2.08-6.27-3.84-10.3-4.56-4.01-.69-8.53-.56-12.83,1.08-1.1.35-2.13.89-3.18,1.4-1,.61-2.06,1.17-2.99,1.92-.99.68-1.86,1.53-2.77,2.35-.82.91-1.68,1.8-2.39,2.83-1.45,2.02-2.72,4.26-3.49,6.72-.8,2.45-1.22,5.05-1.26,7.7.03,2.65.46,5.25,1.26,7.7.77,2.47,2.04,4.71,3.49,6.73.71,1.03,1.57,1.92,2.39,2.83.91.82,1.78,1.67,2.77,2.36.93.76,1.99,1.32,2.99,1.93,1.06.51,2.09,1.05,3.18,1.4,4.31,1.64,8.83,1.76,12.83,1.08,4.03-.71,7.53-2.48,10.3-4.56,2.78-2.1,4.82-4.57,6.24-6.94,1.41-2.38,2.3-4.62,2.74-6.52.29-.94.4-1.8.52-2.54.06-.37.13-.71.16-1.03.02-.31.04-.6.06-.86.04-.49.06-.88.08-1.17.02-.26.04-.4.05-.4s.01.14,0,.4c0,.29-.02.68-.03,1.18,0,.26-.02.55-.03.87-.03.32-.09.66-.14,1.04-.1.75-.2,1.62-.48,2.57-.41,1.92-1.29,4.2-2.69,6.62-1.41,2.41-3.46,4.93-6.27,7.08-2.8,2.13-6.34,3.94-10.44,4.69-4.07.72-8.68.61-13.08-1.05-1.12-.36-2.17-.9-3.25-1.42-1.03-.62-2.1-1.19-3.06-1.96-1.01-.69-1.9-1.56-2.83-2.4-.84-.93-1.72-1.83-2.45-2.89-1.49-2.06-2.78-4.35-3.57-6.87-.81-2.5-1.25-5.16-1.29-7.87.04-2.7.47-5.36,1.29-7.86.79-2.52,2.08-4.81,3.57-6.86.72-1.05,1.61-1.96,2.45-2.88.93-.84,1.82-1.7,2.83-2.4.95-.77,2.03-1.34,3.06-1.96,1.08-.52,2.13-1.07,3.25-1.42,4.4-1.66,9-1.77,13.07-1.05,4.1.74,7.65,2.56,10.44,4.69,2.81,2.15,4.86,4.67,6.27,7.08,1.4,2.42,2.28,4.7,2.69,6.62.27.95.37,1.82.48,2.57.05.38.11.72.14,1.04.01.32.02.61.03.87.01.5.03.89.03,1.18,0,.26,0,.4,0,.4Z" fill="#6673f0"/></g><g id="Character_3"><path d="m594.61,297.08s29.27-6.98,30.23-8.21l-24.07-61.99c-3.36-8.66-9.03-16.34-16.68-21.62-3.49-2.41-7.31-4.35-11.39-5.74-15.64-5.32-28.43-4.39-28.43-4.39l-40.63-2.16c-12.62.74-23.41,4.44-32.05,8.87-13.7,7.02-24.26,18.93-30.1,33.17l-18.21,45.52,45.96,9.61,1.75,48.9-6.93,67.47h126.91l-.89-106.95h0l4.53-2.49Z" fill="#6673f0"/><g opacity=".3"><path d="m619.83,280.78c.04.14-7.55,2.61-16.96,5.53-9.41,2.92-17.07,5.17-17.11,5.03-.04-.14,7.55-2.61,16.96-5.53,9.41-2.92,17.07-5.17,17.11-5.03Z" fill="#fff"/></g><path d="m487.06,237.2s-.31-.36-.78-1.07c-.46-.71-1.18-1.71-2.09-2.91-.91-1.21-2.08-2.58-3.44-4.03-1.39-1.44-2.98-2.94-4.77-4.4-1.8-1.44-3.61-2.68-5.31-3.73-1.71-1.03-3.3-1.88-4.67-2.52-1.37-.64-2.49-1.13-3.28-1.43-.79-.31-1.22-.51-1.21-.54s.46.09,1.28.35c.81.25,1.97.68,3.37,1.29,1.4.6,3.02,1.42,4.76,2.44,1.73,1.04,3.57,2.28,5.39,3.74,1.81,1.47,3.41,3.01,4.79,4.48,1.36,1.49,2.51,2.9,3.39,4.14.89,1.24,1.56,2.27,1.97,3.02.42.74.64,1.16.61,1.17Z" fill="#263238"/><path d="m481.07,251.99c.14.01-1.27,14.95-3.16,33.34-1.89,18.41-3.54,33.31-3.68,33.29-.14-.01,1.27-14.94,3.17-33.35,1.89-18.4,3.54-33.31,3.68-33.29Z" fill="#263238"/><path d="m580.98,224.32c-.08,0-.26-1.16-.65-3.03-.39-1.87-1.04-4.42-2.02-7.16-.98-2.74-2.11-5.12-2.99-6.81-.88-1.69-1.49-2.71-1.42-2.75.03-.02.22.21.53.65.31.44.73,1.09,1.22,1.92.97,1.66,2.17,4.05,3.16,6.81.99,2.77,1.59,5.37,1.89,7.27.15.95.25,1.72.28,2.26.04.54.05.83,0,.84Z" fill="#263238"/><path d="m583.52,276.53s-.12-.52-.25-1.47c-.13-.95-.28-2.32-.44-4.03-.33-3.4-.68-8.12-.86-13.33-.18-5.22-.17-9.94-.08-13.36.05-1.71.1-3.09.16-4.05.06-.95.11-1.48.14-1.48.04,0,.06.53.06,1.49,0,1.05,0,2.41,0,4.05,0,3.42.05,8.13.23,13.34.18,5.21.47,9.91.71,13.32.11,1.63.21,2.99.28,4.04.06.95.08,1.48.04,1.49Z" fill="#263238"/><path d="m522.08,267.8c-10.66.62-21.37.42-32.01-.6v4.16h32.01v-3.56Z" fill="#fff"/><g opacity=".3"><path d="m553.92,198.65s.06.21.12.63c.07.45.16,1.07.28,1.84.2,1.62.48,3.99.71,6.99.48,6.01.9,14.55,1.04,24.64v.39s-.34-.17-.34-.17c-6.38-3.1-13.54-6.48-20.98-10.21-14.19-7.1-27.03-13.53-36.37-18.2-4.62-2.34-8.36-4.24-10.99-5.57-1.27-.65-2.26-1.17-2.98-1.54-.32-.17-.57-.3-.77-.41-.17-.1-.26-.15-.25-.16,0,0,.1.03.28.11.2.09.47.22.79.37.72.35,1.74.83,3.02,1.45,2.65,1.3,6.42,3.14,11.07,5.42,9.35,4.64,22.22,11.02,36.43,18.06,7.44,3.72,14.58,7.11,20.95,10.24l-.34.22c-.11-10.07-.46-18.61-.85-24.62-.19-3.01-.42-5.37-.58-7-.09-.78-.15-1.4-.2-1.85-.04-.42-.06-.64-.05-.64Z" fill="#fff"/></g><g opacity=".3"><path d="m477.51,285.04s-.19-.01-.53-.09c-.4-.1-.89-.21-1.49-.36-1.37-.35-3.22-.82-5.47-1.39-4.62-1.18-11-2.8-18.06-4.51-7.07-1.71-13.48-3.18-18.13-4.24-2.27-.52-4.13-.95-5.5-1.26-.6-.15-1.09-.27-1.49-.36-.34-.09-.52-.14-.51-.16,0-.02.19,0,.53.06.4.07.9.16,1.51.27,1.31.24,3.2.62,5.54,1.1,4.67.97,11.1,2.39,18.17,4.1,7.07,1.71,13.44,3.39,18.03,4.66,2.3.64,4.15,1.17,5.43,1.55.59.18,1.08.33,1.47.45.33.11.51.17.5.19Z" fill="#fff"/></g><path d="m548.33,191.08c.05-.15,2.75,1.3,5.4,5.22,2.61,3.91,5.05,9.99,6.43,16.97.68,3.5,1.02,6.88,1.17,9.95.02,1.54.07,3,.02,4.37-.07,1.37-.09,2.64-.21,3.8-.12,1.14-.24,2.19-.34,3.12-.13.91-.28,1.69-.4,2.33-.24,1.28-.4,1.97-.47,1.96-.07-.01-.04-.73.07-2.02.06-.67.13-1.45.22-2.34.05-.93.11-1.96.18-3.1.07-1.15.05-2.41.08-3.76,0-1.35-.07-2.8-.11-4.31-.2-3.03-.56-6.36-1.23-9.8-1.35-6.87-3.66-12.88-6.03-16.77-1.19-1.94-2.44-3.34-3.33-4.24-.9-.9-1.49-1.31-1.45-1.38Z" fill="#263238"/><path d="m502.86,191.37c.1.09-.74,1.11-2.11,3.04-1.37,1.93-3.15,4.88-4.71,8.79-1.59,3.91-2.75,8.83-3.5,14.37-.73,5.55-1.04,11.75-1.45,18.23-.34,6.47-.35,12.67-.36,18.31,0,5.63,0,10.71,0,14.99-.03,4.27-.11,7.73-.24,10.11-.12,2.39-.26,3.7-.37,3.7-.11,0-.17-1.32-.24-3.71-.06-2.43-.15-5.87-.26-10.1-.11-4.26-.25-9.34-.33-14.99-.07-5.65-.1-11.86.24-18.4.41-6.51.76-12.71,1.58-18.34.83-5.62,2.14-10.64,3.9-14.59,1.74-3.96,3.7-6.89,5.24-8.74,1.55-1.84,2.54-2.73,2.6-2.68Z" fill="#263238"/><path d="m570.1,274.97c-.07,0-.14-1.18-.2-3.3-.06-2.13-.11-5.2-.15-9.01-.02-1.91-.03-3.99-.05-6.22-.04-2.23.04-4.64-.13-7.1-.19-2.44-.82-5.02-2.55-6.98-1.69-1.97-4.29-3.3-7.05-3.33-2.76-.05-5.41,1.13-7.37,2.86-1.99,1.73-3.1,4.12-3.72,6.49-.62,2.38-.88,4.77-1.25,6.97-.35,2.2-.68,4.26-.97,6.14-.6,3.75-1.11,6.79-1.48,8.88s-.61,3.25-.68,3.24.03-1.18.28-3.3c.25-2.11.64-5.16,1.15-8.93.26-1.89.54-3.95.85-6.16.33-2.21.56-4.59,1.18-7.09.62-2.47,1.8-5.11,3.97-7.01,2.11-1.89,4.99-3.19,8.06-3.14,3.07.04,5.95,1.53,7.8,3.71,1.93,2.2,2.57,5.05,2.74,7.58.15,2.56.04,4.93.04,7.17-.03,2.23-.05,4.31-.07,6.22-.05,3.8-.11,6.88-.18,9.01-.07,2.13-.14,3.3-.21,3.3Z" fill="#263238"/><path d="m560.45,229.24c-.32,3.5-1.45,7.43-3.88,9.97,2.12-.46,4.35-.42,6.45.12-1.52-3.04-1.76-6.7-1.72-10.1" fill="#263238"/><path d="m570.13,251.99c-.19.03-.3-1.68-1.59-3.97-.64-1.14-1.58-2.39-2.91-3.48-1.3-1.1-3.01-1.99-4.92-2.34-1.92-.33-3.82-.06-5.42.54-1.6.59-2.91,1.46-3.87,2.34-1.95,1.76-2.58,3.36-2.75,3.27-.09-.01.3-1.77,2.24-3.8.96-1,2.32-2.01,4.04-2.7,1.71-.7,3.8-1.04,5.94-.67,2.13.39,3.99,1.41,5.36,2.64,1.4,1.22,2.35,2.62,2.94,3.87,1.19,2.53,1.03,4.32.93,4.31Z" fill="#263238"/><path d="m596.89,365.28c5.96-.02,11.28-4.29,14.08-9.54,2.81-5.25,3.51-11.36,3.79-17.31.73-15.74-1.21-31.61-5.72-46.7l-26.1,4.56,7.11,70.29,6.84-1.29Z" fill="#ffbe9d"/><polygon points="491.33 374.03 576.31 370.93 596.92 271.36 507.41 276.33 491.33 374.03" fill="#263238"/><path d="m535.07,274.62l1.28-2.54,6.78-.5s1.72-4.45,11.41-4.9c8.69-.41,9.04,3.96,9.04,3.96h4.68v2.13l-33.2,1.84Z" fill="#455a64"/><path d="m582.45,341.94l6.44-1.88c1.21-.35,2.49-.41,3.73-.16h0c1.51.3,2.9,1.03,3.99,2.11,2.13,2.1,5.57,5.57,6.06,6.6.72,1.51.72,4.13,0,5.1s1.58,5.92,1.29,7.57-.72,3.31-1.29,3.99c-.58.69,0,3.04-1.44,4.83-1.44,1.78-2.73,2.88-2.73,2.88,0,0-17.69.83-19.42,0-1.73-.83-4.75-3.99-4.75-3.99,0,0-1.58-2.89.86-3.17l-10.07-3.86c-1.21-.46-1.93-1.81-1.46-3.02.16-.42.44-.78.89-.97,0,0-4.52-1.43-5.57-1.89-2.09-.92-2.88-5.79,1.44-5.16,2.29.33,5.37,1,5.37,1,0,0-1.65-2.69.66-4.28,1.4-.97,7.7.21,7.7.21l8.28-5.91h0Z" fill="#ffbe9d"/><path d="m584.69,368.5c0,.14-2.41.03-5.23-.78-2.84-.78-4.9-2.05-4.82-2.18.07-.12,2.17.91,4.96,1.68,2.78.8,5.11,1.13,5.09,1.28Z" fill="#eb996e"/><path d="m580.85,362.21c-.04.14-3.71-.68-8.21-1.83-4.5-1.15-8.12-2.19-8.08-2.33.04-.14,3.71.68,8.21,1.83,4.5,1.15,8.12,2.19,8.08,2.33Z" fill="#eb996e"/><path d="m582.94,355.95c-.03.14-3.99-.67-8.84-1.8-4.85-1.13-8.76-2.17-8.72-2.31.03-.14,3.99.67,8.84,1.8,4.85,1.13,8.75,2.17,8.72,2.31Z" fill="#eb996e"/><path d="m589.49,347.89c.02.07-.85.34-2.27.72-.77.2-1.61.41-2.5.64-.48.12-.97.24-1.48.37-.54.14-1.12.2-1.7.16-.58-.03-1.14-.15-1.66-.27-.51-.12-1-.23-1.49-.34-.89-.21-1.73-.42-2.51-.6-1.43-.36-2.3-.61-2.29-.69s.92.06,2.36.33c.78.15,1.63.32,2.54.49.96.17,2,.48,3.07.56,1.07.09,2.06-.29,3.03-.47.9-.19,1.75-.37,2.53-.54,1.44-.29,2.34-.44,2.36-.37Z" fill="#eb996e"/><path d="m590.62,351.28c.05-.04.29.18.49.66.19.47.31,1.21.07,1.98-.24.77-.76,1.31-1.18,1.58-.43.28-.75.32-.77.26-.08-.12,1.05-.68,1.46-2,.41-1.32-.19-2.42-.06-2.48Z" fill="#eb996e"/><path d="m590.26,358.11c.13-.06.53.65.47,1.62-.05.97-.53,1.63-.65,1.56-.13-.07.09-.74.13-1.59.05-.85-.09-1.54.05-1.6Z" fill="#eb996e"/><path d="m590.36,365.54c.13-.05.4.43.27,1.06-.12.63-.56.97-.66.87-.11-.09.06-.49.15-.98.1-.49.1-.92.24-.96Z" fill="#eb996e"/><path d="m592.29,347.48c-.01.07-.66.03-1.7-.09-.59-.08-1.2-.15-1.82-.24-.69-.11-1.4-.22-2.17-.11-.69.1-1.37.52-1.92.87-.55.37-1.04.79-1.5,1.06-.93.56-1.62.61-1.63.56-.03-.09.61-.26,1.43-.86.81-.57,1.82-1.77,3.56-2.14.42-.05.82-.06,1.21-.03.41.04.74.12,1.09.18.62.12,1.22.23,1.81.35,1.03.21,1.65.38,1.64.45Z" fill="#eb996e"/><path d="m602.51,365.61s.15-.46.45-1.27c.28-.81.73-2,.71-3.53,0-.76-.15-1.58-.38-2.46-.21-.88-.61-1.75-.83-2.81-.26-1.08.07-2.22.22-3.27.15-1.06-.09-2.18-.58-3.22-.49-1.04-1.16-1.97-1.84-2.85-.69-.87-1.36-1.72-2.03-2.48-1.33-1.53-2.77-2.7-4.18-3.27-1.4-.59-2.68-.65-3.52-.53-.85.11-1.28.34-1.3.29,0-.02.1-.08.3-.18.21-.1.53-.22.97-.31.86-.19,2.2-.19,3.69.39,1.5.56,3.03,1.75,4.4,3.3.7.77,1.38,1.61,2.08,2.48.69.88,1.39,1.84,1.91,2.94.52,1.1.78,2.34.61,3.5-.17,1.14-.47,2.15-.25,3.11.19.96.59,1.89.78,2.79.22.9.35,1.76.33,2.56-.03,1.6-.55,2.81-.89,3.6-.36.8-.61,1.21-.64,1.2Z" fill="#eb996e"/><path d="m543.02,316.35l-69.77,11.08,3.1-36.42-38.8-7.5-4.72,53.91-.82,12.36c-.55,8.37,3.28,16.43,10.13,21.28h0c6.22,4.41,14.16,5.61,21.42,3.25l14.99-4.89,73.12-26.01" fill="#ffbe9d"/><path d="m585.24,308.84c.28-1.21-.75-2.33-1.99-2.33-3.93-.02-14.55.04-18.3,1.11-4.64,1.32-21.92,8.73-21.92,8.73l7.33,27.06,26.53.28s9.69-4.45,9.81-6.38c.06-.99-.24-3.61-.24-3.61l2.92-1.57c4.36-2.77,1.57-8.07,1.57-8.07,0,0,3-1.68,3.16-4.72.17-3.21-2.34-4.47-2.34-4.47,0,0,1.2-4.28-1.03-5.43-2.23-1.15-6.02.33-6.02.33.26-.21.44-.53.53-.92Z" fill="#ffbe9d"/><path d="m586.77,309.29s-.28.13-.81.29c-.53.15-1.32.33-2.29.49-1.95.35-4.66.64-7.65.96-2.99.32-5.68.69-7.58,1.15-1.91.45-2.98,1.04-3.02.96-.02-.03.24-.2.73-.47.5-.25,1.24-.56,2.2-.85,1.91-.57,4.62-.99,7.62-1.32,2.99-.32,5.7-.56,7.65-.81,1.95-.24,3.14-.49,3.16-.41Z" fill="#eb996e"/><path d="m591.76,314.7c.03.06-.66.47-1.86.95-1.2.49-2.91,1-4.84,1.41-1.92.4-3.68.66-4.95.83-1.27.16-2.06.23-2.08.16-.03-.17,3.1-.72,6.92-1.5,1.91-.4,3.61-.85,4.82-1.24,1.21-.39,1.95-.68,1.99-.61Z" fill="#eb996e"/><path d="m591,324.1c.05.12-2.43,1.2-5.68,1.93-3.25.74-5.95.84-5.96.71-.01-.15,2.64-.48,5.85-1.21,3.21-.72,5.74-1.57,5.8-1.42Z" fill="#eb996e"/><path d="m589.38,332.13c.05.13-1.85,1-4.36,1.61-2.51.61-4.6.7-4.61.56-.02-.15,2.02-.47,4.49-1.07,2.47-.59,4.43-1.24,4.48-1.1Z" fill="#eb996e"/><path d="m575.54,327.33c.02.06-.27.24-.81.29-.53.05-1.31-.07-2.01-.56-.69-.49-1.06-1.19-1.19-1.71-.13-.52-.06-.86,0-.86.14-.04.29,1.3,1.48,2.15,1.2.85,2.5.55,2.51.69Z" fill="#eb996e"/><path d="m574.99,335.71c.02.14-1.04.21-1.94-.61-.91-.81-.97-1.87-.83-1.86.15-.03.4.8,1.18,1.47.75.69,1.61.85,1.6,1Z" fill="#eb996e"/><path d="m571.91,318.69c.06.14-.68.37-1.36-.15-.68-.51-.66-1.28-.51-1.26.15-.02.32.49.82.85.48.38,1.02.42,1.04.56Z" fill="#eb996e"/><path d="m543.02,316.35s.07-.05.21-.11c.16-.08.37-.17.63-.29.59-.26,1.41-.62,2.46-1.09,2.15-.94,5.29-2.28,9.25-3.91,1.98-.81,4.17-1.69,6.56-2.58,1.2-.42,2.43-.93,3.81-1.18,1.36-.26,2.77-.4,4.22-.52,2.9-.23,5.97-.33,9.18-.37.8,0,1.61-.01,2.43-.02.41,0,.82,0,1.24,0,.4-.02.92.04,1.32.27.82.42,1.41,1.4,1.13,2.41-.1.22-.21.26-.31.35-.1.07-.2.13-.3.18-.2.11-.4.2-.6.28-.41.17-.81.32-1.26.44-.13.04-.27-.05-.31-.18-.03-.13.05-.27.18-.31,1.08-.31,2.17-.56,3.31-.74,1.13-.17,2.3-.29,3.5-.12.59.1,1.23.28,1.71.74.48.45.73,1.08.85,1.68.22,1.23.07,2.45-.22,3.65l-.13-.3c.57.32,1.06.76,1.47,1.29,1.04,1.35,1.27,3.17.76,4.73-.53,1.57-1.69,2.79-3.04,3.62l.1-.34c.69,1.46,1.05,3.04.84,4.62-.18,1.59-1.22,2.98-2.5,3.78h-.02c-.99.54-1.96,1.06-2.93,1.57l.13-.24c.08.7.14,1.39.19,2.08.02.35.04.69.05,1.04,0,.17,0,.35,0,.53-.03.23-.11.42-.22.58-.42.62-.97,1.03-1.51,1.44-.54.4-1.1.75-1.65,1.1-2.23,1.35-4.45,2.45-6.59,3.45-.03.01-.06.02-.09.02-8.03-.12-14.66-.22-19.31-.3-2.28-.05-4.08-.09-5.34-.11-.59-.02-1.05-.03-1.4-.05-.32-.01-.48-.03-.48-.04s.16-.02.48-.03c.35,0,.81,0,1.4-.02,1.26,0,3.06,0,5.34,0,4.65.03,11.28.07,19.31.11l-.09.02c2.11-1,4.32-2.12,6.52-3.46.55-.34,1.09-.69,1.61-1.08.51-.39,1.05-.81,1.38-1.31.09-.12.12-.25.14-.36,0-.16,0-.32,0-.49,0-.33-.03-.67-.05-1.01-.05-.68-.12-1.37-.2-2.06-.01-.1.04-.2.13-.24.96-.52,1.93-1.04,2.92-1.57h-.02c1.18-.75,2.1-1.97,2.27-3.42.19-1.43-.16-2.97-.79-4.31-.06-.13-.01-.27.1-.34,1.23-.76,2.34-1.93,2.8-3.34.46-1.4.24-3.07-.68-4.26-.36-.47-.83-.89-1.29-1.15-.11-.06-.16-.19-.13-.3.27-1.11.42-2.31.22-3.41-.11-.54-.32-1.06-.7-1.41-.37-.35-.9-.52-1.44-.61-1.1-.16-2.24-.05-3.34.12-1.1.17-2.2.42-3.24.72l-.13-.49c.39-.1.8-.25,1.18-.41.19-.08.38-.17.56-.26.17-.07.34-.26.41-.24,0-.33.02-.73-.17-1.05-.16-.33-.44-.6-.77-.77-.34-.18-.67-.23-1.09-.22-.41,0-.82,0-1.23,0-.82,0-1.63,0-2.43.01-3.2.04-6.27.12-9.15.33-1.44.11-2.84.25-4.17.49-1.32.23-2.56.73-3.75,1.14-2.39.87-4.58,1.73-6.57,2.52-3.94,1.6-7.1,2.88-9.31,3.77-1.06.43-1.9.77-2.49,1.01-.27.1-.48.19-.65.25-.15.05-.22.08-.23.07Z" fill="#eb996e"/><path d="m473.53,327.37c.09.14-2.75,1.52-5.16,4.45-2.45,2.9-3.28,5.95-3.44,5.88-.06-.01.07-.79.52-1.97.45-1.18,1.28-2.75,2.52-4.24,1.24-1.49,2.63-2.59,3.71-3.24,1.08-.66,1.82-.92,1.85-.87Z" fill="#eb996e"/><path d="m564.64,111.63c-1.44-18.31-16.7-32.44-35.07-32.48h-1.83c-19.68,1.11-29.74,18.44-28.08,38.08l3.4,78.75c.06,1.32.84,2.5,2.04,3.06l44.17,20.73-1.36-41.33s18.92-2.9,19.2-21.82c.13-9.14-1.13-27.97-2.47-45Z" fill="#ffbe9d"/><path d="m548.07,178.42s-12.08.7-24.77-7.3c0,0,5.8,13.62,24.68,11.96l.09-4.66Z" fill="#eb996e"/><path d="m557.94,123.38c.05,1.43-1.12,2.64-2.61,2.72-1.49.08-2.73-1.01-2.78-2.44-.05-1.43,1.12-2.64,2.61-2.72,1.49-.08,2.73,1.02,2.78,2.44Z" fill="#263238"/><path d="m560.56,120.88c-.34.35-2.38-1.17-5.29-1.17-2.9-.04-5.04,1.45-5.35,1.09-.15-.16.19-.79,1.12-1.47.92-.67,2.48-1.32,4.29-1.31,1.81.01,3.33.68,4.21,1.37.89.69,1.19,1.33,1.03,1.48Z" fill="#263238"/><path d="m529.36,124.26c.05,1.43-1.12,2.64-2.61,2.72-1.49.08-2.73-1.01-2.78-2.44-.05-1.43,1.12-2.64,2.61-2.72,1.49-.08,2.73,1.02,2.78,2.44Z" fill="#263238"/><path d="m531.98,121.36c-.34.35-2.38-1.17-5.29-1.16-2.9-.04-5.04,1.45-5.35,1.09-.15-.16.18-.79,1.12-1.47.92-.67,2.48-1.32,4.29-1.31,1.81.01,3.33.68,4.21,1.37.89.69,1.19,1.33,1.03,1.48Z" fill="#263238"/><path d="m542.49,142.94c-.01-.17,1.79-.47,4.72-.84.74-.07,1.45-.22,1.57-.73.18-.54-.13-1.34-.49-2.2-.69-1.8-1.42-3.68-2.18-5.66-3.03-8.05-5.22-14.67-4.9-14.79.33-.12,3.05,6.31,6.08,14.37.73,1.99,1.43,3.88,2.09,5.69.28.84.76,1.8.38,2.91-.2.55-.75.96-1.22,1.08-.48.14-.89.15-1.26.17-2.95.15-4.77.16-4.79,0Z" fill="#263238"/><path d="m533.93,144.93c.47-.03.47,3.13,3.17,5.37,2.69,2.25,6.06,1.91,6.08,2.35.04.2-.75.61-2.17.65-1.39.04-3.42-.41-5.07-1.78-1.64-1.38-2.35-3.21-2.45-4.51-.12-1.32.24-2.1.45-2.08Z" fill="#263238"/><path d="m532.76,109.97c-.29.79-3.19.41-6.6.81-3.42.34-6.17,1.33-6.62.62-.2-.34.28-1.08,1.39-1.85,1.1-.76,2.86-1.48,4.91-1.71,2.05-.22,3.92.11,5.16.62,1.25.51,1.88,1.13,1.76,1.5Z" fill="#263238"/><path d="m559.51,112.46c-.51.66-2.51-.03-4.92-.07-2.41-.12-4.45.43-4.92-.26-.2-.34.12-1,1.01-1.62.88-.62,2.35-1.13,4-1.07,1.65.06,3.09.66,3.92,1.34.85.68,1.13,1.36.9,1.68Z" fill="#263238"/><path d="m502.5,131.24c-.32-.14-12.99-3.87-12.6,9.06.39,12.93,13.29,9.88,13.3,9.51.01-.37-.7-18.57-.7-18.57Z" fill="#ffbe9d"/><path d="m500.24,145.03c-.06-.04-.22.16-.6.35-.37.18-1,.32-1.68.08-1.38-.46-2.6-2.6-2.73-4.92-.07-1.18.15-2.3.53-3.24.37-.96.96-1.64,1.64-1.78.68-.18,1.18.22,1.35.58.18.36.11.62.18.64.04.03.27-.23.15-.76-.06-.26-.22-.56-.53-.8-.32-.24-.78-.36-1.26-.29-1,.1-1.87,1.04-2.29,2.08-.48,1.04-.75,2.31-.67,3.63.16,2.6,1.57,5,3.45,5.49.92.21,1.67-.09,2.05-.4.39-.33.45-.62.4-.64Z" fill="#eb996e"/><path d="m510.98,92.8l53.93,1.19c-1.68-3.72-4.67-6.7-7.92-9.16-7.01-5.31-15.62-8.63-24.42-8.79-8.79-.15-26.7,10.56-33.07,16.62-5.1,4.85-5.07,9.05-5.07,9.05-.81,6.99,3.1,14.94,4.66,21.81.8,3.54,2.35,14.25,2.35,14.25h0c2.97-.01,4.07-2.38,3.62-5.31l-.56-11.53s10.11-7.18,5.32-20.33c-.77-1.05-2.41-5.85,1.15-7.8Z" fill="#263238"/><path d="m522.3,133.7c-.17.03-.34-.09-.38-.28-.04-.19.07-.37.25-.41.17-.03.34.09.38.28.04.19-.07.37-.25.41Z" fill="#eb996e"/><path d="m527.86,132.45c-.17.03-.35-.11-.39-.33-.04-.22.06-.42.24-.46.17-.03.35.11.39.33.04.22-.06.42-.24.46Z" fill="#eb996e"/><path d="m531.6,132.36c-.18.02-.35-.19-.38-.48-.04-.29.08-.54.25-.56.18-.02.35.19.38.48.04.29-.08.54-.25.56Z" fill="#eb996e"/><path d="m525.02,137.19c-.18,0-.32-.09-.32-.21,0-.11.14-.2.32-.2.18,0,.32.09.32.21,0,.11-.14.2-.32.2Z" fill="#eb996e"/><path d="m530.12,136.02c-.18.02-.33-.14-.35-.34-.02-.2.11-.37.29-.39.18-.01.33.14.35.34.02.2-.11.37-.29.39Z" fill="#eb996e"/><path d="m556.63,132.91c-.17.03-.35-.1-.38-.29-.04-.2.07-.38.24-.42.17-.03.35.1.38.29.04.2-.07.38-.24.42Z" fill="#eb996e"/><path d="m560.42,132.57c-.18.02-.34-.15-.36-.37-.02-.22.1-.42.28-.43.18-.02.34.15.36.37.02.22-.1.42-.28.43Z" fill="#eb996e"/><path d="m553.29,132.99c-.17.03-.34-.06-.37-.21-.03-.15.09-.3.26-.34.17-.03.34.06.37.21.03.15-.09.3-.26.34Z" fill="#eb996e"/><path d="m556.09,136.79c-.16.07-.36-.02-.44-.21s-.02-.4.14-.47c.16-.07.36.02.44.21s.02.4-.14.47Z" fill="#eb996e"/><path d="m559.32,136.15c-.17-.05-.28-.2-.24-.35.04-.14.21-.22.38-.18.17.05.28.2.24.34-.04.14-.21.22-.38.18Z" fill="#eb996e"/><path d="m499.14,93.39c-1.38-4.72,0-9.98,3.03-13.86,3.03-3.87,7.99-6.16,12.9-5.96,2.52.1,5.02.82,7.53.54,4.67-.51,8.26-4.25,12.59-6.07,6.74-2.83,15.32-.26,19.39,5.82,1.64,2.45,2.72,5.48,5.23,7.02,2.17,1.33,4.91,1.22,7.35,1.96,4.94,1.49,8.32,6.73,8.06,11.88-.26,5.15-3.86,9.86-8.61,11.88s-10.4,1.45-14.9-1.05c-4.07-2.26-7.71-6.13-12.37-5.99-4.82.14-9.03,4.69-13.76,3.74-2.48-.49-4.39-2.4-6.21-4.16-1.82-1.76-3.91-3.55-6.43-3.7-2.52-.15-3.84,3.32-2.94,5.68l-10.87-7.73" fill="#263238"/><path d="m563.86,87.14s-.02.07-.09.19c-.07.12-.16.3-.31.52-.29.45-.78,1.08-1.55,1.76-.76.67-1.83,1.38-3.21,1.86-1.37.48-3.09.68-4.89.29-1.79-.38-3.69-1.32-5.16-2.94-1.47-1.62-2.35-3.78-3.72-5.68-.68-.95-1.54-1.81-2.61-2.36-1.08-.54-2.32-.81-3.58-.79-1.26.03-2.53.37-3.67.99-1.14.64-2.07,1.59-2.71,2.78-.65,1.18-1.12,2.49-1.9,3.64-.75,1.17-2.06,2.05-3.45,2.1-1.39.08-2.67-.44-3.76-1.09-1.11-.65-2.03-1.52-2.86-2.37-1.66-1.68-3.31-3.35-5.35-3.81-2.02-.48-4,.26-5.42,1.27-1.45,1.04-2.38,2.41-2.98,3.68-.6,1.29-.91,2.48-1.11,3.47-.2.99-.29,1.76-.36,2.29-.06.53-.09.81-.11.8,0,0-.01-.07-.01-.21,0-.14,0-.34.02-.61.03-.53.09-1.32.26-2.32.17-1,.46-2.22,1.05-3.55.59-1.32,1.53-2.76,3.02-3.86,1.46-1.07,3.54-1.89,5.73-1.4,2.21.48,3.93,2.23,5.59,3.89.84.84,1.72,1.67,2.78,2.28,1.04.61,2.25,1.08,3.48,1,1.23-.06,2.36-.8,3.06-1.89.73-1.07,1.2-2.36,1.87-3.6.66-1.25,1.7-2.31,2.91-2.98,1.22-.66,2.57-1.02,3.91-1.05,1.34-.02,2.66.26,3.82.86,1.16.6,2.07,1.54,2.77,2.52,1.41,1.98,2.25,4.12,3.65,5.68,1.38,1.55,3.19,2.48,4.92,2.86,1.73.4,3.39.23,4.72-.21,1.35-.44,2.4-1.1,3.17-1.73,1.54-1.3,2.02-2.36,2.08-2.31Z" fill="#455a64"/><path d="m573.63,87.33s.15.36.22,1.04c.07.68.04,1.69-.27,2.89-.32,1.19-.96,2.55-2.02,3.81-1.06,1.26-2.54,2.35-4.26,3.1-3.49,1.53-7.03,1.39-9.41,1.06-1.21-.17-2.17-.39-2.83-.56-.66-.17-1.01-.3-1-.33.02-.09,1.48.28,3.87.53,2.37.23,5.8.3,9.15-1.17,1.66-.73,3.09-1.76,4.11-2.94,1.03-1.18,1.68-2.47,2.03-3.6.71-2.3.29-3.83.41-3.83Z" fill="#455a64"/><path d="m481.6,295.69c.18,2.16,1.11,4.1,2.27,5.6s3.51,2.97,5.4,2.87c0,0,4.72.4,7.27-3.65,2.3-3.67,2.87-11.3,1.02-15.81-1.27-3.1-4.12-5.99-7.48-6.06-4.4-.1-7.16,3.08-8.1,6.29" fill="#e0e0e0"/><path d="m481.98,284.93s.1-.84.81-2.16c.36-.65.88-1.42,1.65-2.16.76-.74,1.81-1.43,3.11-1.83.65-.19,1.35-.32,2.09-.33.73-.04,1.53.05,2.29.3,1.53.49,2.95,1.55,4.08,2.93,1.14,1.37,1.99,3.11,2.4,5,.43,1.89.56,3.89.45,5.93-.2,3.13-.82,6.25-2.55,8.63-.88,1.17-2.08,2.01-3.32,2.5-1.25.5-2.53.69-3.76.63h.03c-1.01.04-1.91-.29-2.69-.67-.78-.4-1.46-.88-2.03-1.41-1.13-1.09-1.76-2.29-2.21-3.29-.43-1.01-.61-1.85-.7-2.43-.04-.29-.06-.51-.06-.66,0-.15,0-.23,0-.23.08-.02.07,1.26.98,3.22.47.95,1.12,2.13,2.22,3.13.55.5,1.21.95,1.96,1.32.75.35,1.61.64,2.5.59h0s.02,0,.02,0c2.25.08,4.99-.79,6.65-3.01,1.61-2.23,2.23-5.29,2.43-8.36.21-3.96-.45-7.94-2.7-10.59-1.07-1.33-2.42-2.34-3.85-2.82-.71-.24-1.44-.33-2.14-.31-.71,0-1.38.12-2,.29-1.24.35-2.26.99-3.02,1.69-.77.69-1.3,1.43-1.67,2.05-.75,1.26-.93,2.08-.99,2.06Z" fill="#263238"/><path d="m479.26,295.88c.18,2.16,1.11,4.1,2.27,5.6,1.16,1.5,3.51,2.97,5.4,2.87,0,0,4.72.4,7.27-3.65,2.3-3.67,2.87-11.3,1.02-15.81-1.27-3.1-4.12-5.99-7.48-6.06-4.4-.1-7.16,3.08-8.1,6.29" fill="#e0e0e0"/><path d="m479.64,285.13s.1-.84.81-2.16c.36-.65.88-1.42,1.65-2.16.76-.74,1.81-1.43,3.11-1.83.65-.19,1.35-.32,2.09-.33.73-.04,1.53.05,2.29.3,1.53.49,2.95,1.55,4.08,2.93,1.14,1.37,1.99,3.11,2.4,5,.43,1.89.56,3.89.45,5.93-.2,3.13-.82,6.25-2.55,8.63-.88,1.17-2.08,2.01-3.32,2.5-1.25.5-2.53.69-3.76.63h.03c-1.01.04-1.91-.29-2.69-.67-.78-.4-1.46-.88-2.03-1.41-1.13-1.08-1.76-2.29-2.21-3.29-.43-1.01-.61-1.85-.7-2.43-.04-.29-.06-.51-.06-.66,0-.15,0-.23,0-.23.08-.02.07,1.26.98,3.22.47.95,1.12,2.13,2.22,3.13.55.5,1.21.95,1.96,1.32.75.35,1.61.64,2.5.59h0s.02,0,.02,0c2.25.08,4.99-.79,6.65-3.01,1.61-2.23,2.23-5.29,2.43-8.36.21-3.96-.45-7.94-2.7-10.59-1.07-1.33-2.42-2.34-3.85-2.82-.71-.24-1.44-.33-2.14-.31-.71,0-1.38.12-2,.29-1.24.35-2.26.99-3.02,1.69-.77.69-1.3,1.43-1.67,2.05-.75,1.26-.93,2.08-.99,2.06Z" fill="#263238"/><path d="m483.5,284c-2.19-.44-4.44,1.07-5.37,3.09-.93,2.03-.72,4.42.01,6.53.37,1.07.89,2.11,1.67,2.94s1.85,1.42,2.98,1.45c1.66.05,3.16-1.09,4.13-2.44,1.56-2.18,2.09-5.07,1.41-7.67-.46-1.73-1.73-3.51-3.52-3.56" fill="#e0e0e0"/><path d="m484.81,284.35s.14-.03.4-.01c.26.03.65.12,1.08.37.88.49,1.88,1.69,2.29,3.44.42,1.72.38,3.96-.62,6.12-.5,1.07-1.21,2.13-2.24,2.94-1,.81-2.46,1.33-3.86.92-1.38-.39-2.43-1.41-3.08-2.52-.66-1.12-1.04-2.3-1.28-3.45-.48-2.3-.09-4.58,1-6.04,1.07-1.47,2.51-2.09,3.49-2.22.49-.08.88-.04,1.14,0,.26.05.39.09.38.11,0,.06-.55-.1-1.49.09-.92.18-2.26.82-3.22,2.23-.98,1.38-1.31,3.53-.83,5.73.24,1.1.63,2.25,1.25,3.29.62,1.03,1.57,1.94,2.79,2.28,1.21.35,2.47-.08,3.41-.82.95-.74,1.64-1.74,2.12-2.74.97-2.04,1.06-4.18.69-5.84-.34-1.67-1.24-2.85-2.03-3.35-.8-.52-1.39-.47-1.38-.53Z" fill="#263238"/><path d="m488.54,300.44c-.08.02-.19-.31-.53-.72-.33-.4-.94-.85-1.71-1.09-.78-.24-1.54-.28-2.1-.33-.56-.04-.91-.09-.91-.16,0-.07.34-.15.91-.21.57-.05,1.38-.07,2.26.2.88.27,1.55.85,1.85,1.38.31.53.29.92.23.93Z" fill="#263238"/><path d="m489.33,282.64s-.15.36-.62.73c-.46.37-1.21.76-2.11.92-.9.16-1.74.06-2.3-.13-.56-.18-.86-.41-.83-.46.05-.15,1.38.39,3.04.08,1.66-.28,2.72-1.25,2.82-1.13Z" fill="#263238"/></g><g id="Character_1"><path d="m213.8,107.73c.12-4.36-3.9-7.72-7.96-9.32s-8.56-2.2-12.18-4.63c-3.2-2.15-5.35-5.51-8.06-8.26-6.65-6.74-17.03-9.53-26.16-7.04-9.13,2.49-16.65,10.17-18.96,19.35-1.56,6.2-.49,13.54,4.4,17.66,5.68,4.78,14.09,3.72,21.36,2.23,7.27-1.49,15.5-2.96,21.58,1.31,3.66,2.58,5.76,6.77,8,10.64,2.24,3.88,5.05,7.84,9.28,9.29,4.23,1.46,9.98-1.06,10.15-5.53" fill="#263238"/><path d="m213.51,110.12c-.48,3.65,2.16,6.92,4.79,9.5,2.63,2.58,5.6,5.31,6.07,8.97.54,4.27-2.57,8.47-1.67,12.68.57,2.67,2.65,4.73,3.91,7.15,1.77,3.4,1.86,7.52.78,11.19-1.08,3.68-2.81,11.89-5.37,14.75-7.07,7.9-18.32,14.72-28.66,17.1-10.33,2.37-21.07,2.39-31.65,1.74-8.66-.53-18.63-.13-25.84-12.05-3.74-6.17-5.59-14.38-7.58-21.32-1.71-5.97-3.19-12.37-1.41-18.32,1.04-3.47,3.12-6.55,4.15-10.03,1.28-4.34.81-8.98,1.32-13.47,1.11-9.73,7.15-18.76,15.71-23.52,8.56-4.75,19.42-5.09,28.27-.89" fill="#263238"/><path d="m136.49,125.1c.81-12.43,9.08-27.67,21.47-26.33l38.66,9.86c3.76.41,6.59,3.62,6.51,7.41l-4.35,93.28c.09.02.18.04.27.06,0,0-8.81,26.31-34.38,18.27-5.07-1.59-7.38-7.14-8.39-12.84l-.26.03c0-.68-.02-1.31-.03-1.95-.84-6.58-.15-12.81-.15-12.81h0c-.07-7.53-.06-10.62-.07-10.55,0,0-15.88-2.67-19.12-23.41-1.61-10.31-1.06-27.21-.16-41.02Z" fill="#ffbe9d"/><path d="m142.72,137.59c-.05,1.4,1.09,2.61,2.56,2.69,1.46.08,2.69-.99,2.75-2.39.05-1.4-1.09-2.61-2.55-2.69-1.46-.08-2.7.99-2.75,2.39Z" fill="#263238"/><path d="m140.14,133.89c.33.35,2.35-1.14,5.21-1.12,2.86-.03,4.95,1.45,5.26,1.1.15-.15-.18-.78-1.09-1.45-.9-.66-2.43-1.31-4.21-1.31-1.78,0-3.28.66-4.14,1.33-.88.67-1.18,1.3-1.02,1.45Z" fill="#263238"/><path d="m170.83,137.59c-.05,1.4,1.09,2.61,2.56,2.69,1.46.08,2.69-.99,2.74-2.39.05-1.4-1.09-2.61-2.55-2.69-1.46-.08-2.69.99-2.75,2.39Z" fill="#263238"/><path d="m168.25,134.49c.33.35,2.35-1.14,5.21-1.12,2.86-.03,4.95,1.45,5.26,1.1.15-.15-.18-.78-1.09-1.45-.9-.67-2.43-1.31-4.21-1.31-1.78,0-3.28.66-4.14,1.33-.88.67-1.18,1.3-1.02,1.45Z" fill="#263238"/><path d="m157.82,155.68c.01-.16-1.76-.47-4.64-.85-.73-.08-1.42-.22-1.54-.72-.17-.53.14-1.31.49-2.16.69-1.77,1.41-3.62,2.17-5.56,3.02-7.91,5.2-14.42,4.88-14.54-.32-.12-3.03,6.2-6.04,14.11-.73,1.95-1.42,3.81-2.08,5.59-.28.83-.76,1.77-.39,2.87.2.55.73.94,1.2,1.07.47.14.88.15,1.24.17,2.9.16,4.7.18,4.71.02Z" fill="#263238"/><path d="m155.77,189.52s13.94.93,27.77-7.34c0,0-7.01,14.33-27.75,12.35l-.02-5Z" fill="#eb996e"/><path d="m159.02,162.57c1.03-1.36,2.84-2.1,4.62-1.9,1.24.14,2.49.74,3.25,1.75.75,1.01.91,2.45.22,3.41-.77,1.08-2.39,1.33-3.75.94-1.36-.39-2.54-1.29-3.65-2.19-.31-.25-.62-.51-.81-.85-.19-.34-.23-.78,0-1.06" fill="#eb996e"/><path d="m166.23,157.68c-.46-.03-.48,3.08-3.14,5.27-2.66,2.21-5.97,1.85-5.99,2.28-.04.19.74.6,2.13.65,1.37.05,3.37-.39,5-1.73,1.62-1.35,2.33-3.15,2.43-4.42.12-1.3-.22-2.07-.44-2.05Z" fill="#263238"/><path d="m166.97,129.48c.28.78,3.14.42,6.49.83,3.36.34,6.07,1.33,6.51.64.2-.33-.27-1.07-1.36-1.82-1.08-.75-2.81-1.47-4.83-1.7-2.01-.22-3.86.09-5.08.59-1.23.49-1.85,1.1-1.73,1.47Z" fill="#263238"/><path d="m141.2,125.62c.5.65,2.47-.02,4.84-.05,2.37-.11,4.37.45,4.84-.23.2-.33-.11-.98-.99-1.6-.86-.61-2.31-1.12-3.93-1.07-1.63.05-3.04.63-3.87,1.3-.84.67-1.12,1.33-.89,1.65Z" fill="#263238"/><path d="m211.09,176.81c-5.7,1.15-11.91-.6-16.17-4.56s-6.46-10.02-5.73-15.79c.64-5.09,3.39-10.27,1.62-15.09-2.33-6.37-11.26-8.33-13.63-14.69-1.38-3.69-.14-8.02-1.7-11.64-1.47-3.4-5.05-5.37-8.54-6.63s-7.22-2.13-10.15-4.41c-2.93-2.28-4.75-6.57-2.86-9.76,15.46,1.85,30.7,5.56,45.29,11,3.38,1.26,6.94,2.78,8.93,5.79,2.12,3.18,2.01,7.29,1.84,11.11-.87,18.61-1.74,37.22-2.6,55.83" fill="#263238"/><path d="m209.79,183.94s.12-.06.33-.21c.25-.19.55-.42.92-.7.8-.63,1.98-1.56,3.43-2.84,1.44-1.29,3.19-2.93,4.87-5.13,1.67-2.19,3.31-5.03,3.88-8.53.62-3.4.16-7.69-2.67-10.91-1.4-1.58-3.19-2.76-4.83-4.12-1.67-1.33-3.05-3.03-3.77-5.14-1.53-4.23-.85-9.12-1.44-14.12-.66-4.97-2.43-10.11-5.88-14.28-1.72-2.06-3.78-3.85-6.15-5.02-2.35-1.24-4.9-1.75-7.25-2.45-2.38-.66-4.56-1.64-6.36-3.14-1.82-1.47-3.31-3.25-4.62-5.09-2.6-3.7-4.53-7.64-7.01-10.92-1.23-1.64-2.58-3.13-4.08-4.34-1.51-1.2-3.16-2.09-4.84-2.64-3.34-1.14-6.88-.76-9.2.92-2.3,1.75-3.14,4.27-3.27,6.2-.1,1.99.58,3.49,1.25,4.27.33.4.62.67.84.81.21.16.32.23.33.22,0-.01-.08-.11-.27-.29-.2-.16-.47-.44-.76-.85-.6-.79-1.18-2.23-1.04-4.13.17-1.85,1.05-4.23,3.21-5.81,2.19-1.52,5.52-1.85,8.7-.72,1.6.54,3.18,1.41,4.61,2.57,1.43,1.16,2.73,2.63,3.92,4.24,2.4,3.23,4.29,7.16,6.93,10.96,1.33,1.88,2.85,3.74,4.76,5.29,1.88,1.58,4.25,2.65,6.66,3.32,2.4.71,4.88,1.22,7.09,2.4,2.24,1.12,4.21,2.82,5.86,4.8,3.3,4,5.05,8.98,5.69,13.81.6,4.83-.1,9.8,1.54,14.29.76,2.24,2.32,4.12,4.04,5.47,1.7,1.39,3.46,2.53,4.78,4,2.66,2.96,3.16,7,2.6,10.3-.5,3.38-2.04,6.15-3.65,8.33-1.62,2.19-3.3,3.85-4.7,5.17-1.41,1.32-2.55,2.29-3.31,2.96-.76.67-1.16,1.03-1.14,1.06Z" fill="#455a64"/><path d="m213.58,186.51c4.26-4.12,11.54-.54,15.11,4.19,3.57,4.73,6.11,10.82,11.54,13.19,5.43,2.38,12.49.33,17.04,4.12,6.28,5.22,2.75,17.31,9.55,21.85,2.7,1.8,6.25,1.74,9.13,3.22,6.79,3.5,6.71,13.08,5.66,20.65-1.47,10.62-3.09,21.63-8.95,30.61-5.86,8.98-17.27,15.3-27.42,11.83-9.75-3.33-14.76-13.85-18.72-23.36-5.49-13.16-10.98-26.31-16.46-39.47-3.17-7.61-6.38-15.34-7.41-23.52-1.03-8.18.36-17.02,5.56-23.42" fill="#263238"/><path d="m216.31,177.44c3.1-.37,5.46,3.42,4.64,6.43-.81,3.01-3.71,5.02-6.65,6.05-1.65.58-3.43.93-5.14.59-1.71-.34-3.34-1.47-3.89-3.13-.58-1.74-.13-2.92,1.42-3.89,2.04-1.27,3.23-2.27,4.84-3.16,2.46-1.36,2.31-1.54,4.77-2.89" fill="#6673f0"/><polygon points="145.08 210.79 157.1 201.68 202.41 198.78 204.23 204.85 189.49 296.82 201.12 406.54 137.91 406.54 145.08 210.79" fill="#6673f0"/><g opacity=".3"><path d="m193.59,367.61c-1.44-1.54-3.82-3.67-5.93-3.71-15.13-.33-30.59-1.85-45.73-2.18l-1.21,44.84c3.62-6.38,7.05-13.02,8-20.3.42-3.18.95-6.98,3.85-8.34,1.64-.77,3.56-.47,5.34-.12,5.47,1.08,10.9,2.49,16.46,2.84,5.56.35,11.38-.47,16.05-3.5,1.6-1.04,3.09-2.39,3.84-4.15.75-1.76.63-3.98-.68-5.38Z"/></g><path d="m154.88,212.64l-1.4-13.15c-.25-2.32,1.45-4.38,3.77-4.59l41.71-3.77c1.13-.1,2.11.77,2.15,1.9l.47,15.64-12.08,20.49-12.41,3.95h-15.18l-8.73-9.32,1.71-11.16Z" fill="#6673f0"/><path d="m195.41,203.66s-.6-.06-1.67-.17c-1.07-.1-2.63-.19-4.55-.08-1.92.11-4.19.43-6.68.96-2.49.52-5.2,1.26-8.07,1.95-2.87.7-5.64,1.26-8.21,1.46-2.57.21-4.91.02-6.81-.46-1.9-.46-3.33-1.19-4.25-1.77-.46-.3-.8-.55-1.02-.73-.22-.19-.33-.29-.31-.3.03-.04.5.33,1.43.86.94.52,2.36,1.17,4.23,1.58,1.86.43,4.16.57,6.68.34,2.53-.22,5.27-.8,8.13-1.49,2.86-.7,5.58-1.42,8.09-1.92,2.51-.51,4.81-.8,6.76-.86,1.94-.07,3.52.08,4.59.24.54.09.95.17,1.23.24.28.07.42.11.42.13Z" fill="#263238"/><g opacity=".3"><path d="m155.87,205.72c-1.12,3.07-1.15,6.87,1.12,9.23,1.85,1.92,4.81,2.4,7.42,1.88,2.61-.52,4.96-1.89,7.25-3.26,5.74-3.42,11.58-6.95,18.1-8.4.42-.09.86-.19,1.17-.49s.38-.88.04-1.13c-.15-.11-.35-.14-.54-.16-5.77-.58-11.5,1.05-17.15,2.32-5.66,1.27-11.7,2.17-17.15.2"/></g><path d="m163.84,194.48c.04.07-.81.28-1.43,1.36-.66,1.06-.62,2.85-.57,4.79.11,3.89.75,7,.6,7.03-.07.01-.31-.75-.56-2.01-.25-1.26-.49-3.04-.55-5.01-.02-.99-.03-1.92.06-2.79.09-.86.34-1.65.72-2.21.38-.56.83-.9,1.18-1.05.34-.15.56-.15.56-.12Z" fill="#263238"/><path d="m174.86,205.91c-.16-.02.21-2.88-.3-6.37-.48-3.49-1.64-6.14-1.48-6.2.06-.03.42.6.85,1.69.43,1.09.89,2.66,1.15,4.43.25,1.78.24,3.41.13,4.57-.11,1.17-.28,1.87-.35,1.86Z" fill="#263238"/><path d="m188.29,192.24c.05-.03.43.53.8,1.55.36,1.01.65,2.51.55,4.17-.11,1.66-.6,3.1-1.09,4.06-.49.96-.95,1.46-.99,1.43-.15-.07,1.38-2.31,1.57-5.53.24-3.21-.98-5.63-.82-5.68Z" fill="#263238"/><path d="m129.81,216.7s-14.22,9.52-17.95,26.72c-2.94,13.52-10.98,84.94-10.98,84.94l-14.09,27.43,9.2,21.88h0c7.88.56,15.7-1.68,22.1-6.32l6.19-4.49,11.35-16.84-5.81-133.32Z" fill="#ebebeb"/><polygon points="153.91 204.09 129.81 216.7 124.12 235.4 119.05 289.59 128.59 353.11 111.85 406.34 140.72 406.56 141.41 375.35 144.29 274.36 147.12 210.02 153.91 204.09" fill="#ebebeb"/><path d="m142.24,288.28s-.17-.25-.45-.75c-.3-.55-.7-1.28-1.2-2.21-.5-.97-.98-2.22-1.61-3.64-.3-.72-.54-1.51-.84-2.34-.29-.83-.61-1.71-.85-2.65-2.27-7.48-3.77-18.29-3.45-30.21.03-.92.07-1.84.13-2.75v-.16s.16-.06.16-.06c1.43-.6,2.84-1.19,4.22-1.77l-.06.44c-1.45-1.16-2.86-2.3-4.21-3.39l-.09-.07v-.1c-.2-4.49.89-8.53,1.92-12.05,1.06-3.53,2.22-6.57,3.24-9.06,1.02-2.5,1.91-4.45,2.54-5.78.32-.66.57-1.17.74-1.51.18-.34.28-.51.29-.51.01,0-.06.19-.21.54-.17.39-.39.9-.67,1.54-.59,1.35-1.43,3.32-2.4,5.82-.97,2.51-2.1,5.55-3.12,9.07-.99,3.5-2.04,7.54-1.83,11.89l-.09-.17c1.36,1.09,2.77,2.21,4.22,3.37l.34.27-.4.17c-1.38.58-2.78,1.17-4.22,1.78l.16-.22c-.06.89-.1,1.81-.13,2.72-.31,11.87,1.12,22.63,3.29,30.1.23.95.54,1.82.81,2.65.28.83.51,1.62.8,2.34.6,1.42,1.05,2.68,1.52,3.66.46.94.83,1.69,1.11,2.25.25.52.37.79.36.8Z" fill="#263238"/><path d="m123.32,326.23s-.1-.27-.23-.78c-.14-.57-.33-1.32-.57-2.27-.25-.99-.54-2.2-.81-3.62-.28-1.42-.65-3.02-.93-4.82-.32-1.79-.65-3.76-.92-5.88-.32-2.12-.54-4.4-.8-6.79-.43-4.8-.72-10.09-.73-15.64.03-5.56.34-10.85.79-15.65.27-2.39.49-4.67.82-6.79.28-2.12.62-4.09.94-5.88.29-1.8.66-3.4.95-4.82.28-1.42.57-2.63.83-3.61.24-.95.43-1.71.58-2.27.14-.52.22-.79.24-.78.02,0-.03.28-.13.81-.12.57-.28,1.33-.48,2.29-.22.99-.48,2.21-.74,3.63-.26,1.42-.61,3.03-.87,4.82-.3,1.79-.62,3.76-.88,5.88-.31,2.11-.52,4.39-.77,6.77-.42,4.78-.72,10.06-.74,15.6,0,5.54.28,10.82.69,15.6.24,2.39.45,4.66.75,6.78.25,2.12.56,4.09.86,5.88.26,1.8.6,3.41.86,4.83.25,1.42.51,2.64.73,3.63.2.96.36,1.72.47,2.29.1.53.15.8.13.81Z" fill="#263238"/><path d="m129.84,375.01c.06.03-.35.98-1.17,2.43-.82,1.45-2.08,3.38-3.69,5.35-1.61,1.97-3.26,3.59-4.52,4.67-1.26,1.09-2.11,1.68-2.15,1.63-.05-.06.71-.75,1.9-1.9,1.18-1.15,2.77-2.79,4.37-4.73,1.59-1.95,2.89-3.82,3.78-5.21.89-1.39,1.42-2.27,1.49-2.23Z" fill="#263238"/><path d="m240.62,215.16c10.3,3.99,17.94,12.83,20.38,23.6,7.88,34.77,21.38,81.01,21.59,95.93.27,19-8.04,32.01-18.88,34.41-8.58,1.9-86.32-2.36-86.32-2.36l-3.64-28.97,62.96-9.27-8.62-48.17,8.53-66.72,4,1.55Z" fill="#ebebeb"/><path d="m236.62,213.61l-17.41-7.11-18.35-10.75-.12,3.14h0c2.25,3.85,3.02,8.38,2.18,12.76l-15.27,79.67,3.46,58.21,7.11,57.04h55.21l-25.35-59.65,8.95-80.38-.42-52.91Z" fill="#ebebeb"/><path d="m252.75,369.57s-.13.03-.38.05c-.27.03-.64.06-1.11.11-.98.11-2.43.1-4.3.15-3.75.02-9.18-.08-15.95-.3-13.53-.45-32.37-1.36-53.63-2.59h-.21s-.03-.23-.03-.23c-.43-3.45-.89-7.09-1.36-10.79-.78-6.25-1.55-12.35-2.28-18.18l-.03-.25.25-.04c19.23-2.8,36.04-5.24,48.07-6.99,5.99-.85,10.79-1.53,14.12-2,1.63-.22,2.9-.39,3.79-.52.41-.05.74-.09.98-.12.22-.02.33-.03.34-.03s-.11.03-.33.07c-.24.04-.56.1-.98.17-.89.14-2.15.34-3.78.6-3.32.51-8.11,1.24-14.09,2.15-12.03,1.79-28.83,4.3-48.05,7.17l.22-.28c.73,5.84,1.5,11.93,2.29,18.18.46,3.69.92,7.33,1.35,10.79l-.24-.23c21.26,1.25,40.09,2.22,53.61,2.76,6.76.27,12.19.42,15.94.46,1.87-.02,3.32.02,4.3-.05.47-.02.84-.04,1.11-.06.25-.01.38-.01.38,0Z" fill="#263238"/><path d="m227.58,275.46s.06.19.14.54c.08.41.18.92.3,1.54.26,1.42.61,3.34,1.04,5.69.85,4.88,2,11.49,3.27,18.8,1.22,7.32,2.32,13.94,3.14,18.83.37,2.36.67,4.29.89,5.72.09.63.16,1.14.22,1.56.04.36.06.55.04.55-.02,0-.07-.18-.14-.53-.08-.41-.19-.92-.31-1.54-.26-1.42-.62-3.34-1.06-5.69-.87-4.81-2.04-11.45-3.29-18.8-1.25-7.35-2.36-14-3.12-18.83-.36-2.36-.66-4.29-.88-5.72-.08-.63-.15-1.15-.21-1.56-.04-.36-.05-.55-.03-.55Z" fill="#263238"/><path d="m208.87,201.35s.03.06.07.19c.04.16.1.35.16.58.13.52.35,1.27.56,2.27.45,1.98.97,4.9,1.33,8.57.36,3.67.52,8.11.33,13.08-.17,4.97-.7,10.47-1.45,16.3l-.02.18-.18.03c-1.81.34-3.74.69-5.69,1.06l.19-.35c.32.87.66,1.81.92,2.79,1.85,6.76,1.04,13.59-.65,19.31-1.72,5.77-4.34,10.55-6.69,14.4-2.37,3.85-4.52,6.82-6,8.87-.73.99-1.31,1.77-1.73,2.34-.19.24-.34.44-.46.6-.11.13-.16.2-.17.19s.04-.08.13-.23c.11-.17.25-.37.42-.63.4-.58.95-1.38,1.65-2.4,1.42-2.08,3.52-5.08,5.85-8.94,2.3-3.86,4.87-8.63,6.54-14.35,1.65-5.67,2.43-12.41.61-19.04-.25-.95-.59-1.88-.9-2.73l-.11-.3.3-.06c1.95-.36,3.88-.71,5.69-1.05l-.21.22c.76-5.82,1.31-11.3,1.51-16.25.22-4.95.1-9.37-.22-13.03-.31-3.66-.78-6.58-1.17-8.57-.18-1-.37-1.76-.47-2.28-.05-.24-.08-.43-.12-.59-.02-.13-.03-.2-.02-.21Z" fill="#263238"/><path d="m208.87,283.07v-12.71s.17-3.14-2.48-2.48c-2.64.66-2.15,5.61-2.15,5.61,0,0-.5,19.31.66,19.15,1.16-.16,1.6-1.65,1.6-1.65v-7.43l2.36-.5Z" fill="#6673f0"/><path d="m219.85,283.86c0,.14-3.05.26-6.81.26s-6.81-.12-6.81-.26,3.05-.26,6.81-.26,6.81.12,6.81.26Z" fill="#263238"/><path d="m245,222.7s-.5.21-1.42.53c-.91.34-2.23.84-3.78,1.63-3.08,1.57-7.1,4.41-10.22,8.71-.79,1.06-1.46,2.17-2.01,3.27-.51,1.13-.92,2.26-1.21,3.37-.6,2.21-.86,4.27-1.01,6.01-.15,1.73-.18,3.15-.19,4.12,0,.98,0,1.52-.04,1.52-.04,0-.11-.54-.17-1.51-.05-.98-.08-2.4.02-4.15.11-1.75.33-3.84.92-6.1.28-1.13.69-2.29,1.21-3.46.57-1.15,1.24-2.28,2.05-3.36,3.18-4.38,7.31-7.23,10.47-8.73,1.59-.76,2.94-1.22,3.88-1.5.95-.26,1.48-.37,1.49-.33Z" fill="#263238"/><polygon points="20.9 328.36 111.85 362.05 188.52 373.77 97.36 329.33 20.9 328.36" fill="#263238"/><path d="m59.82,364.69c-.72-4.84-2.38-9.55-4.84-13.78-.48-.83-1.01-1.66-1.24-2.59-.24-.93-.13-2.01.51-2.71,1.17-1.27,3.3-.71,4.74.25,2.97,1.99,4.96,5.19,6.12,8.57s1.59,6.96,2,10.51" fill="#ffbe9d"/><path d="m95.27,356.03h-4.52c-.9-.95-2.27-1.79-3.97-2.28-1.04-.3-2.07.26-2.99,1.16,2.02-3.33,4.2-7,4.62-8,.81-1.95-.98-3.42-3.91-3.42s-15.79,18.23-15.79,18.23c0,0,7.99-14.66,8.77-16.9,1.94-5.6-4.19-6.02-6.41-3.32-2.76,3.35-13.91,20.22-13.91,20.22,0,0-2.12,3.42-.65,6.67,1.47,3.26,5.7,1.95,5.7,1.95,0,0-.03,2.85,2.99,4.53,3.27,1.82,7.56-.29,7.56-.29l16.64,3.74s2.64-.27,6.02-.6c8.43-.84,15.21-7.3,16.44-15.68h0s-16.58-6.02-16.58-6.02Z" fill="#ffbe9d"/><path d="m84.06,354.66c.19.11-2.03,3.6-4.9,7.77-1.44,2.09-2.77,3.96-3.75,5.3s-1.63,2.15-1.68,2.11c-.06-.04.47-.92,1.38-2.32.91-1.39,2.19-3.3,3.63-5.39,1.44-2.09,2.76-3.97,3.72-5.32.43-.59.81-1.11,1.15-1.59.28-.38.41-.56.45-.57Z" fill="#eb996e"/><path d="m83.06,373.22c-.07-.04.49-1.09,1.48-2.72.98-1.64,2.38-3.88,3.92-6.35.76-1.24,1.5-2.42,2.11-3.51.63-1.05.59-2.2.37-3.09-.49-1.81-1.51-2.59-1.42-2.65.02-.02.28.14.65.54.36.4.84,1.06,1.13,2.01.29.92.38,2.24-.3,3.41-.6,1.13-1.32,2.32-2.09,3.56-1.54,2.48-2.99,4.68-4.06,6.27-1.07,1.58-1.73,2.56-1.79,2.53Z" fill="#eb996e"/><path d="m91.81,374.88c-.07-.02.21-1.04.88-2.6.36-.82.76-1.73,1.19-2.71.43-1.02.93-2.14,1.22-3.36.3-1.18.1-2.44-.53-3.25-.3-.4-.75-.64-1.19-.85-.43-.2-.86-.33-1.24-.35-.75.04-1.38.45-1.79.63-.42.21-.67.31-.68.28-.02-.03.19-.19.58-.45.2-.13.44-.29.75-.45.31-.15.65-.35,1.14-.37.47-.01.94.12,1.42.32.46.2.99.45,1.39.94.77.96.98,2.36.66,3.67-.31,1.29-.83,2.42-1.29,3.44-.47,1.02-.92,1.91-1.29,2.67-.76,1.51-1.15,2.46-1.22,2.44Z" fill="#eb996e"/><path d="m94.88,359.13s.27.03.71.21c.44.18,1.05.51,1.74,1.02,1.36,1,2.99,2.93,3.58,5.53.58,2.6-.08,5.04-.89,6.53-.4.76-.82,1.31-1.14,1.66-.32.35-.53.52-.55.49-.07-.06.67-.82,1.36-2.32.7-1.48,1.25-3.8.71-6.25-.55-2.45-2.04-4.32-3.3-5.36-1.27-1.07-2.26-1.44-2.22-1.52Z" fill="#eb996e"/><path d="m65.58,349.57c.12.08-1.57,2.78-3.77,6.03-2.2,3.25-4.08,5.82-4.2,5.74s1.57-2.78,3.77-6.03c2.2-3.25,4.08-5.82,4.2-5.74Z" fill="#eb996e"/><path d="m173.48,338.85l-10.4-2.36-9.99-9.41c-1.21-1.14-2.79-1.82-4.45-1.92l-18.17-1.05c-1.81-.1-3.6.49-4.98,1.66l-12.99,10.98,56.67,27.63,7.78.69-3.46-26.23Z" fill="#ffbe9d"/><path d="m142.67,333.99c-.02.08-1.35-.16-3.5-.44-2.12-.23-5.24-.53-8.23.85-1.49.67-2.77,1.6-3.92,2.45-1.15.86-2.18,1.66-3.09,2.28-.91.62-1.69,1.05-2.25,1.31-.56.25-.89.36-.9.33-.04-.08,1.2-.63,2.93-1.94.87-.64,1.87-1.47,3.01-2.36,1.15-.88,2.44-1.85,4-2.54,1.54-.73,3.18-.99,4.64-1.04,1.47-.04,2.77.12,3.85.29,1.08.18,1.95.37,2.54.52.59.15.92.25.91.28Z" fill="#eb996e"/><path d="m146.4,344.11c-.03.08-.74-.24-1.96-.37-1.21-.14-2.92,0-4.67.65-1.75.65-3.22,1.55-4.28,2.2-1.06.65-1.73,1.05-1.77.99-.04-.06.55-.56,1.56-1.29,1.02-.72,2.48-1.7,4.3-2.38,1.83-.67,3.65-.77,4.9-.53,1.27.23,1.94.69,1.91.74Z" fill="#eb996e"/><path d="m169.79,345.79c-.13.08-1.59-2.09-3.52-4.67-1.92-2.59-3.59-4.61-3.47-4.71.1-.09,1.95,1.79,3.89,4.4,1.95,2.6,3.22,4.91,3.11,4.99Z" fill="#eb996e"/><path d="m141.17,325.2l23.04-21.46c1-.93.92-2.53-.16-3.36h0c-.84-.64-2.02-.6-2.81.11l-27.01,24.23" fill="#6673f0"/><g opacity=".3"><path d="m141.17,325.2l23.04-21.46c1-.93.92-2.53-.16-3.36h0c-.84-.64-2.02-.6-2.81.11l-27.01,24.23"/></g></g><g id="Character_2"><path d="m329.4,118.46c-.36-.14-14.31-3.8-13.46,10.3.84,14.11,14.83,10.35,14.83,9.94,0-.41-1.37-20.25-1.37-20.25Z" fill="#b78876"/><path d="m326.14,133.62c-.06-.04-.24.19-.64.4-.39.21-1.08.38-1.83.15-1.52-.46-2.92-2.75-3.14-5.29-.11-1.28.08-2.52.48-3.56.37-1.06.99-1.82,1.74-2,.74-.22,1.29.2,1.49.59.21.38.14.67.22.69.04.03.29-.25.14-.83-.08-.28-.26-.6-.61-.85-.35-.25-.86-.37-1.38-.28-1.08.14-2,1.2-2.44,2.34-.49,1.15-.74,2.54-.62,3.98.26,2.84,1.87,5.41,3.95,5.88,1.01.2,1.82-.15,2.23-.51.42-.37.47-.69.42-.72Z" fill="#aa6550"/><path d="m364.62,68.07c7.17,0,14.46,0,23.44,4.69,5.66,2.95,9.19,7.64,12.14,13.3,2.26,4.33,3.59,10.01,3.33,14.89-.26,4.88-.28,8.29-2.23,12.77" fill="#263238"/><path d="m361.75,69.17c21.21-1.48,39.53,14.7,40.64,35.94.92,17.67,1.74,36.79,1.54,46.41-.42,20.66-21.11,23.7-21.11,23.7,0,0,.46,6.13.97,13.72,1.03,15.3-10.79,28.44-26.12,29.02h0c-15.03.57-27.67-11.16-28.22-26.19l-3.07-83.26c-.76-20.51,14.89-37.93,35.37-39.36h0Z" fill="#b78876"/><path d="m382.83,175.22s-12.7.66-26.5-8.17c0,0,6.25,15.03,26.88,13.33l-.37-5.17Z" fill="#aa6550"/><path d="m394.48,116.6c.04,1.56-1.24,2.88-2.87,2.95-1.62.07-2.98-1.13-3.02-2.68-.04-1.56,1.24-2.88,2.86-2.96,1.63-.07,2.98,1.13,3.02,2.69Z" fill="#263238"/><path d="m397.35,112.43c-.37.38-2.59-1.29-5.77-1.31-3.17-.06-5.51,1.55-5.85,1.16-.17-.17.21-.86,1.23-1.6,1.01-.73,2.71-1.43,4.69-1.4,1.98.03,3.64.77,4.58,1.52.97.76,1.3,1.45,1.11,1.63Z" fill="#263238"/><path d="m363.35,116.6c.04,1.56-1.24,2.88-2.87,2.95-1.62.07-2.98-1.13-3.02-2.68-.04-1.56,1.24-2.88,2.87-2.96,1.63-.07,2.98,1.13,3.02,2.69Z" fill="#263238"/><path d="m366.14,112.77c-.37.38-2.59-1.29-5.77-1.31-3.17-.06-5.51,1.55-5.86,1.16-.17-.17.21-.86,1.23-1.59,1-.73,2.71-1.43,4.69-1.41,1.98.03,3.63.77,4.59,1.52.97.76,1.29,1.46,1.11,1.63Z" fill="#263238"/><path d="m377.47,136.41c-.01-.18,1.96-.51,5.16-.89.81-.08,1.58-.23,1.72-.78.2-.58-.14-1.46-.52-2.41-.75-1.97-1.53-4.03-2.35-6.19-3.26-8.82-5.61-16.06-5.26-16.19.36-.13,3.29,6.91,6.55,15.73.78,2.17,1.53,4.25,2.25,6.23.3.92.82,1.97.4,3.18-.22.6-.82,1.04-1.34,1.17-.52.15-.98.16-1.38.18-3.22.15-5.22.15-5.23-.03Z" fill="#263238"/><path d="m368.11,138.53c.52-.03.5,3.42,3.43,5.89,2.92,2.48,6.6,2.12,6.62,2.6.05.22-.82.66-2.37.69-1.52.04-3.74-.47-5.53-1.98-1.79-1.51-2.55-3.52-2.65-4.94-.12-1.44.27-2.29.51-2.27Z" fill="#263238"/><path d="m367.06,100.34c-.32.86-3.49.43-7.21.85-3.74.34-6.75,1.41-7.24.63-.22-.37.31-1.18,1.53-2.01,1.21-.82,3.14-1.6,5.38-1.83,2.24-.23,4.28.14,5.63.71,1.36.56,2.05,1.25,1.91,1.65Z" fill="#263238"/><path d="m396.9,101.13c-.56.72-2.74-.05-5.37-.11-2.63-.15-4.86.45-5.37-.31-.22-.37.13-1.09,1.11-1.76.96-.67,2.57-1.22,4.38-1.15,1.81.07,3.37.74,4.28,1.48.92.75,1.22,1.49.97,1.84Z" fill="#263238"/><path d="m326.63,114.97s.9,4.78,1.14,6.93c.09.79-.01,9.54,2.11,9.98,1.83.38,5.46-1.29,7.08-4.91,1.62-3.62,4.7-12.31,4.36-16.26-.45-5.39-.71-10.86.37-16.16,1.08-5.3,3.61-10.47,7.87-13.8,4.26-3.33,10.4-4.5,15.23-2.07,2.98,1.5,5.21,4.15,7.99,5.99,2.5,1.66,5.55,2.66,8.52,2.22,2.97-.44,5.77-2.51,6.59-5.4.88-3.15-.74-6.61-3.26-8.69-2.52-2.09-5.78-3.05-9-3.68-8.91-1.77-18.35-1.42-26.82,1.87-8.47,3.29-15.98,9.61-19.6,17.94-4.18,9.63-3.7,15.54-2.59,26.04" fill="#263238"/><path d="m373.85,116.74c-.08,0,0-1.25-.54-3.4-.54-2.11-1.95-5.21-5.12-7.61-1.57-1.17-3.55-2.17-5.83-2.56-2.27-.38-4.82-.31-7.25.62-1.22.43-2.4,1.07-3.49,1.88-1.1.8-2.09,1.78-2.91,2.93-1.7,2.26-2.65,5.16-2.68,8.14.03,2.99.98,5.89,2.68,8.15.82,1.15,1.82,2.13,2.91,2.93,1.08.81,2.26,1.46,3.49,1.88,2.43.93,4.99,1,7.25.62,2.28-.4,4.26-1.39,5.83-2.57,3.17-2.4,4.58-5.5,5.12-7.61.55-2.15.46-3.41.54-3.4,0,0,.01.08.02.23,0,.18,0,.4,0,.67,0,.3-.01.66-.09,1.09-.06.43-.11.93-.26,1.47-.49,2.15-1.87,5.35-5.09,7.85-1.6,1.22-3.63,2.27-5.97,2.7-2.33.42-4.97.36-7.5-.59-1.27-.44-2.49-1.1-3.62-1.93-1.14-.82-2.17-1.84-3.03-3.03-1.76-2.34-2.76-5.35-2.79-8.45.03-3.1,1.02-6.11,2.79-8.45.85-1.19,1.89-2.21,3.03-3.03,1.13-.84,2.35-1.5,3.62-1.93,2.52-.95,5.16-1.01,7.49-.59,2.35.43,4.38,1.47,5.97,2.7,3.23,2.5,4.6,5.7,5.09,7.85.15.54.21,1.04.26,1.47.07.43.09.79.09,1.09,0,.27,0,.49,0,.67,0,.15,0,.23-.02.23Z" fill="#263238"/><path d="m410.22,116.74c-.08,0,0-1.25-.54-3.4-.54-2.11-1.95-5.21-5.12-7.61-1.57-1.17-3.55-2.17-5.83-2.56-2.27-.38-4.82-.31-7.25.62-1.22.43-2.4,1.07-3.49,1.88-1.1.8-2.09,1.78-2.91,2.93-1.7,2.26-2.65,5.16-2.68,8.14.03,2.99.98,5.89,2.68,8.15.82,1.15,1.82,2.13,2.91,2.93,1.08.81,2.26,1.46,3.49,1.88,2.43.93,4.99,1,7.25.62,2.28-.4,4.26-1.39,5.83-2.57,3.17-2.4,4.58-5.5,5.12-7.61.55-2.15.46-3.41.54-3.4,0,0,.01.08.02.23,0,.18,0,.4,0,.67,0,.3-.01.66-.09,1.09-.06.43-.11.93-.26,1.47-.49,2.15-1.87,5.35-5.09,7.85-1.6,1.22-3.63,2.27-5.97,2.7-2.33.42-4.97.36-7.49-.59-1.27-.44-2.49-1.1-3.62-1.93-1.14-.82-2.17-1.84-3.03-3.03-1.76-2.34-2.76-5.35-2.79-8.45.03-3.1,1.02-6.11,2.79-8.45.85-1.19,1.89-2.21,3.03-3.03,1.13-.84,2.35-1.5,3.62-1.93,2.52-.95,5.16-1.01,7.49-.59,2.35.43,4.38,1.47,5.97,2.7,3.23,2.5,4.6,5.7,5.09,7.85.15.54.21,1.04.26,1.47.07.43.09.79.09,1.09,0,.27,0,.49,0,.67,0,.15,0,.23-.02.23Z" fill="#263238"/><path d="m382.47,115.24c-.05.07-.51-.19-1.3-.45-.79-.26-1.92-.49-3.18-.41-1.26.09-2.36.46-3.1.82-.75.36-1.17.68-1.23.62-.04-.04.31-.47,1.05-.94.74-.47,1.9-.93,3.24-1.02,1.35-.09,2.56.21,3.35.58.8.37,1.2.74,1.16.79Z" fill="#263238"/><path d="m388.1,80.39c.2-1.07-.15-1.67.45-2.11.69-.5,1.99.81,2.47,1.34.15.17.64-.49.83-.61.15-.1.38-1.19.36-1.37-.09-.75-1.26-.95-1.81-1.46-.55-.51-1.24-.86-1.95-1.1-.62-.22-1.38-.34-1.87.11-.37.34-.43.9-.42,1.4.01.5.08,1,.28,1.46.2.46.54.86.99,1.07" fill="#263238"/><path d="m325.86,104s10.13,3.71,15.4,5.95l-.3-5.18-14.74-5.83s-.38,3.85-.37,5.06Z" fill="#ebebeb"/><path d="m326.81,95.95c.06-.13,3.27,1.1,7.17,2.75,3.9,1.65,7.02,3.1,6.97,3.23-.06.13-3.27-1.1-7.17-2.75-3.9-1.65-7.02-3.1-6.97-3.23Z" fill="#ebebeb"/><path d="m329.86,205.07l-.78-24.52s4.87,22.44,30.38,22.14c24.38-.28,23.93-19.77,23.93-19.77l.87,9.88v39.91l-15.9,65.11-20.31,2.58-22.44-89.01,4.25-6.34Z" fill="#6673f0"/><path d="m381.12,197.22s-.09.19-.29.52c-.22.32-.49.85-.97,1.42-.88,1.21-2.37,2.81-4.54,4.39-2.16,1.59-5.06,3.04-8.48,3.98-3.42.93-7.37,1.3-11.44.79-4.06-.55-7.8-1.79-10.99-3.31-3.2-1.51-5.89-3.25-8.03-4.84-2.14-1.59-3.78-3.01-4.86-4.03-.55-.5-.95-.92-1.23-1.19-.28-.28-.41-.43-.4-.44s.18.11.47.37c.34.29.77.66,1.3,1.12,1.13.97,2.79,2.34,4.94,3.88,2.16,1.54,4.84,3.23,8.02,4.7,3.17,1.48,6.86,2.69,10.86,3.23,4,.5,7.88.15,11.25-.74,3.37-.9,6.24-2.29,8.39-3.82,2.16-1.52,3.68-3.06,4.59-4.22.93-1.15,1.37-1.85,1.42-1.82Z" fill="#263238"/><path d="m363.42,406.49l-.37-115.71-32.86-84.45-1.1-25.41-20.02,15.14s-29.15,100.33-29.6,96.85c-.45-3.48-.01,113.58-.01,113.58h83.96Z" fill="#ebebeb"/><path d="m362.63,406.17c-.14,0-.26-26.07-.26-58.23s.12-58.23.26-58.23.26,26.07.26,58.23-.12,58.23-.26,58.23Z" fill="#263238"/><polygon points="309.36 212.59 313.42 215.67 310.57 234.39 358.53 284.62 314.97 227.42 318.68 212.59 309.36 212.59" fill="#e0e0e0"/><path d="m365.22,347.21l-73.61-21.58-2.44-55.91,20.19-73.66s-48.12,24.01-51.4,39.29c-3.27,15.28-11.17,52.42-12.01,79.26-.75,24-.86,40.05,4.62,47.71,15.7,21.94,119.14,25.86,160.46-.03" fill="#ebebeb"/><path d="m359.46,285.84s-.09-.09-.24-.27c-.17-.21-.38-.48-.66-.82-.59-.76-1.43-1.83-2.5-3.2-2.17-2.82-5.28-6.86-9.12-11.84-7.68-10.05-18.25-23.88-29.93-39.17-.76-.99-1.51-1.98-2.25-2.96l-.08-.1.03-.12c1.29-5.12,2.53-10.09,3.72-14.83l.24.31c-3.22,0-6.33,0-9.32-.01h-.24s0-.24,0-.24c.01-6.05.03-11.61.04-16.53v-.1s.08-.06.08-.06c6.07-4.61,11.01-8.37,14.47-10.99,1.7-1.28,3.04-2.28,3.97-2.98.44-.32.79-.58,1.04-.77.24-.17.36-.25.37-.25,0,0-.11.11-.33.29-.25.2-.58.47-1.01.81-.92.72-2.23,1.75-3.91,3.06-3.43,2.66-8.33,6.46-14.36,11.13l.08-.16c.01,4.92.02,10.47.04,16.53l-.24-.24c2.99,0,6.1,0,9.32-.01h.32s-.08.31-.08.31c-1.18,4.74-2.42,9.71-3.7,14.83l-.05-.22c.74.98,1.5,1.96,2.25,2.96,11.63,15.32,22.16,29.19,29.8,39.26,3.78,5.02,6.85,9.09,8.99,11.94,1.04,1.4,1.85,2.49,2.42,3.26.26.36.46.64.62.86.14.19.2.3.2.3Z" fill="#263238"/><path d="m392.27,191.71c-5.87-10.27-8.92-9.2-8.92-9.2l.31,3.66v7.69s-2.78,32.99-2.78,32.99l-17.83,71.69.37,107.94h67.41l8.39-131.77-.76-56.76-46.19-26.25Z" fill="#ebebeb"/><path d="m438.46,217.96s17.45,12.88,18.96,33.6c1.23,16.83,4.04,62.92,4.55,72.95.79,15.63-11.37,52.21-43.05,41.85-19-6.22-89.18-30.07-89.18-30.07l4.67-29.81,83.31,4.96,1.65-69.48,19.09-24.01Z" fill="#ebebeb"/><path d="m333.46,309.92s-23.58-2.55-29.04-1.23c-5.25,1.27-12.72,7.69-12.72,7.69l.11,9.32,37.93,10.6,3.72-26.37Z" fill="#b78876"/><path d="m363.05,287.77s.03-.11.1-.32c.09-.23.21-.54.35-.92.33-.84.81-2.02,1.41-3.52,1.26-3.08,3.06-7.49,5.28-12.92,2.25-5.46,4.92-11.94,7.89-19.14.75-1.79,1.49-3.66,2.41-5.49.89-1.85,1.94-3.65,3.02-5.48,2.22-3.63,4.73-7.24,7.49-10.8,1.36-1.75,2.73-3.46,4.15-5.1l-.05.27c-1-2.54-1.98-5.04-2.94-7.47l-.1-.25.25-.09c4.3-1.46,8.42-2.86,12.29-4.18l-.13.34c-5.7-9.52-10.52-17.56-13.93-23.26-1.69-2.82-3.13-5.08-4.65-6-.75-.46-1.42-.65-1.86-.75-.45-.11-.68-.15-.68-.17,0,0,.24,0,.7.09.45.09,1.14.24,1.93.7.79.45,1.59,1.26,2.36,2.29.78,1.04,1.61,2.27,2.45,3.69,3.45,5.68,8.33,13.69,14.1,23.17l.15.25-.28.1c-3.87,1.33-7.98,2.74-12.28,4.21l.15-.33c.96,2.43,1.94,4.92,2.95,7.47l.06.15-.1.12c-1.4,1.62-2.77,3.33-4.13,5.08-2.74,3.55-5.25,7.15-7.46,10.75-1.08,1.82-2.12,3.61-3.01,5.44-.92,1.81-1.66,3.65-2.42,5.45-3,7.18-5.71,13.65-7.99,19.1-2.28,5.41-4.13,9.79-5.43,12.86-.64,1.49-1.14,2.66-1.5,3.49-.17.38-.3.67-.4.9-.09.2-.15.3-.15.3Z" fill="#263238"/><path d="m448.03,360.57s-.09.11-.29.31c-.22.21-.52.5-.9.87-.8.75-2.06,1.78-3.83,2.9-1.79,1.08-4.12,2.2-7.01,2.94-2.88.75-6.31,1.03-10.04.64-1.86-.21-3.79-.62-5.75-1.22-1.96-.62-3.91-1.39-5.98-2.12-4.12-1.49-8.53-3.05-13.18-4.68-9.3-3.26-19.55-6.74-30.35-10.28-21.6-7.1-41.3-13.08-55.58-17.34-7.12-2.11-12.9-3.82-16.92-5.01-1.98-.59-3.52-1.05-4.6-1.37-.51-.16-.9-.28-1.19-.37-.27-.09-.4-.13-.4-.14,0,0,.14.02.42.09.3.08.69.18,1.21.32,1.08.3,2.64.73,4.63,1.27,4.01,1.12,9.81,2.77,16.97,4.85,14.3,4.17,34.03,10.1,55.64,17.2,10.8,3.54,21.05,7.04,30.34,10.33,4.64,1.64,9.05,3.21,13.17,4.73,2.06.73,4.04,1.52,5.96,2.14,1.93.6,3.83,1.02,5.67,1.23,3.68.41,7.07.16,9.93-.55,2.86-.71,5.19-1.78,6.98-2.83,1.77-1.09,3.04-2.09,3.86-2.81.39-.35.7-.63.93-.83.21-.19.32-.28.33-.27Z" fill="#263238"/><path d="m291.81,325.86c-.02.11-1.32-.18-3.44-.09-1.05.05-2.3.22-3.64.6-1.33.4-2.74,1.01-4.1,1.87-2.72,1.74-4.58,4.08-5.7,5.86-1.12,1.8-1.6,3.04-1.69,3-.03-.01.07-.33.28-.89.2-.57.57-1.36,1.1-2.3,1.06-1.86,2.93-4.31,5.74-6.11,1.4-.89,2.87-1.5,4.25-1.89,1.39-.37,2.68-.51,3.76-.51,1.08,0,1.95.09,2.54.23.59.12.91.2.9.23Z" fill="#263238"/><path d="m268.62,318.55s.02-.1.09-.26c.08-.16.22-.4.46-.65.46-.53,1.39-1.07,2.62-1.3,1.22-.26,2.72-.2,4.32,0,1.61.21,3.36.61,5.13,1.25,3.55,1.25,6.39,3.25,8.13,4.98.87.87,1.49,1.65,1.89,2.21.38.57.58.89.55.91-.08.06-.91-1.22-2.69-2.85-1.77-1.63-4.58-3.53-8.06-4.75-1.73-.62-3.44-1.03-5.02-1.26-1.58-.23-3.01-.33-4.19-.12-1.18.18-2.06.63-2.54,1.08-.49.45-.65.8-.7.77Z" fill="#263238"/><path d="m296.1,254.34s-.16-.54-.34-1.52c-.15-.47-.37-1.05-.59-1.71-.32-.63-.63-1.37-1.09-2.14-.9-1.54-2.17-3.25-3.75-4.99-1.63-1.7-3.53-3.48-5.75-5.06-4.42-3.18-9.08-5.05-12.57-5.77-1.75-.31-3.18-.54-4.19-.53-1-.05-1.55-.09-1.56-.13,0-.04.55-.06,1.56-.08,1.01-.07,2.47.1,4.25.37,3.55.64,8.32,2.48,12.8,5.71,2.25,1.6,4.17,3.41,5.8,5.16,1.59,1.79,2.85,3.55,3.72,5.13.44.79.74,1.56,1.04,2.21.21.69.4,1.28.52,1.77.13,1.01.17,1.56.14,1.56Z" fill="#263238"/><path d="m435.85,339.83s-.02-.12-.02-.36c0-.26-.01-.61-.02-1.05-.03-.92-.06-2.27-.2-4.01-.29-3.46-.88-8.53-2.96-14.41-.52-1.46-1.1-3-2.02-4.4-.9-1.42-2.24-2.6-3.9-3.31-3.35-1.44-7.38-1.25-11.48-1.48-8.25-.35-17.32-.73-26.84-1.13-22.18-.96-41.91-1.8-54.31-2.46l.17-.13c-.75,4.55-1.34,8.17-1.75,10.67-.21,1.21-.37,2.16-.49,2.83-.06.3-.1.54-.14.73-.03.16-.05.25-.06.24,0,0,0-.09.02-.25.02-.19.05-.43.09-.73.1-.67.23-1.62.4-2.84.38-2.51.92-6.13,1.61-10.7l.02-.14h.15c12.45.52,32.15,1.34,54.31,2.26,9.52.41,18.59.81,26.84,1.17,2.06.1,4.07.15,6.04.31,1.96.17,3.88.49,5.6,1.26,1.72.74,3.15,2.01,4.06,3.48.94,1.46,1.52,3.02,2.03,4.5,2.05,5.94,2.59,11.04,2.81,14.52.1,1.75.11,3.11.1,4.03-.01.44-.02.78-.03,1.05,0,.24-.02.36-.03.36Z" fill="#263238"/><path d="m419.96,274.61c.14,0,.26,8.07.26,18.02s-.12,18.02-.26,18.02-.26-8.07-.26-18.02.12-18.02.26-18.02Z" fill="#263238"/><path d="m258.54,233.55s-.06.23-.21.66c-.13.44-.39,1.07-.6,1.95-.49,1.73-1.1,4.32-1.79,7.69-1.39,6.74-3.11,16.6-5.03,28.94-.95,6.17-1.97,12.97-2.97,20.31-.51,3.67-.82,7.49-1.09,11.45-.26,3.96-.47,8.04-.62,12.25-.3,8.41-.48,17.29-.24,26.54.07,2.31.16,4.65.35,7,.06,1.18.25,2.34.4,3.51.25,1.15.46,2.33.85,3.45.72,2.27,1.81,4.45,3.31,6.33,1.5,1.87,3.46,3.49,5.69,4.38h.03s0,.02,0,.02c4.61,2.38,9.67,4.11,14.83,5.66,5.17,1.55,10.51,2.8,15.93,3.91,12.14,2.48,24.17,3.94,35.8,4.36,5.82.18,11.52-.04,17.09-.45,5.57-.39,11-.97,16.25-1.75,10.51-1.52,20.31-3.85,29.16-6.78,8.86-2.92,16.74-6.46,23.58-10.12l.03.32c-13.73-4.86-24.75-8.76-32.35-11.45-3.78-1.35-6.71-2.4-8.71-3.11-.98-.36-1.73-.63-2.25-.82-.51-.19-.76-.29-.76-.29,0,0,.27.08.78.25.52.18,1.28.43,2.27.77,2.01.69,4.95,1.71,8.74,3.02,7.61,2.66,18.65,6.5,32.4,11.3l.38.13-.36.19c-6.85,3.68-14.74,7.26-23.61,10.21-8.87,2.95-18.69,5.31-29.23,6.85-5.26.79-10.7,1.38-16.28,1.77-5.57.41-11.31.63-17.14.46-11.66-.42-23.72-1.87-35.89-4.36-5.44-1.12-10.79-2.37-15.98-3.93-5.18-1.56-10.25-3.29-14.92-5.71l.04.02c-2.4-.96-4.36-2.62-5.92-4.55-1.55-1.94-2.66-4.18-3.4-6.5-.4-1.15-.62-2.34-.87-3.52-.15-1.19-.34-2.38-.4-3.56-.19-2.36-.27-4.7-.34-7.02-.23-9.27-.04-18.16.28-26.57.16-4.21.38-8.3.65-12.26.27-3.96.6-7.8,1.12-11.47,1.02-7.34,2.06-14.13,3.04-20.3,1.97-12.34,3.74-22.19,5.18-28.92.72-3.37,1.36-5.95,1.88-7.68.23-.87.5-1.51.65-1.94.16-.43.25-.65.25-.65Z" fill="#263238"/><path d="m291.7,318.95c12.31-13.63,11.77-37.86,4.7-55.06-.65,18.63-2.85,35.15-4.53,53.25" fill="#e0e0e0"/><path d="m296.43,267.38s.02.21,0,.6c-.03.45-.07,1.01-.11,1.7-.12,1.55-.29,3.66-.49,6.25-.44,5.34-1.04,12.59-1.7,20.61-.63,8.02-1.2,15.28-1.62,20.62-.19,2.59-.35,4.7-.47,6.25-.06.69-.11,1.25-.15,1.7-.04.39-.07.59-.09.59-.02,0-.02-.21-.02-.6.01-.45.03-1.01.05-1.7.05-1.48.16-3.62.31-6.26.3-5.29.81-12.58,1.46-20.63.66-8.05,1.33-15.33,1.85-20.6.27-2.58.49-4.69.66-6.23.08-.69.15-1.25.21-1.69.05-.39.09-.59.11-.59Z" fill="#263238"/><path d="m326.77,242.76c.14,0,.26,4.73.26,10.57s-.12,10.57-.26,10.57-.26-4.73-.26-10.57.12-10.57.26-10.57Z" fill="#263238"/><path d="m318.75,277.87c.18,2.16,1.11,4.1,2.27,5.6s3.51,2.97,5.4,2.87c0,0,4.72.4,7.27-3.65,2.3-3.67,2.87-11.3,1.02-15.81-1.27-3.1-4.12-5.99-7.48-6.06-4.4-.1-7.16,3.08-8.1,6.29" fill="#e0e0e0"/><path d="m319.14,267.11s.1-.84.81-2.16c.36-.65.88-1.42,1.65-2.16.76-.74,1.81-1.43,3.11-1.83.65-.19,1.35-.32,2.09-.33.73-.04,1.53.05,2.29.3,1.53.49,2.95,1.55,4.08,2.93,1.14,1.37,1.99,3.11,2.4,5,.43,1.89.56,3.89.45,5.93-.2,3.13-.82,6.25-2.55,8.63-.88,1.17-2.08,2.01-3.32,2.5-1.25.5-2.53.69-3.76.63h.03c-1.01.04-1.91-.29-2.69-.67-.78-.4-1.46-.88-2.03-1.41-1.13-1.08-1.76-2.29-2.21-3.29-.43-1.01-.61-1.85-.7-2.43-.04-.29-.06-.51-.06-.66,0-.15,0-.23,0-.23.08-.02.07,1.26.98,3.22.47.95,1.12,2.13,2.22,3.13.55.5,1.21.95,1.96,1.32.75.35,1.61.64,2.5.59h0s.02,0,.02,0c2.25.08,4.99-.79,6.65-3.01,1.61-2.23,2.23-5.29,2.43-8.36.21-3.96-.45-7.94-2.7-10.59-1.07-1.33-2.42-2.34-3.85-2.82-.71-.24-1.44-.33-2.14-.31-.71,0-1.38.12-2,.29-1.24.35-2.26.99-3.02,1.69-.77.69-1.3,1.43-1.67,2.05-.75,1.26-.93,2.08-.99,2.06Z" fill="#263238"/><path d="m316.41,278.06c.18,2.16,1.11,4.1,2.27,5.6,1.16,1.5,3.51,2.97,5.4,2.87,0,0,4.72.4,7.27-3.65,2.3-3.67,2.87-11.3,1.02-15.81-1.27-3.1-4.12-5.99-7.48-6.06-4.4-.1-7.16,3.08-8.1,6.29" fill="#e0e0e0"/><path d="m316.8,267.31s.1-.84.81-2.16c.36-.65.88-1.42,1.65-2.16.76-.74,1.81-1.43,3.11-1.83.65-.19,1.35-.32,2.09-.33.73-.04,1.53.05,2.29.3,1.53.49,2.95,1.55,4.08,2.93,1.14,1.37,1.99,3.11,2.4,5,.43,1.89.56,3.89.45,5.93-.2,3.13-.82,6.25-2.55,8.63-.88,1.17-2.08,2.01-3.32,2.5-1.25.5-2.53.69-3.76.63h.03c-1.01.04-1.91-.29-2.69-.67-.78-.4-1.46-.88-2.03-1.41-1.13-1.08-1.76-2.29-2.21-3.29-.43-1.01-.61-1.85-.7-2.43-.04-.29-.06-.51-.06-.66,0-.15,0-.23,0-.23.08-.02.07,1.26.98,3.22.47.95,1.12,2.13,2.22,3.13.55.5,1.21.95,1.96,1.32.75.35,1.61.64,2.5.59h0s.02,0,.02,0c2.25.08,4.99-.79,6.65-3.01,1.61-2.23,2.23-5.29,2.43-8.36.21-3.96-.45-7.94-2.7-10.59-1.07-1.33-2.42-2.34-3.85-2.82-.71-.24-1.44-.33-2.14-.31-.71,0-1.38.12-2,.29-1.24.35-2.26.99-3.02,1.69-.77.69-1.3,1.43-1.67,2.05-.75,1.26-.93,2.08-.99,2.06Z" fill="#263238"/><path d="m320.66,266.18c-2.19-.44-4.44,1.07-5.37,3.09-.93,2.03-.72,4.42.01,6.53.37,1.07.89,2.11,1.67,2.94s1.85,1.42,2.98,1.45c1.66.05,3.16-1.09,4.13-2.44,1.56-2.18,2.09-5.07,1.41-7.67-.46-1.73-1.73-3.51-3.52-3.56" fill="#e0e0e0"/><path d="m321.96,266.53s.14-.03.4-.01c.26.03.65.12,1.08.37.88.49,1.88,1.69,2.29,3.44.42,1.72.38,3.96-.62,6.12-.5,1.07-1.21,2.13-2.24,2.94-1,.81-2.46,1.33-3.86.92-1.38-.39-2.43-1.41-3.08-2.52-.66-1.12-1.04-2.3-1.28-3.45-.48-2.3-.09-4.58,1-6.04,1.07-1.47,2.51-2.09,3.49-2.22.49-.08.88-.04,1.14,0,.26.05.39.09.38.11,0,.06-.55-.1-1.49.09-.92.18-2.26.82-3.22,2.23-.98,1.38-1.31,3.53-.83,5.73.24,1.1.63,2.25,1.25,3.29.62,1.03,1.57,1.94,2.79,2.28,1.21.35,2.47-.08,3.41-.82.95-.74,1.64-1.74,2.12-2.74.97-2.04,1.06-4.18.69-5.84-.34-1.67-1.24-2.85-2.03-3.35-.8-.52-1.39-.47-1.38-.53Z" fill="#263238"/><path d="m325.7,282.62c-.08.02-.19-.31-.53-.72-.33-.4-.94-.85-1.71-1.09-.78-.24-1.54-.28-2.1-.33-.56-.04-.91-.09-.91-.16,0-.07.34-.15.91-.21.57-.05,1.38-.07,2.26.2.88.27,1.55.85,1.85,1.38.31.53.29.92.23.93Z" fill="#263238"/><path d="m326.49,264.82s-.15.36-.62.73c-.46.37-1.21.76-2.11.92-.9.16-1.74.06-2.3-.13-.57-.18-.86-.41-.83-.46.05-.15,1.38.39,3.04.08,1.66-.28,2.72-1.25,2.82-1.13Z" fill="#263238"/><path d="m395.2,193.19s.12.03.33.12c.21.1.51.24.89.46.76.43,1.82,1.11,3,2.14,2.36,2.01,5.12,5.57,6.44,10.18,1.38,4.53,2.13,8.78,2.45,11.86.17,1.54.27,2.79.32,3.65.05.86.06,1.34.03,1.35s-.11-.47-.23-1.33c-.13-.96-.29-2.17-.49-3.63-.42-3.06-1.21-7.25-2.59-11.76-1.29-4.51-3.92-8.01-6.18-10.06-2.26-2.08-4.03-2.9-3.97-3Z" fill="#263238"/><path d="m382.74,303.27c2.9-.11,5.21-3,8.11-2.85,2.15.11,3.98,2.22,3.8,4.36-.18,2.14-2.34,3.91-4.48,3.66-3.04-.35-4.82-3.92-7.81-4.6" fill="#263238"/><path d="m407.32,305.74c-.87,0-1.77-.08-2.71-.22l.16-.99c3.58.58,6.59-.01,8.94-1.75,2.96-2.17,4.87-6.07,5.67-11.57l.03-.21c.33-2.18.78-44.95.78-53.07,0-12.68-11.13-14.42-11.61-14.48-.45-.08-10.57-1.77-15.94,12.08-5.62,14.51-14.61,42.46-15.2,45.74-.07.4-.18.9-.31,1.47-.93,4.2-2.88,12.92,2.94,17.95,6.49,5.6,11.61,3.44,11.82,3.34l.41.91c-.24.11-5.89,2.55-12.89-3.5-6.27-5.42-4.24-14.54-3.27-18.93.12-.56.23-1.04.3-1.44.6-3.3,9.62-31.38,15.26-45.92,5.68-14.66,16.92-12.73,17.03-12.71.1.01,12.45,1.9,12.45,15.47,0,6.69-.44,50.91-.79,53.22l-.03.21c-.84,5.77-2.88,9.89-6.07,12.23-1.95,1.43-4.29,2.15-6.98,2.15Z" fill="#263238"/><path d="m420.69,246.11c-.13.05-.29-2.13-2.08-4.99-.89-1.41-2.21-2.94-3.95-4.28-1.75-1.33-3.95-2.46-6.42-3.03-5-1.15-9.74.1-12.66,1.65-2.98,1.55-4.32,3.25-4.4,3.15-.01-.01.07-.12.23-.31.17-.18.39-.48.75-.8.67-.67,1.76-1.54,3.25-2.37,1.49-.84,3.41-1.59,5.64-1.99,2.22-.41,4.76-.44,7.32.15,2.56.59,4.81,1.77,6.6,3.16,1.78,1.4,3.1,3,3.97,4.47.87,1.47,1.34,2.79,1.54,3.72.13.46.16.83.2,1.08.03.25.04.38.02.38Z" fill="#263238"/><path d="m446.16,326.06c-.11.02-.28-1.72-1.37-4.27-1.08-2.51-3.25-5.85-6.78-8.14-1.75-1.14-3.72-1.67-5.5-1.99-1.8-.3-3.46-.41-4.84-.5-1.31-.09-2.41-.17-3.29-.23-.78-.07-1.21-.13-1.2-.16,0-.04.43-.05,1.21-.04.89.02,1.99.04,3.3.06,1.39.05,3.06.12,4.9.4,1.83.3,3.87.83,5.71,2.02,3.66,2.37,5.83,5.84,6.84,8.44.51,1.31.79,2.42.91,3.2.13.77.15,1.21.12,1.21Z" fill="#263238"/><path d="m395.71,309.37s9.83-14.89,12.35-16.85c2.51-1.95,23.98-11.64,26.49-10.08s.97,4.94.97,4.94c0,0,9.09-3.18,10.05-1.93.97,1.25,1.16,3.38,0,5.12,0,0,5.03-.77,5.03.77s-.58,3.48-2.9,5.22c-2.32,1.74-17.41,11.78-18.62,14.56l-4.89-.3-28.48-1.46Z" fill="#b78876"/><path d="m424.01,305.11s.12-.36.45-.94c.33-.58.86-1.4,1.62-2.33,1.49-1.88,3.99-4.13,7.13-6,3.14-1.87,6.22-3.11,8.44-3.96,1.11-.42,2.02-.74,2.65-.96.63-.21.99-.31,1-.28.01.03-.32.2-.93.47-.72.31-1.58.68-2.59,1.11-2.18.94-5.21,2.22-8.31,4.07-3.1,1.85-5.58,4.01-7.12,5.8-1.56,1.78-2.26,3.08-2.35,3.03Z" fill="#aa6550"/><path d="m411.54,304.87s.14-.41.48-1.1c.34-.69.84-1.68,1.51-2.88.68-1.19,1.54-2.6,2.71-4.01.6-.7,1.21-1.42,2.06-2.04.83-.56,1.7-1.08,2.61-1.62,3.62-2.11,7.03-3.79,9.6-4.79,1.28-.51,2.35-.83,3.09-1.03.75-.17,1.17-.25,1.18-.21.02.09-1.63.47-4.13,1.58-2.51,1.07-5.88,2.79-9.48,4.9-.89.53-1.77,1.05-2.58,1.59-.74.54-1.4,1.27-1.98,1.93-1.17,1.36-2.04,2.73-2.76,3.89-.65,1.1-1.21,2.04-1.65,2.79-.39.66-.62,1.02-.65,1Z" fill="#aa6550"/></g><g id="Desk"><path d="m673.92,406.76c0,.14-150.87.26-336.94.26s-336.98-.12-336.98-.26,150.84-.26,336.98-.26,336.94.12,336.94.26Z" fill="#263238"/></g></svg>