<?xml version="1.0" encoding="UTF-8"?><svg id="Graphic_Element" xmlns="http://www.w3.org/2000/svg" viewBox="0 0 659.04 625.5"><path d="m584.42,0c-29.37,0-54.69,19.95-61.57,48.5l-17.18,71.34H63.36c-19.56,0-37.71,8.82-49.79,24.2C1.48,159.42-2.8,179.14,1.82,198.14l52.02,213.76c6.92,28.47,32.23,48.35,61.53,48.35h283.21c29.3,0,54.61-19.88,61.53-48.35l18.14-74.51h0s.33-1.35.33-1.35l52.62-216.2h-.54l15.81-65.65c4.24-17.6,19.84-29.89,37.94-29.89h74.63V0h-74.63Zm-147.91,406.15c-4.27,17.55-19.87,29.8-37.92,29.8H115.38c-18.06,0-33.65-12.25-37.92-29.8L25.43,192.4c-2.85-11.72-.21-23.87,7.24-33.35,7.45-9.48,18.64-14.91,30.69-14.91h436.45l-32.22,133.76H150.15v24.3h311.58l-7.11,29.5h0l-18.12,74.46Z" fill="#fff"/><path d="m418.81,491.89c-36.84,0-66.8,29.97-66.8,66.8s29.97,66.8,66.8,66.8,66.8-29.97,66.8-66.8-29.97-66.8-66.8-66.8Zm0,109.31c-23.44,0-42.5-19.07-42.5-42.5s19.07-42.5,42.5-42.5,42.5,19.07,42.5,42.5-19.07,42.5-42.5,42.5Z" fill="#fff"/><path d="m95.15,491.89c-36.84,0-66.8,29.97-66.8,66.8s29.97,66.8,66.8,66.8,66.8-29.97,66.8-66.8-29.97-66.8-66.8-66.8Zm0,109.31c-23.44,0-42.5-19.07-42.5-42.5s19.07-42.5,42.5-42.5,42.5,19.07,42.5,42.5-19.07,42.5-42.5,42.5Z" fill="#fff"/></svg>