<?xml version="1.0" encoding="UTF-8"?><svg id="OBJECTS" xmlns="http://www.w3.org/2000/svg" viewBox="0 0 380.23 285.72"><path d="m298.08,173.73h71.12c2.27,0,4.11,1.84,4.11,4.11v99.07c0,2.27-1.84,4.11-4.11,4.11h-71.12c-2.27,0-4.11-1.84-4.11-4.11v-99.07c0-2.27,1.84-4.11,4.11-4.11Z" transform="translate(37.23 -46.77) rotate(8.49)" fill="#2b468b"/><rect x="300.27" y="179.32" width="66.73" height="96.1" transform="translate(37.23 -46.77) rotate(8.49)" fill="#fff"/><path d="m359.61,279.31l-.08.5-65.99-9.85,14.19-95.05,25.42,3.8c-8.68,8.8-14.75,20.34-16.72,33.5-4.54,30.41,14.38,58.89,43.17,67.1Z" fill="#f0f5ff" opacity=".55"/><path d="m326.16,203.08l35.87,5.35c.56.08,1.09-.31,1.18-.87s-.31-1.09-.87-1.18l-35.87-5.35c-.56-.08-1.09.31-1.18.87-.08.56.31,1.09.87,1.18Z" fill="#6c7aff" opacity=".22"/><path d="m325.34,208.57l35.87,5.35c.56.08,1.09-.31,1.18-.87.08-.56-.31-1.09-.87-1.17l-35.87-5.35c-.56-.08-1.09.31-1.18.87-.08.56.31,1.09.87,1.18Z" fill="#6c7aff" opacity=".22"/><path d="m320.12,203.94c-.39,2.59-2.8,4.38-5.39,3.99s-4.38-2.8-3.99-5.39c.39-2.59,2.8-4.38,5.39-3.99s4.38,2.8,3.99,5.39Z" fill="#6c7aff"/><polyline points="313.12 202.89 314.43 204.66 317.96 202.04" fill="none" stroke="#fff" stroke-linecap="round" stroke-linejoin="round" stroke-width="1.25"/><path d="m323.56,220.51l35.87,5.35c.56.08,1.09-.31,1.18-.87s-.31-1.09-.87-1.18l-35.87-5.35c-.56-.08-1.09.31-1.18.87-.08.56.31,1.09.87,1.17Z" fill="#6c7aff" opacity=".22"/><path d="m322.74,226l35.87,5.35c.56.08,1.09-.31,1.18-.87.08-.56-.31-1.09-.87-1.17l-35.87-5.35c-.56-.08-1.09.31-1.17.87-.08.56.31,1.09.87,1.18Z" fill="#6c7aff" opacity=".22"/><path d="m317.51,221.37c-.39,2.59-2.8,4.38-5.39,3.99s-4.38-2.8-3.99-5.39c.39-2.59,2.8-4.38,5.39-3.99,2.59.39,4.38,2.8,3.99,5.39Z" fill="#6c7aff"/><polyline points="310.52 220.33 311.82 222.09 315.36 219.48" fill="none" stroke="#fff" stroke-linecap="round" stroke-linejoin="round" stroke-width="1.25"/><path d="m320.96,237.94l35.87,5.35c.56.08,1.09-.31,1.18-.87.08-.56-.31-1.09-.87-1.18l-35.87-5.35c-.56-.08-1.09.31-1.18.87-.08.56.31,1.09.87,1.17Z" fill="#6c7aff" opacity=".22"/><path d="m320.14,243.44l35.87,5.35c.56.08,1.09-.31,1.17-.87.08-.56-.31-1.09-.87-1.18l-35.87-5.35c-.56-.08-1.09.31-1.18.87-.08.56.31,1.09.87,1.18Z" fill="#6c7aff" opacity=".22"/><path d="m314.91,238.81c-.39,2.59-2.8,4.38-5.39,3.99s-4.38-2.8-3.99-5.39c.39-2.59,2.8-4.38,5.39-3.99,2.59.39,4.38,2.8,3.99,5.39Z" fill="#6c7aff"/><polyline points="307.92 237.76 309.22 239.53 312.75 236.91" fill="none" stroke="#fff" stroke-linecap="round" stroke-linejoin="round" stroke-width="1.25"/><path d="m318.36,255.38l35.87,5.35c.56.08,1.09-.31,1.18-.87.08-.56-.31-1.09-.87-1.18l-35.87-5.35c-.56-.08-1.09.31-1.18.87-.08.56.31,1.09.87,1.18Z" fill="#6c7aff" opacity=".22"/><path d="m317.54,260.87l35.87,5.35c.56.08,1.09-.31,1.18-.87.08-.56-.31-1.09-.87-1.18l-35.87-5.35c-.56-.08-1.09.31-1.18.87-.08.56.31,1.09.87,1.18Z" fill="#6c7aff" opacity=".22"/><path d="m312.31,256.24c-.39,2.59-2.8,4.38-5.39,3.99-2.59-.39-4.38-2.8-3.99-5.39.39-2.59,2.8-4.38,5.39-3.99,2.59.39,4.38,2.8,3.99,5.39Z" fill="#6c7aff"/><polyline points="305.31 255.2 306.62 256.96 310.15 254.35" fill="none" stroke="#fff" stroke-linecap="round" stroke-linejoin="round" stroke-width="1.25"/><path d="m318.45,191.31h40.67c.79,0,1.44.65,1.44,1.44v.21c0,.8-.65,1.44-1.44,1.44h-40.67c-.79,0-1.44-.65-1.44-1.44v-.21c0-.79.65-1.44,1.44-1.44Z" transform="translate(32.19 -47.91) rotate(8.49)" fill="#6c7aff" opacity=".22"/><path d="m330.95,169.54h21.01c3.37,0,6.1,2.73,6.1,6.1v4.26h-33.21v-4.26c0-3.37,2.73-6.1,6.1-6.1Z" transform="translate(29.54 -48.5) rotate(8.49)" fill="#ffb448"/><path d="m12.39,122.06h109.33v72.85c0,1.6-1.3,2.9-2.9,2.9H15.28c-1.6,0-2.9-1.3-2.9-2.9v-72.85h0Z" transform="translate(-42.88 25.81) rotate(-16.59)" fill="#fff"/><path d="m81.62,195.11l-53.37,15.9c-1.53.46-3.14-.42-3.6-1.95L3.85,139.25l29.27-8.72c-.46,7.13.31,14.46,2.47,21.71,6.66,22.34,24.78,38.14,46.03,42.87Z" fill="#f0f5ff" opacity=".31"/><path d="m6.59,103.83h93.52c4.37,0,7.91,3.54,7.91,7.91v12.31H-1.32v-12.31c0-4.37,3.54-7.91,7.91-7.91Z" transform="translate(-30.32 19.98) rotate(-16.59)" fill="#ffb448"/><path d="m15.38,120.51c-.87-.47-1.87-.57-2.82-.29-1.96.58-3.07,2.65-2.49,4.6.28.95.92,1.73,1.79,2.2.55.3,1.15.45,1.75.45.36,0,.71-.05,1.06-.16.95-.28,1.73-.92,2.2-1.79.47-.87.57-1.87.29-2.82-.28-.95-.92-1.73-1.79-2.2Z" fill="#f79c23"/><path d="m28.34,115.52c-.95.28-1.73.92-2.2,1.79-.47.87-.57,1.87-.29,2.82.28.95.92,1.73,1.79,2.2.55.3,1.15.45,1.76.45.35,0,.71-.05,1.06-.16.95-.28,1.73-.92,2.2-1.79.47-.87.57-1.87.29-2.82-.58-1.96-2.65-3.07-4.6-2.49Z" fill="#f79c23"/><path d="m62.71,106.41c-.87-.47-1.87-.57-2.82-.29-.95.28-1.73.92-2.2,1.79-.47.87-.57,1.87-.29,2.82.28.95.92,1.73,1.79,2.2.55.3,1.15.45,1.76.45.35,0,.71-.05,1.06-.16.95-.28,1.73-.92,2.2-1.79.47-.87.57-1.87.29-2.82-.28-.95-.92-1.73-1.79-2.2Z" fill="#f79c23"/><path d="m46.93,111.11c-.87-.47-1.87-.57-2.82-.29-.95.28-1.73.92-2.2,1.79-.47.87-.57,1.87-.29,2.82.28.95.92,1.73,1.79,2.2.55.3,1.15.45,1.75.45.36,0,.71-.05,1.06-.16,1.95-.58,3.07-2.65,2.49-4.6-.28-.95-.92-1.73-1.79-2.2Z" fill="#f79c23"/><path d="m78.48,101.71c-.87-.47-1.87-.57-2.82-.29-.95.28-1.73.92-2.2,1.79-.47.87-.57,1.87-.29,2.82.28.95.92,1.73,1.79,2.2.55.3,1.15.45,1.76.45.35,0,.71-.05,1.06-.16,1.95-.58,3.07-2.65,2.49-4.6-.28-.95-.92-1.73-1.79-2.2Z" fill="#f79c23"/><path d="m96.04,99.2c-.28-.95-.92-1.73-1.79-2.2-.87-.47-1.87-.57-2.82-.29-.95.28-1.73.92-2.2,1.79-.47.87-.57,1.87-.29,2.82.48,1.6,1.95,2.64,3.55,2.64.35,0,.7-.05,1.05-.15.95-.28,1.73-.92,2.2-1.79.47-.87.57-1.87.29-2.82Z" fill="#f79c23"/><path d="m13.45,125.35c-.92,0-1.77-.6-2.05-1.53l-2.84-9.55c-.34-1.13.31-2.32,1.44-2.66,1.13-.34,2.32.31,2.66,1.44l2.84,9.55c.34,1.13-.31,2.32-1.44,2.66-.2.06-.41.09-.61.09Z" fill="#2b468b"/><path d="m29.23,120.65c-.92,0-1.77-.6-2.05-1.53l-2.84-9.55c-.34-1.13.31-2.32,1.44-2.66,1.13-.34,2.32.31,2.66,1.44l2.84,9.55c.34,1.13-.31,2.32-1.44,2.66-.2.06-.41.09-.61.09Z" fill="#2b468b"/><path d="m45,115.95c-.92,0-1.77-.6-2.05-1.53l-2.84-9.55c-.34-1.13.31-2.32,1.44-2.66,1.13-.34,2.32.31,2.66,1.44l2.84,9.55c.34,1.13-.31,2.32-1.44,2.66-.2.06-.41.09-.61.09Z" fill="#2b468b"/><path d="m60.78,111.25c-.92,0-1.77-.6-2.05-1.53l-2.84-9.55c-.34-1.13.31-2.32,1.44-2.66,1.13-.34,2.32.31,2.66,1.44l2.84,9.55c.34,1.13-.31,2.32-1.44,2.66-.2.06-.41.09-.61.09Z" fill="#2b468b"/><path d="m76.56,106.54c-.92,0-1.77-.6-2.05-1.53l-2.84-9.55c-.34-1.13.31-2.32,1.44-2.66,1.13-.34,2.32.31,2.66,1.44l2.84,9.55c.34,1.13-.31,2.32-1.44,2.66-.2.06-.41.09-.61.09Z" fill="#2b468b"/><path d="m92.33,101.84c-.92,0-1.77-.6-2.05-1.53l-2.84-9.55c-.34-1.13.31-2.32,1.44-2.66,1.13-.34,2.32.31,2.66,1.44l2.84,9.55c.34,1.13-.31,2.32-1.44,2.66-.2.06-.41.09-.61.09Z" fill="#2b468b"/><rect x="20.98" y="143.96" width="15.58" height="13.78" transform="translate(-41.88 14.5) rotate(-16.59)" fill="#6c7aff" opacity=".22"/><rect x="42.77" y="137.47" width="15.58" height="13.78" transform="translate(-39.12 20.45) rotate(-16.59)" fill="#6c7aff" opacity=".22"/><rect x="64.55" y="130.98" width="15.58" height="13.78" transform="translate(-36.36 26.4) rotate(-16.59)" fill="#6c7aff" opacity=".22"/><path d="m67.06,136.75c-.32,0-.61-.21-.7-.52-.12-.39.11-.8.49-.91l8.68-2.59c.39-.11.8.11.91.49.12.39-.11.8-.49.91l-8.68,2.59c-.07.02-.14.03-.21.03Z" fill="#6c7aff"/><path d="m68,139.89c-.32,0-.61-.21-.7-.52-.12-.39.1-.8.49-.91l8.68-2.59c.39-.12.8.11.91.49.12.39-.1.8-.49.91l-8.68,2.59c-.07.02-.14.03-.21.03Z" fill="#6c7aff"/><path d="m68.93,143.03c-.32,0-.61-.21-.7-.52-.12-.39.11-.8.49-.91l8.68-2.59c.39-.12.8.11.91.49.12.39-.11.8-.49.91l-8.68,2.59c-.07.02-.14.03-.21.03Z" fill="#6c7aff"/><rect x="86.34" y="124.49" width="15.58" height="13.78" transform="translate(-33.6 32.35) rotate(-16.59)" fill="#6c7aff" opacity=".22"/><rect x="26.63" y="162.91" width="15.58" height="13.78" transform="translate(-47.06 16.9) rotate(-16.59)" fill="#6c7aff" opacity=".22"/><rect x="48.41" y="156.42" width="15.58" height="13.78" transform="translate(-44.3 22.85) rotate(-16.59)" fill="#6c7aff" opacity=".22"/><rect x="70.2" y="149.93" width="15.58" height="13.78" transform="translate(-41.54 28.8) rotate(-16.59)" fill="#6c7aff" opacity=".22"/><rect x="91.98" y="143.44" width="15.58" height="13.78" transform="translate(-38.78 34.75) rotate(-16.59)" fill="#6c7aff" opacity=".22"/><rect x="32.19" y="181.59" width="15.58" height="13.78" transform="translate(-52.16 19.27) rotate(-16.59)" fill="#6c7aff" opacity=".22"/><rect x="53.98" y="175.1" width="15.58" height="13.78" transform="translate(-49.4 25.22) rotate(-16.59)" fill="#6c7aff" opacity=".22"/><rect x="75.77" y="168.61" width="15.58" height="13.78" transform="translate(-46.64 31.17) rotate(-16.59)" fill="#6c7aff" opacity=".22"/><rect x="97.55" y="162.12" width="15.58" height="13.78" transform="translate(-43.88 37.12) rotate(-16.59)" fill="#6c7aff" opacity=".22"/><path d="m56.49,180.88c-.32,0-.61-.21-.7-.52-.12-.39.11-.8.49-.91l8.68-2.59c.39-.11.8.11.91.49.12.39-.11.8-.49.91l-8.68,2.59c-.07.02-.14.03-.21.03Z" fill="#6c7aff"/><path d="m57.43,184.02c-.32,0-.61-.21-.7-.52-.12-.39.11-.8.49-.91l8.68-2.59c.39-.11.8.11.91.49.12.39-.11.8-.49.91l-8.68,2.59c-.07.02-.14.03-.21.03Z" fill="#6c7aff"/><path d="m58.36,187.16c-.32,0-.61-.21-.7-.52-.12-.39.11-.8.49-.91l8.68-2.59c.39-.11.8.11.91.49.12.39-.11.8-.49.91l-8.68,2.59c-.07.02-.14.03-.21.03Z" fill="#6c7aff"/><path d="m77.79,160.52c-.25.07-.52.05-.76-.08l-3.1-1.67c-.49-.26-.67-.87-.41-1.36.26-.49.87-.67,1.36-.41l2.21,1.2,2.87-5.31c.26-.49.87-.67,1.36-.41.49.26.67.87.41,1.36l-3.35,6.19c-.13.24-.35.41-.6.48Z" fill="#6c7aff"/><path d="m28.51,154.35c-.25.07-.52.05-.76-.08l-3.1-1.67c-.49-.26-.67-.87-.41-1.36.26-.49.87-.67,1.36-.41l2.21,1.2,2.87-5.31c.26-.49.87-.67,1.36-.41.49.26.67.87.41,1.36l-3.35,6.19c-.13.24-.35.41-.6.48Z" fill="#6c7aff"/><path d="m99.58,154.03c-.25.07-.52.05-.76-.08l-3.1-1.67c-.49-.26-.67-.87-.41-1.36.26-.49.87-.67,1.36-.41l2.21,1.2,2.87-5.31c.26-.49.87-.67,1.36-.41.49.26.67.87.41,1.36l-3.35,6.19c-.13.24-.35.41-.6.48Z" fill="#6c7aff"/><rect x="343.07" y="31.22" width="6.64" height="3.97" transform="translate(567.85 301.62) rotate(-135)" fill="#769af0"/><rect x="343.66" y="25.15" width="13.34" height="8.23" rx="3.48" ry="3.48" transform="translate(577.37 297.68) rotate(-135)" fill="#6c7aff"/><rect x="297.36" y="13.43" width="12.63" height="4.33" transform="translate(607.35 31.19) rotate(180)" fill="#769af0"/><rect x="290.97" width="25.42" height="13.33" rx="2.81" ry="2.81" transform="translate(607.35 13.33) rotate(180)" fill="#6c7aff"/><circle cx="303.61" cy="75.99" r="59.13" transform="translate(-9.36 74.52) rotate(-13.78)" fill="#6c7aff"/><circle cx="303.61" cy="75.99" r="53.72" transform="translate(35.2 236.94) rotate(-45)" fill="#fff"/><path d="m315.54,23.59c-3.84-.87-7.82-1.33-11.92-1.33-29.67,0-53.72,24.05-53.72,53.72s24.05,53.72,53.72,53.72c4.1,0,8.08-.45,11.92-1.33-23.93-5.43-41.8-26.83-41.8-52.4s17.87-46.97,41.8-52.4Z" fill="#6c7aff" opacity=".09"/><path d="m303.61,77.74c.97,0,1.76-.79,1.76-1.76v-39.34c0-.97-.79-1.76-1.76-1.76s-1.76.79-1.76,1.76v39.34c0,.97.79,1.76,1.76,1.76Z" fill="#2b468b"/><path d="m318.73,103.7c.3,0,.6-.08.88-.24.84-.49,1.12-1.56.63-2.4l-15.12-25.96c-.49-.84-1.56-1.12-2.4-.63-.84.49-1.12,1.56-.63,2.4l15.12,25.96c.33.56.91.87,1.52.87Z" fill="#2b468b"/><path d="m298.79,75.99c0,2.67,2.16,4.83,4.83,4.83s4.83-2.16,4.83-4.83-2.16-4.83-4.83-4.83-4.83,2.16-4.83,4.83Z" fill="#769af0"/><path d="m303.61,31.83c.48,0,.88-.39.88-.88v-5.35c0-.48-.39-.88-.88-.88s-.88.39-.88.88v5.35c0,.48.39.88.88.88Z" fill="#2b468b"/><path d="m326.13,37.87c.3,0,.6-.16.76-.44l2.67-4.63c.24-.42.1-.96-.32-1.2-.42-.24-.96-.1-1.2.32l-2.67,4.63c-.24.42-.1.96.32,1.2.14.08.29.12.44.12Z" fill="#2b468b"/><path d="m342.61,54.35c.15,0,.3-.04.44-.12l4.63-2.67c.42-.24.56-.78.32-1.2-.24-.42-.78-.56-1.2-.32l-4.63,2.67c-.42.24-.56.78-.32,1.2.16.28.46.44.76.44Z" fill="#2b468b"/><path d="m348.64,76.86h5.35c.48,0,.88-.39.88-.88s-.39-.88-.88-.88h-5.35c-.48,0-.88.39-.88.88s.39.88.88.88Z" fill="#2b468b"/><path d="m347.24,102.05c.3,0,.6-.16.76-.44.24-.42.1-.96-.32-1.2l-4.63-2.67c-.42-.24-.96-.1-1.2.32-.24.42-.1.96.32,1.2l4.63,2.67c.14.08.29.12.44.12Z" fill="#2b468b"/><path d="m328.8,120.49c.15,0,.3-.04.44-.12.42-.24.56-.78.32-1.2l-2.67-4.63c-.24-.42-.78-.56-1.2-.32-.42.24-.56.78-.32,1.2l2.67,4.63c.16.28.46.44.76.44Z" fill="#2b468b"/><path d="m303.61,127.24c.48,0,.88-.39.88-.88v-5.35c0-.49-.39-.88-.88-.88s-.88.39-.88.88v5.35c0,.49.39.88.88.88Z" fill="#2b468b"/><path d="m278.43,120.49c.3,0,.6-.16.76-.44l2.67-4.63c.24-.42.1-.96-.32-1.2-.42-.24-.96-.1-1.2.32l-2.67,4.63c-.24.42-.1.96.32,1.2.14.08.29.12.44.12Z" fill="#2b468b"/><path d="m259.99,102.05c.15,0,.3-.04.44-.12l4.63-2.67c.42-.24.56-.78.32-1.2-.24-.42-.78-.56-1.2-.32l-4.63,2.67c-.42.24-.56.78-.32,1.2.16.28.46.44.76.44Z" fill="#2b468b"/><path d="m253.24,76.86h5.35c.49,0,.88-.39.88-.88s-.39-.88-.88-.88h-5.35c-.49,0-.88.39-.88.88s.39.88.88.88Z" fill="#2b468b"/><path d="m264.62,54.35c.3,0,.6-.16.76-.44.24-.42.1-.96-.32-1.2l-4.63-2.67c-.42-.24-.96-.1-1.2.32-.24.42-.1.96.32,1.2l4.63,2.67c.14.08.29.12.44.12Z" fill="#2b468b"/><path d="m281.1,37.87c.15,0,.3-.04.44-.12.42-.24.56-.78.32-1.2l-2.67-4.63c-.24-.42-.78-.56-1.2-.32-.42.24-.56.78-.32,1.2l2.67,4.63c.16.28.46.44.76.44Z" fill="#2b468b"/><path d="m211.39,151.88c17.92-13.19,50.95-42.02,50.95-75.5h-124.4c0,33.48,33.03,62.32,50.95,75.5-17.92,13.19-50.95,42.02-50.95,75.5h124.4c0-33.48-33.03-62.32-50.95-75.5Z" fill="#fff"/><path d="m255.94,214.22c-1.85-6.9-7.3-12.21-14.1-14.38-8.21-2.61-19.5-5.09-29.84-3.56-.12.02-.26.02-.41,0-1.76-.12-3.12-1.59-3.32-3.34l-4.31-38.12c-.21-1.81.57-3.6,2.04-4.69l2.67-1.97c9.77-7.17,23.06-18.26,33.33-31.75,1.09-1.43-.09-3.46-1.86-3.2-10.44,1.55-31.83,3.4-49.72-3.54-15.62-6.07-24.05-1.37-28.13,2.9-2.29,2.39-2.27,6.15-.13,8.68,9.6,11.32,20.89,20.63,29.46,26.93l2.59,1.92c1.51,1.12,2.28,2.97,2.02,4.83l-5.21,36.86c-.32,2.26-2.56,3.71-4.75,3.07l-1.83-.53c-5.95-1.73-12.13-2.48-18.32-2.23h0c-7.68.31-14.7,4.75-17.94,11.71-2.83,6.07-4.77,12.44-5.41,19.01h114.76c-.28-2.9-.82-5.76-1.57-8.57Z" fill="#c0ccff"/><path d="m257.03,65.49h-113.8c-6.02,0-10.9,4.88-10.9,10.9h135.6c0-6.02-4.88-10.9-10.9-10.9Z" fill="#2b468b"/><path d="m143.23,238.28h113.8c6.02,0,10.9-4.88,10.9-10.9h-135.6c0,6.02,4.88,10.9,10.9,10.9Z" fill="#2b468b"/><path d="m202.26,151.88c-17.91,13.19-50.94,42.02-50.94,75.5h-13.39c0-33.48,33.03-62.31,50.95-75.5-17.92-13.19-50.95-42.02-50.95-75.5h13.39c0,33.48,33.03,62.31,50.94,75.5Z" fill="#6c7aff" opacity=".09"/></svg>