<?xml version="1.0" encoding="utf-8"?>
<!-- Generator: Adobe Illustrator 27.4.1, SVG Export Plug-In . SVG Version: 6.00 Build 0)  -->
<svg version="1.1" id="Layer_1" xmlns="http://www.w3.org/2000/svg" xmlns:xlink="http://www.w3.org/1999/xlink" x="0px" y="0px"
	 viewBox="0 0 180 165" style="enable-background:new 0 0 180 165;" xml:space="preserve">
<style type="text/css">
	.st0{fill:#10217D;}
</style>
<path class="st0" d="M108.3,93.7c-5.7,0-10.3,4.7-10.3,10.5c0,5.8,4.6,10.5,10.3,10.5c5.7,0,10.3-4.7,10.3-10.5
	C118.6,98.3,114,93.7,108.3,93.7z M115.4,100.1l-9,9c-0.2,0.2-0.6,0.2-0.8,0l-3.9-3.9c-0.2-0.2-0.2-0.6,0-0.8c0.2-0.2,0.6-0.2,0.8,0
	l3.5,3.5l8.6-8.6c0.1-0.1,0.2-0.2,0.4-0.2c0.2,0,0.3,0.1,0.4,0.2C115.6,99.5,115.6,99.8,115.4,100.1z M108.3,93.7
	c-5.7,0-10.3,4.7-10.3,10.5c0,5.8,4.6,10.5,10.3,10.5c5.7,0,10.3-4.7,10.3-10.5C118.6,98.3,114,93.7,108.3,93.7z M115.4,100.1l-9,9
	c-0.2,0.2-0.6,0.2-0.8,0l-3.9-3.9c-0.2-0.2-0.2-0.6,0-0.8c0.2-0.2,0.6-0.2,0.8,0l3.5,3.5l8.6-8.6c0.1-0.1,0.2-0.2,0.4-0.2
	c0.2,0,0.3,0.1,0.4,0.2C115.6,99.5,115.6,99.8,115.4,100.1z M104.9,58.7h-5.1v1.8c0,1-0.8,1.8-1.7,1.8c-0.9,0-1.7-0.8-1.7-1.8v-1.8
	h-24v1.8c0,1-0.8,1.8-1.7,1.8c-0.9,0-1.7-0.8-1.7-1.8v-1.8h-5.1c-1.9,0-3.4,1.6-3.4,3.5v8.8h47.9v-8.8
	C108.3,60.2,106.8,58.7,104.9,58.7z M96.3,81.4v3.5h3.4v-3.5H96.3z M96.3,81.4v3.5h3.4v-3.5H96.3z M69,81.4v3.5h3.4v-3.5H69z
	 M82.7,81.4v3.5h3.4v-3.5H82.7z M96.3,81.4v3.5h3.4v-3.5H96.3z M96.3,81.4v3.5h3.4v-3.5H96.3z M82.7,81.4v3.5h3.4v-3.5H82.7z
	 M69,81.4v3.5h3.4v-3.5H69z M69,81.4v3.5h3.4v-3.5H69z M69,95.4v3.5h3.4v-3.5H69z M82.7,81.4v3.5h3.4v-3.5H82.7z M82.7,95.4v3.5h3.4
	v-3.5H82.7z M96.3,81.4v3.5h3.4v-3.5H96.3z M96.3,81.4v3.5h3.4v-3.5H96.3z M82.7,81.4v3.5h3.4v-3.5H82.7z M82.7,95.4v3.5h3.4v-3.5
	H82.7z M69,81.4v3.5h3.4v-3.5H69z M69,95.4v3.5h3.4v-3.5H69z M60.4,74.4v29.8c0,1.9,1.5,3.5,3.4,3.5h31.2c-0.3-1.1-0.4-2.3-0.4-3.5
	c0-7.7,6.1-14,13.7-14V74.4H60.4z M75.8,98.9c0,1.9-1.5,3.5-3.4,3.5H69c-1.9,0-3.4-1.6-3.4-3.5v-3.5c0-1.9,1.5-3.5,3.4-3.5h3.4
	c1.9,0,3.4,1.6,3.4,3.5V98.9z M75.8,84.9c0,1.9-1.5,3.5-3.4,3.5H69c-1.9,0-3.4-1.6-3.4-3.5v-3.5c0-1.9,1.5-3.5,3.4-3.5h3.4
	c1.9,0,3.4,1.6,3.4,3.5V84.9z M89.5,98.9c0,1.9-1.5,3.5-3.4,3.5h-3.4c-1.9,0-3.4-1.6-3.4-3.5v-3.5c0-1.9,1.5-3.5,3.4-3.5h3.4
	c1.9,0,3.4,1.6,3.4,3.5V98.9z M89.5,84.9c0,1.9-1.5,3.5-3.4,3.5h-3.4c-1.9,0-3.4-1.6-3.4-3.5v-3.5c0-1.9,1.5-3.5,3.4-3.5h3.4
	c1.9,0,3.4,1.6,3.4,3.5V84.9z M103.2,84.9c0,1.9-1.5,3.5-3.4,3.5h-3.4c-1.9,0-3.4-1.6-3.4-3.5v-3.5c0-1.9,1.5-3.5,3.4-3.5h3.4
	c1.9,0,3.4,1.6,3.4,3.5V84.9z M96.3,84.9h3.4v-3.5h-3.4V84.9z M82.7,98.9h3.4v-3.5h-3.4V98.9z M82.7,84.9h3.4v-3.5h-3.4V84.9z
	 M69,98.9h3.4v-3.5H69V98.9z M69,84.9h3.4v-3.5H69V84.9z M69,95.4v3.5h3.4v-3.5H69z M69,81.4v3.5h3.4v-3.5H69z M82.7,81.4v3.5h3.4
	v-3.5H82.7z M96.3,81.4v3.5h3.4v-3.5H96.3z M96.3,81.4v3.5h3.4v-3.5H96.3z M82.7,81.4v3.5h3.4v-3.5H82.7z M69,95.4v3.5h3.4v-3.5H69z
	 M69,81.4v3.5h3.4v-3.5H69z M82.7,81.4v3.5h3.4v-3.5H82.7z M96.3,81.4v3.5h3.4v-3.5H96.3z M96.3,81.4v3.5h3.4v-3.5H96.3z M82.7,81.4
	v3.5h3.4v-3.5H82.7z M96.3,81.4v3.5h3.4v-3.5H96.3z M96.3,81.4v3.5h3.4v-3.5H96.3z M69,81.4v3.5h3.4v-3.5H69z M82.7,81.4v3.5h3.4
	v-3.5H82.7z M96.3,81.4v3.5h3.4v-3.5H96.3z M96.3,81.4v3.5h3.4v-3.5H96.3z M82.7,81.4v3.5h3.4v-3.5H82.7z M69,81.4v3.5h3.4v-3.5H69z
	 M69,81.4v3.5h3.4v-3.5H69z M69,95.4v3.5h3.4v-3.5H69z M82.7,81.4v3.5h3.4v-3.5H82.7z M82.7,95.4v3.5h3.4v-3.5H82.7z M96.3,81.4v3.5
	h3.4v-3.5H96.3z M96.3,81.4v3.5h3.4v-3.5H96.3z M82.7,81.4v3.5h3.4v-3.5H82.7z M82.7,95.4v3.5h3.4v-3.5H82.7z M69,81.4v3.5h3.4v-3.5
	H69z M69,95.4v3.5h3.4v-3.5H69z M60.4,74.4v29.8c0,1.9,1.5,3.5,3.4,3.5h31.2c-0.3-1.1-0.4-2.3-0.4-3.5c0-7.7,6.1-14,13.7-14V74.4
	H60.4z M75.8,98.9c0,1.9-1.5,3.5-3.4,3.5H69c-1.9,0-3.4-1.6-3.4-3.5v-3.5c0-1.9,1.5-3.5,3.4-3.5h3.4c1.9,0,3.4,1.6,3.4,3.5V98.9z
	 M75.8,84.9c0,1.9-1.5,3.5-3.4,3.5H69c-1.9,0-3.4-1.6-3.4-3.5v-3.5c0-1.9,1.5-3.5,3.4-3.5h3.4c1.9,0,3.4,1.6,3.4,3.5V84.9z
	 M89.5,98.9c0,1.9-1.5,3.5-3.4,3.5h-3.4c-1.9,0-3.4-1.6-3.4-3.5v-3.5c0-1.9,1.5-3.5,3.4-3.5h3.4c1.9,0,3.4,1.6,3.4,3.5V98.9z
	 M89.5,84.9c0,1.9-1.5,3.5-3.4,3.5h-3.4c-1.9,0-3.4-1.6-3.4-3.5v-3.5c0-1.9,1.5-3.5,3.4-3.5h3.4c1.9,0,3.4,1.6,3.4,3.5V84.9z
	 M103.2,84.9c0,1.9-1.5,3.5-3.4,3.5h-3.4c-1.9,0-3.4-1.6-3.4-3.5v-3.5c0-1.9,1.5-3.5,3.4-3.5h3.4c1.9,0,3.4,1.6,3.4,3.5V84.9z
	 M96.3,84.9h3.4v-3.5h-3.4V84.9z M82.7,98.9h3.4v-3.5h-3.4V98.9z M82.7,84.9h3.4v-3.5h-3.4V84.9z M69,98.9h3.4v-3.5H69V98.9z
	 M69,84.9h3.4v-3.5H69V84.9z M69,95.4v3.5h3.4v-3.5H69z M69,81.4v3.5h3.4v-3.5H69z M82.7,81.4v3.5h3.4v-3.5H82.7z M96.3,81.4v3.5
	h3.4v-3.5H96.3z M96.3,81.4v3.5h3.4v-3.5H96.3z M82.7,81.4v3.5h3.4v-3.5H82.7z M69,95.4v3.5h3.4v-3.5H69z M69,81.4v3.5h3.4v-3.5H69z
	 M82.7,81.4v3.5h3.4v-3.5H82.7z M96.3,81.4v3.5h3.4v-3.5H96.3z M96.3,81.4v3.5h3.4v-3.5H96.3z M82.7,81.4v3.5h3.4v-3.5H82.7z
	 M108.3,93.7c-5.7,0-10.3,4.7-10.3,10.5c0,5.8,4.6,10.5,10.3,10.5c5.7,0,10.3-4.7,10.3-10.5C118.6,98.3,114,93.7,108.3,93.7z
	 M115.4,100.1l-9,9c-0.2,0.2-0.6,0.2-0.8,0l-3.9-3.9c-0.2-0.2-0.2-0.6,0-0.8c0.2-0.2,0.6-0.2,0.8,0l3.5,3.5l8.6-8.6
	c0.1-0.1,0.2-0.2,0.4-0.2c0.2,0,0.3,0.1,0.4,0.2C115.6,99.5,115.6,99.8,115.4,100.1z M108.3,93.7c-5.7,0-10.3,4.7-10.3,10.5
	c0,5.8,4.6,10.5,10.3,10.5c5.7,0,10.3-4.7,10.3-10.5C118.6,98.3,114,93.7,108.3,93.7z M115.4,100.1l-9,9c-0.2,0.2-0.6,0.2-0.8,0
	l-3.9-3.9c-0.2-0.2-0.2-0.6,0-0.8c0.2-0.2,0.6-0.2,0.8,0l3.5,3.5l8.6-8.6c0.1-0.1,0.2-0.2,0.4-0.2c0.2,0,0.3,0.1,0.4,0.2
	C115.6,99.5,115.6,99.8,115.4,100.1z M96.3,81.4v3.5h3.4v-3.5H96.3z M96.3,81.4v3.5h3.4v-3.5H96.3z M69,81.4v3.5h3.4v-3.5H69z
	 M82.7,81.4v3.5h3.4v-3.5H82.7z M96.3,81.4v3.5h3.4v-3.5H96.3z M96.3,81.4v3.5h3.4v-3.5H96.3z M82.7,81.4v3.5h3.4v-3.5H82.7z
	 M69,81.4v3.5h3.4v-3.5H69z M69,81.4v3.5h3.4v-3.5H69z M69,95.4v3.5h3.4v-3.5H69z M82.7,81.4v3.5h3.4v-3.5H82.7z M82.7,95.4v3.5h3.4
	v-3.5H82.7z M96.3,81.4v3.5h3.4v-3.5H96.3z M96.3,81.4v3.5h3.4v-3.5H96.3z M82.7,81.4v3.5h3.4v-3.5H82.7z M82.7,95.4v3.5h3.4v-3.5
	H82.7z M69,81.4v3.5h3.4v-3.5H69z M69,95.4v3.5h3.4v-3.5H69z M60.4,74.4v29.8c0,1.9,1.5,3.5,3.4,3.5h31.2c-0.3-1.1-0.4-2.3-0.4-3.5
	c0-7.7,6.1-14,13.7-14V74.4H60.4z M75.8,98.9c0,1.9-1.5,3.5-3.4,3.5H69c-1.9,0-3.4-1.6-3.4-3.5v-3.5c0-1.9,1.5-3.5,3.4-3.5h3.4
	c1.9,0,3.4,1.6,3.4,3.5V98.9z M75.8,84.9c0,1.9-1.5,3.5-3.4,3.5H69c-1.9,0-3.4-1.6-3.4-3.5v-3.5c0-1.9,1.5-3.5,3.4-3.5h3.4
	c1.9,0,3.4,1.6,3.4,3.5V84.9z M89.5,98.9c0,1.9-1.5,3.5-3.4,3.5h-3.4c-1.9,0-3.4-1.6-3.4-3.5v-3.5c0-1.9,1.5-3.5,3.4-3.5h3.4
	c1.9,0,3.4,1.6,3.4,3.5V98.9z M89.5,84.9c0,1.9-1.5,3.5-3.4,3.5h-3.4c-1.9,0-3.4-1.6-3.4-3.5v-3.5c0-1.9,1.5-3.5,3.4-3.5h3.4
	c1.9,0,3.4,1.6,3.4,3.5V84.9z M103.2,84.9c0,1.9-1.5,3.5-3.4,3.5h-3.4c-1.9,0-3.4-1.6-3.4-3.5v-3.5c0-1.9,1.5-3.5,3.4-3.5h3.4
	c1.9,0,3.4,1.6,3.4,3.5V84.9z M96.3,84.9h3.4v-3.5h-3.4V84.9z M82.7,98.9h3.4v-3.5h-3.4V98.9z M82.7,84.9h3.4v-3.5h-3.4V84.9z
	 M69,98.9h3.4v-3.5H69V98.9z M69,84.9h3.4v-3.5H69V84.9z M69,95.4v3.5h3.4v-3.5H69z M69,81.4v3.5h3.4v-3.5H69z M82.7,81.4v3.5h3.4
	v-3.5H82.7z M96.3,81.4v3.5h3.4v-3.5H96.3z M96.3,81.4v3.5h3.4v-3.5H96.3z M82.7,81.4v3.5h3.4v-3.5H82.7z M69,95.4v3.5h3.4v-3.5H69z
	 M69,81.4v3.5h3.4v-3.5H69z M82.7,81.4v3.5h3.4v-3.5H82.7z M96.3,81.4v3.5h3.4v-3.5H96.3z M96.3,81.4v3.5h3.4v-3.5H96.3z M82.7,81.4
	v3.5h3.4v-3.5H82.7z M104.9,58.7h-5.1v1.8c0,1-0.8,1.8-1.7,1.8c-0.9,0-1.7-0.8-1.7-1.8v-1.8h-24v1.8c0,1-0.8,1.8-1.7,1.8
	c-0.9,0-1.7-0.8-1.7-1.8v-1.8h-5.1c-1.9,0-3.4,1.6-3.4,3.5v8.8h47.9v-8.8C108.3,60.2,106.8,58.7,104.9,58.7z M96.3,81.4v3.5h3.4
	v-3.5H96.3z M96.3,81.4v3.5h3.4v-3.5H96.3z M69,81.4v3.5h3.4v-3.5H69z M82.7,81.4v3.5h3.4v-3.5H82.7z M96.3,81.4v3.5h3.4v-3.5H96.3z
	 M96.3,81.4v3.5h3.4v-3.5H96.3z M82.7,81.4v3.5h3.4v-3.5H82.7z M69,81.4v3.5h3.4v-3.5H69z M69,81.4v3.5h3.4v-3.5H69z M69,95.4v3.5
	h3.4v-3.5H69z M82.7,81.4v3.5h3.4v-3.5H82.7z M82.7,95.4v3.5h3.4v-3.5H82.7z M96.3,81.4v3.5h3.4v-3.5H96.3z M96.3,81.4v3.5h3.4v-3.5
	H96.3z M82.7,81.4v3.5h3.4v-3.5H82.7z M82.7,95.4v3.5h3.4v-3.5H82.7z M69,81.4v3.5h3.4v-3.5H69z M69,95.4v3.5h3.4v-3.5H69z
	 M60.4,74.4v29.8c0,1.9,1.5,3.5,3.4,3.5h31.2c-0.3-1.1-0.4-2.3-0.4-3.5c0-7.7,6.1-14,13.7-14V74.4H60.4z M75.8,98.9
	c0,1.9-1.5,3.5-3.4,3.5H69c-1.9,0-3.4-1.6-3.4-3.5v-3.5c0-1.9,1.5-3.5,3.4-3.5h3.4c1.9,0,3.4,1.6,3.4,3.5V98.9z M75.8,84.9
	c0,1.9-1.5,3.5-3.4,3.5H69c-1.9,0-3.4-1.6-3.4-3.5v-3.5c0-1.9,1.5-3.5,3.4-3.5h3.4c1.9,0,3.4,1.6,3.4,3.5V84.9z M89.5,98.9
	c0,1.9-1.5,3.5-3.4,3.5h-3.4c-1.9,0-3.4-1.6-3.4-3.5v-3.5c0-1.9,1.5-3.5,3.4-3.5h3.4c1.9,0,3.4,1.6,3.4,3.5V98.9z M89.5,84.9
	c0,1.9-1.5,3.5-3.4,3.5h-3.4c-1.9,0-3.4-1.6-3.4-3.5v-3.5c0-1.9,1.5-3.5,3.4-3.5h3.4c1.9,0,3.4,1.6,3.4,3.5V84.9z M103.2,84.9
	c0,1.9-1.5,3.5-3.4,3.5h-3.4c-1.9,0-3.4-1.6-3.4-3.5v-3.5c0-1.9,1.5-3.5,3.4-3.5h3.4c1.9,0,3.4,1.6,3.4,3.5V84.9z M96.3,84.9h3.4
	v-3.5h-3.4V84.9z M82.7,98.9h3.4v-3.5h-3.4V98.9z M82.7,84.9h3.4v-3.5h-3.4V84.9z M69,98.9h3.4v-3.5H69V98.9z M69,84.9h3.4v-3.5H69
	V84.9z M69,95.4v3.5h3.4v-3.5H69z M69,81.4v3.5h3.4v-3.5H69z M82.7,81.4v3.5h3.4v-3.5H82.7z M96.3,81.4v3.5h3.4v-3.5H96.3z
	 M96.3,81.4v3.5h3.4v-3.5H96.3z M82.7,81.4v3.5h3.4v-3.5H82.7z M69,95.4v3.5h3.4v-3.5H69z M69,81.4v3.5h3.4v-3.5H69z M82.7,81.4v3.5
	h3.4v-3.5H82.7z M96.3,81.4v3.5h3.4v-3.5H96.3z M96.3,81.4v3.5h3.4v-3.5H96.3z M82.7,81.4v3.5h3.4v-3.5H82.7z M108.3,93.7
	c-5.7,0-10.3,4.7-10.3,10.5c0,5.8,4.6,10.5,10.3,10.5c5.7,0,10.3-4.7,10.3-10.5C118.6,98.3,114,93.7,108.3,93.7z M115.4,100.1l-9,9
	c-0.2,0.2-0.6,0.2-0.8,0l-3.9-3.9c-0.2-0.2-0.2-0.6,0-0.8c0.2-0.2,0.6-0.2,0.8,0l3.5,3.5l8.6-8.6c0.1-0.1,0.2-0.2,0.4-0.2
	c0.2,0,0.3,0.1,0.4,0.2C115.6,99.5,115.6,99.8,115.4,100.1z M108.3,93.7c-5.7,0-10.3,4.7-10.3,10.5c0,5.8,4.6,10.5,10.3,10.5
	c5.7,0,10.3-4.7,10.3-10.5C118.6,98.3,114,93.7,108.3,93.7z M115.4,100.1l-9,9c-0.2,0.2-0.6,0.2-0.8,0l-3.9-3.9
	c-0.2-0.2-0.2-0.6,0-0.8c0.2-0.2,0.6-0.2,0.8,0l3.5,3.5l8.6-8.6c0.1-0.1,0.2-0.2,0.4-0.2c0.2,0,0.3,0.1,0.4,0.2
	C115.6,99.5,115.6,99.8,115.4,100.1z M96.3,81.4v3.5h3.4v-3.5H96.3z M96.3,81.4v3.5h3.4v-3.5H96.3z M69,81.4v3.5h3.4v-3.5H69z
	 M82.7,81.4v3.5h3.4v-3.5H82.7z M96.3,81.4v3.5h3.4v-3.5H96.3z M96.3,81.4v3.5h3.4v-3.5H96.3z M82.7,81.4v3.5h3.4v-3.5H82.7z
	 M69,81.4v3.5h3.4v-3.5H69z M69,81.4v3.5h3.4v-3.5H69z M69,95.4v3.5h3.4v-3.5H69z M82.7,81.4v3.5h3.4v-3.5H82.7z M82.7,95.4v3.5h3.4
	v-3.5H82.7z M96.3,81.4v3.5h3.4v-3.5H96.3z M96.3,81.4v3.5h3.4v-3.5H96.3z M82.7,81.4v3.5h3.4v-3.5H82.7z M82.7,95.4v3.5h3.4v-3.5
	H82.7z M69,81.4v3.5h3.4v-3.5H69z M69,95.4v3.5h3.4v-3.5H69z M60.4,74.4v29.8c0,1.9,1.5,3.5,3.4,3.5h31.2c-0.3-1.1-0.4-2.3-0.4-3.5
	c0-7.7,6.1-14,13.7-14V74.4H60.4z M75.8,98.9c0,1.9-1.5,3.5-3.4,3.5H69c-1.9,0-3.4-1.6-3.4-3.5v-3.5c0-1.9,1.5-3.5,3.4-3.5h3.4
	c1.9,0,3.4,1.6,3.4,3.5V98.9z M75.8,84.9c0,1.9-1.5,3.5-3.4,3.5H69c-1.9,0-3.4-1.6-3.4-3.5v-3.5c0-1.9,1.5-3.5,3.4-3.5h3.4
	c1.9,0,3.4,1.6,3.4,3.5V84.9z M89.5,98.9c0,1.9-1.5,3.5-3.4,3.5h-3.4c-1.9,0-3.4-1.6-3.4-3.5v-3.5c0-1.9,1.5-3.5,3.4-3.5h3.4
	c1.9,0,3.4,1.6,3.4,3.5V98.9z M89.5,84.9c0,1.9-1.5,3.5-3.4,3.5h-3.4c-1.9,0-3.4-1.6-3.4-3.5v-3.5c0-1.9,1.5-3.5,3.4-3.5h3.4
	c1.9,0,3.4,1.6,3.4,3.5V84.9z M103.2,84.9c0,1.9-1.5,3.5-3.4,3.5h-3.4c-1.9,0-3.4-1.6-3.4-3.5v-3.5c0-1.9,1.5-3.5,3.4-3.5h3.4
	c1.9,0,3.4,1.6,3.4,3.5V84.9z M96.3,84.9h3.4v-3.5h-3.4V84.9z M82.7,98.9h3.4v-3.5h-3.4V98.9z M82.7,84.9h3.4v-3.5h-3.4V84.9z
	 M69,98.9h3.4v-3.5H69V98.9z M69,84.9h3.4v-3.5H69V84.9z M69,95.4v3.5h3.4v-3.5H69z M69,81.4v3.5h3.4v-3.5H69z M82.7,81.4v3.5h3.4
	v-3.5H82.7z M96.3,81.4v3.5h3.4v-3.5H96.3z M96.3,81.4v3.5h3.4v-3.5H96.3z M82.7,81.4v3.5h3.4v-3.5H82.7z M69,95.4v3.5h3.4v-3.5H69z
	 M69,81.4v3.5h3.4v-3.5H69z M82.7,81.4v3.5h3.4v-3.5H82.7z M96.3,81.4v3.5h3.4v-3.5H96.3z M96.3,81.4v3.5h3.4v-3.5H96.3z M82.7,81.4
	v3.5h3.4v-3.5H82.7z M104.9,58.7h-5.1v1.8c0,1-0.8,1.8-1.7,1.8c-0.9,0-1.7-0.8-1.7-1.8v-1.8h-24v1.8c0,1-0.8,1.8-1.7,1.8
	c-0.9,0-1.7-0.8-1.7-1.8v-1.8h-5.1c-1.9,0-3.4,1.6-3.4,3.5v8.8h47.9v-8.8C108.3,60.2,106.8,58.7,104.9,58.7z M96.3,81.4v3.5h3.4
	v-3.5H96.3z M96.3,81.4v3.5h3.4v-3.5H96.3z M69,81.4v3.5h3.4v-3.5H69z M82.7,81.4v3.5h3.4v-3.5H82.7z M96.3,81.4v3.5h3.4v-3.5H96.3z
	 M96.3,81.4v3.5h3.4v-3.5H96.3z M82.7,81.4v3.5h3.4v-3.5H82.7z M69,81.4v3.5h3.4v-3.5H69z M69,81.4v3.5h3.4v-3.5H69z M69,95.4v3.5
	h3.4v-3.5H69z M82.7,81.4v3.5h3.4v-3.5H82.7z M82.7,95.4v3.5h3.4v-3.5H82.7z M96.3,81.4v3.5h3.4v-3.5H96.3z M96.3,81.4v3.5h3.4v-3.5
	H96.3z M82.7,81.4v3.5h3.4v-3.5H82.7z M82.7,95.4v3.5h3.4v-3.5H82.7z M69,81.4v3.5h3.4v-3.5H69z M69,95.4v3.5h3.4v-3.5H69z
	 M60.4,74.4v29.8c0,1.9,1.5,3.5,3.4,3.5h31.2c-0.3-1.1-0.4-2.3-0.4-3.5c0-7.7,6.1-14,13.7-14V74.4H60.4z M75.8,98.9
	c0,1.9-1.5,3.5-3.4,3.5H69c-1.9,0-3.4-1.6-3.4-3.5v-3.5c0-1.9,1.5-3.5,3.4-3.5h3.4c1.9,0,3.4,1.6,3.4,3.5V98.9z M75.8,84.9
	c0,1.9-1.5,3.5-3.4,3.5H69c-1.9,0-3.4-1.6-3.4-3.5v-3.5c0-1.9,1.5-3.5,3.4-3.5h3.4c1.9,0,3.4,1.6,3.4,3.5V84.9z M89.5,98.9
	c0,1.9-1.5,3.5-3.4,3.5h-3.4c-1.9,0-3.4-1.6-3.4-3.5v-3.5c0-1.9,1.5-3.5,3.4-3.5h3.4c1.9,0,3.4,1.6,3.4,3.5V98.9z M89.5,84.9
	c0,1.9-1.5,3.5-3.4,3.5h-3.4c-1.9,0-3.4-1.6-3.4-3.5v-3.5c0-1.9,1.5-3.5,3.4-3.5h3.4c1.9,0,3.4,1.6,3.4,3.5V84.9z M103.2,84.9
	c0,1.9-1.5,3.5-3.4,3.5h-3.4c-1.9,0-3.4-1.6-3.4-3.5v-3.5c0-1.9,1.5-3.5,3.4-3.5h3.4c1.9,0,3.4,1.6,3.4,3.5V84.9z M96.3,84.9h3.4
	v-3.5h-3.4V84.9z M82.7,98.9h3.4v-3.5h-3.4V98.9z M82.7,84.9h3.4v-3.5h-3.4V84.9z M69,98.9h3.4v-3.5H69V98.9z M69,84.9h3.4v-3.5H69
	V84.9z M69,95.4v3.5h3.4v-3.5H69z M69,81.4v3.5h3.4v-3.5H69z M82.7,81.4v3.5h3.4v-3.5H82.7z M96.3,81.4v3.5h3.4v-3.5H96.3z
	 M96.3,81.4v3.5h3.4v-3.5H96.3z M82.7,81.4v3.5h3.4v-3.5H82.7z M69,95.4v3.5h3.4v-3.5H69z M69,81.4v3.5h3.4v-3.5H69z M82.7,81.4v3.5
	h3.4v-3.5H82.7z M96.3,81.4v3.5h3.4v-3.5H96.3z M96.3,81.4v3.5h3.4v-3.5H96.3z M82.7,81.4v3.5h3.4v-3.5H82.7z M108.3,93.7
	c-5.7,0-10.3,4.7-10.3,10.5c0,5.8,4.6,10.5,10.3,10.5c5.7,0,10.3-4.7,10.3-10.5C118.6,98.3,114,93.7,108.3,93.7z M115.4,100.1l-9,9
	c-0.2,0.2-0.6,0.2-0.8,0l-3.9-3.9c-0.2-0.2-0.2-0.6,0-0.8c0.2-0.2,0.6-0.2,0.8,0l3.5,3.5l8.6-8.6c0.1-0.1,0.2-0.2,0.4-0.2
	c0.2,0,0.3,0.1,0.4,0.2C115.6,99.5,115.6,99.8,115.4,100.1z M108.3,93.7c-5.7,0-10.3,4.7-10.3,10.5c0,5.8,4.6,10.5,10.3,10.5
	c5.7,0,10.3-4.7,10.3-10.5C118.6,98.3,114,93.7,108.3,93.7z M115.4,100.1l-9,9c-0.2,0.2-0.6,0.2-0.8,0l-3.9-3.9
	c-0.2-0.2-0.2-0.6,0-0.8c0.2-0.2,0.6-0.2,0.8,0l3.5,3.5l8.6-8.6c0.1-0.1,0.2-0.2,0.4-0.2c0.2,0,0.3,0.1,0.4,0.2
	C115.6,99.5,115.6,99.8,115.4,100.1z M96.3,81.4v3.5h3.4v-3.5H96.3z M96.3,81.4v3.5h3.4v-3.5H96.3z M69,81.4v3.5h3.4v-3.5H69z
	 M82.7,81.4v3.5h3.4v-3.5H82.7z M96.3,81.4v3.5h3.4v-3.5H96.3z M96.3,81.4v3.5h3.4v-3.5H96.3z M82.7,81.4v3.5h3.4v-3.5H82.7z
	 M69,81.4v3.5h3.4v-3.5H69z M69,81.4v3.5h3.4v-3.5H69z M69,95.4v3.5h3.4v-3.5H69z M82.7,81.4v3.5h3.4v-3.5H82.7z M82.7,95.4v3.5h3.4
	v-3.5H82.7z M96.3,81.4v3.5h3.4v-3.5H96.3z M96.3,81.4v3.5h3.4v-3.5H96.3z M82.7,81.4v3.5h3.4v-3.5H82.7z M82.7,95.4v3.5h3.4v-3.5
	H82.7z M69,81.4v3.5h3.4v-3.5H69z M69,95.4v3.5h3.4v-3.5H69z M60.4,74.4v29.8c0,1.9,1.5,3.5,3.4,3.5h31.2c-0.3-1.1-0.4-2.3-0.4-3.5
	c0-7.7,6.1-14,13.7-14V74.4H60.4z M75.8,98.9c0,1.9-1.5,3.5-3.4,3.5H69c-1.9,0-3.4-1.6-3.4-3.5v-3.5c0-1.9,1.5-3.5,3.4-3.5h3.4
	c1.9,0,3.4,1.6,3.4,3.5V98.9z M75.8,84.9c0,1.9-1.5,3.5-3.4,3.5H69c-1.9,0-3.4-1.6-3.4-3.5v-3.5c0-1.9,1.5-3.5,3.4-3.5h3.4
	c1.9,0,3.4,1.6,3.4,3.5V84.9z M89.5,98.9c0,1.9-1.5,3.5-3.4,3.5h-3.4c-1.9,0-3.4-1.6-3.4-3.5v-3.5c0-1.9,1.5-3.5,3.4-3.5h3.4
	c1.9,0,3.4,1.6,3.4,3.5V98.9z M89.5,84.9c0,1.9-1.5,3.5-3.4,3.5h-3.4c-1.9,0-3.4-1.6-3.4-3.5v-3.5c0-1.9,1.5-3.5,3.4-3.5h3.4
	c1.9,0,3.4,1.6,3.4,3.5V84.9z M103.2,84.9c0,1.9-1.5,3.5-3.4,3.5h-3.4c-1.9,0-3.4-1.6-3.4-3.5v-3.5c0-1.9,1.5-3.5,3.4-3.5h3.4
	c1.9,0,3.4,1.6,3.4,3.5V84.9z M96.3,84.9h3.4v-3.5h-3.4V84.9z M82.7,98.9h3.4v-3.5h-3.4V98.9z M82.7,84.9h3.4v-3.5h-3.4V84.9z
	 M69,98.9h3.4v-3.5H69V98.9z M69,84.9h3.4v-3.5H69V84.9z M69,95.4v3.5h3.4v-3.5H69z M69,81.4v3.5h3.4v-3.5H69z M82.7,81.4v3.5h3.4
	v-3.5H82.7z M96.3,81.4v3.5h3.4v-3.5H96.3z M96.3,81.4v3.5h3.4v-3.5H96.3z M82.7,81.4v3.5h3.4v-3.5H82.7z M69,95.4v3.5h3.4v-3.5H69z
	 M69,81.4v3.5h3.4v-3.5H69z M82.7,81.4v3.5h3.4v-3.5H82.7z M96.3,81.4v3.5h3.4v-3.5H96.3z M96.3,81.4v3.5h3.4v-3.5H96.3z M82.7,81.4
	v3.5h3.4v-3.5H82.7z M104.9,58.7h-5.1v1.8c0,1-0.8,1.8-1.7,1.8c-0.9,0-1.7-0.8-1.7-1.8v-1.8h-24v1.8c0,1-0.8,1.8-1.7,1.8
	c-0.9,0-1.7-0.8-1.7-1.8v-1.8h-5.1c-1.9,0-3.4,1.6-3.4,3.5v8.8h47.9v-8.8C108.3,60.2,106.8,58.7,104.9,58.7z M104.9,58.7h-5.1v1.8
	c0,1-0.8,1.8-1.7,1.8c-0.9,0-1.7-0.8-1.7-1.8v-1.8h-24v1.8c0,1-0.8,1.8-1.7,1.8c-0.9,0-1.7-0.8-1.7-1.8v-1.8h-5.1
	c-1.9,0-3.4,1.6-3.4,3.5v8.8h47.9v-8.8C108.3,60.2,106.8,58.7,104.9,58.7z M96.3,81.4v3.5h3.4v-3.5H96.3z M96.3,81.4v3.5h3.4v-3.5
	H96.3z M69,81.4v3.5h3.4v-3.5H69z M82.7,81.4v3.5h3.4v-3.5H82.7z M96.3,81.4v3.5h3.4v-3.5H96.3z M96.3,81.4v3.5h3.4v-3.5H96.3z
	 M82.7,81.4v3.5h3.4v-3.5H82.7z M69,81.4v3.5h3.4v-3.5H69z M69,81.4v3.5h3.4v-3.5H69z M69,95.4v3.5h3.4v-3.5H69z M82.7,81.4v3.5h3.4
	v-3.5H82.7z M82.7,95.4v3.5h3.4v-3.5H82.7z M96.3,81.4v3.5h3.4v-3.5H96.3z M96.3,81.4v3.5h3.4v-3.5H96.3z M82.7,81.4v3.5h3.4v-3.5
	H82.7z M82.7,95.4v3.5h3.4v-3.5H82.7z M69,81.4v3.5h3.4v-3.5H69z M69,95.4v3.5h3.4v-3.5H69z M60.4,74.4v29.8c0,1.9,1.5,3.5,3.4,3.5
	h31.2c-0.3-1.1-0.4-2.3-0.4-3.5c0-7.7,6.1-14,13.7-14V74.4H60.4z M75.8,98.9c0,1.9-1.5,3.5-3.4,3.5H69c-1.9,0-3.4-1.6-3.4-3.5v-3.5
	c0-1.9,1.5-3.5,3.4-3.5h3.4c1.9,0,3.4,1.6,3.4,3.5V98.9z M75.8,84.9c0,1.9-1.5,3.5-3.4,3.5H69c-1.9,0-3.4-1.6-3.4-3.5v-3.5
	c0-1.9,1.5-3.5,3.4-3.5h3.4c1.9,0,3.4,1.6,3.4,3.5V84.9z M89.5,98.9c0,1.9-1.5,3.5-3.4,3.5h-3.4c-1.9,0-3.4-1.6-3.4-3.5v-3.5
	c0-1.9,1.5-3.5,3.4-3.5h3.4c1.9,0,3.4,1.6,3.4,3.5V98.9z M89.5,84.9c0,1.9-1.5,3.5-3.4,3.5h-3.4c-1.9,0-3.4-1.6-3.4-3.5v-3.5
	c0-1.9,1.5-3.5,3.4-3.5h3.4c1.9,0,3.4,1.6,3.4,3.5V84.9z M103.2,84.9c0,1.9-1.5,3.5-3.4,3.5h-3.4c-1.9,0-3.4-1.6-3.4-3.5v-3.5
	c0-1.9,1.5-3.5,3.4-3.5h3.4c1.9,0,3.4,1.6,3.4,3.5V84.9z M96.3,84.9h3.4v-3.5h-3.4V84.9z M82.7,98.9h3.4v-3.5h-3.4V98.9z M82.7,84.9
	h3.4v-3.5h-3.4V84.9z M69,98.9h3.4v-3.5H69V98.9z M69,84.9h3.4v-3.5H69V84.9z M69,95.4v3.5h3.4v-3.5H69z M69,81.4v3.5h3.4v-3.5H69z
	 M82.7,81.4v3.5h3.4v-3.5H82.7z M96.3,81.4v3.5h3.4v-3.5H96.3z M96.3,81.4v3.5h3.4v-3.5H96.3z M82.7,81.4v3.5h3.4v-3.5H82.7z
	 M69,95.4v3.5h3.4v-3.5H69z M69,81.4v3.5h3.4v-3.5H69z M82.7,81.4v3.5h3.4v-3.5H82.7z M96.3,81.4v3.5h3.4v-3.5H96.3z M96.3,81.4v3.5
	h3.4v-3.5H96.3z M82.7,81.4v3.5h3.4v-3.5H82.7z M108.3,93.7c-5.7,0-10.3,4.7-10.3,10.5c0,5.8,4.6,10.5,10.3,10.5
	c5.7,0,10.3-4.7,10.3-10.5C118.6,98.3,114,93.7,108.3,93.7z M115.4,100.1l-9,9c-0.2,0.2-0.6,0.2-0.8,0l-3.9-3.9
	c-0.2-0.2-0.2-0.6,0-0.8c0.2-0.2,0.6-0.2,0.8,0l3.5,3.5l8.6-8.6c0.1-0.1,0.2-0.2,0.4-0.2c0.2,0,0.3,0.1,0.4,0.2
	C115.6,99.5,115.6,99.8,115.4,100.1z M108.3,93.7c-5.7,0-10.3,4.7-10.3,10.5c0,5.8,4.6,10.5,10.3,10.5c5.7,0,10.3-4.7,10.3-10.5
	C118.6,98.3,114,93.7,108.3,93.7z M115.4,100.1l-9,9c-0.2,0.2-0.6,0.2-0.8,0l-3.9-3.9c-0.2-0.2-0.2-0.6,0-0.8c0.2-0.2,0.6-0.2,0.8,0
	l3.5,3.5l8.6-8.6c0.1-0.1,0.2-0.2,0.4-0.2c0.2,0,0.3,0.1,0.4,0.2C115.6,99.5,115.6,99.8,115.4,100.1z M96.3,81.4v3.5h3.4v-3.5H96.3z
	 M96.3,81.4v3.5h3.4v-3.5H96.3z M69,81.4v3.5h3.4v-3.5H69z M82.7,81.4v3.5h3.4v-3.5H82.7z M96.3,81.4v3.5h3.4v-3.5H96.3z M96.3,81.4
	v3.5h3.4v-3.5H96.3z M82.7,81.4v3.5h3.4v-3.5H82.7z M69,81.4v3.5h3.4v-3.5H69z M69,81.4v3.5h3.4v-3.5H69z M69,95.4v3.5h3.4v-3.5H69z
	 M82.7,81.4v3.5h3.4v-3.5H82.7z M82.7,95.4v3.5h3.4v-3.5H82.7z M96.3,81.4v3.5h3.4v-3.5H96.3z M96.3,81.4v3.5h3.4v-3.5H96.3z
	 M82.7,81.4v3.5h3.4v-3.5H82.7z M82.7,95.4v3.5h3.4v-3.5H82.7z M69,81.4v3.5h3.4v-3.5H69z M69,95.4v3.5h3.4v-3.5H69z M60.4,74.4
	v29.8c0,1.9,1.5,3.5,3.4,3.5h31.2c-0.3-1.1-0.4-2.3-0.4-3.5c0-7.7,6.1-14,13.7-14V74.4H60.4z M75.8,98.9c0,1.9-1.5,3.5-3.4,3.5H69
	c-1.9,0-3.4-1.6-3.4-3.5v-3.5c0-1.9,1.5-3.5,3.4-3.5h3.4c1.9,0,3.4,1.6,3.4,3.5V98.9z M75.8,84.9c0,1.9-1.5,3.5-3.4,3.5H69
	c-1.9,0-3.4-1.6-3.4-3.5v-3.5c0-1.9,1.5-3.5,3.4-3.5h3.4c1.9,0,3.4,1.6,3.4,3.5V84.9z M89.5,98.9c0,1.9-1.5,3.5-3.4,3.5h-3.4
	c-1.9,0-3.4-1.6-3.4-3.5v-3.5c0-1.9,1.5-3.5,3.4-3.5h3.4c1.9,0,3.4,1.6,3.4,3.5V98.9z M89.5,84.9c0,1.9-1.5,3.5-3.4,3.5h-3.4
	c-1.9,0-3.4-1.6-3.4-3.5v-3.5c0-1.9,1.5-3.5,3.4-3.5h3.4c1.9,0,3.4,1.6,3.4,3.5V84.9z M103.2,84.9c0,1.9-1.5,3.5-3.4,3.5h-3.4
	c-1.9,0-3.4-1.6-3.4-3.5v-3.5c0-1.9,1.5-3.5,3.4-3.5h3.4c1.9,0,3.4,1.6,3.4,3.5V84.9z M96.3,84.9h3.4v-3.5h-3.4V84.9z M82.7,98.9
	h3.4v-3.5h-3.4V98.9z M82.7,84.9h3.4v-3.5h-3.4V84.9z M69,98.9h3.4v-3.5H69V98.9z M69,84.9h3.4v-3.5H69V84.9z M69,95.4v3.5h3.4v-3.5
	H69z M69,81.4v3.5h3.4v-3.5H69z M82.7,81.4v3.5h3.4v-3.5H82.7z M96.3,81.4v3.5h3.4v-3.5H96.3z M96.3,81.4v3.5h3.4v-3.5H96.3z
	 M82.7,81.4v3.5h3.4v-3.5H82.7z M69,95.4v3.5h3.4v-3.5H69z M69,81.4v3.5h3.4v-3.5H69z M82.7,81.4v3.5h3.4v-3.5H82.7z M96.3,81.4v3.5
	h3.4v-3.5H96.3z M96.3,81.4v3.5h3.4v-3.5H96.3z M82.7,81.4v3.5h3.4v-3.5H82.7z M104.9,58.7h-5.1v1.8c0,1-0.8,1.8-1.7,1.8
	c-0.9,0-1.7-0.8-1.7-1.8v-1.8h-24v1.8c0,1-0.8,1.8-1.7,1.8c-0.9,0-1.7-0.8-1.7-1.8v-1.8h-5.1c-1.9,0-3.4,1.6-3.4,3.5v8.8h47.9v-8.8
	C108.3,60.2,106.8,58.7,104.9,58.7z M104.9,58.7h-5.1v1.8c0,1-0.8,1.8-1.7,1.8c-0.9,0-1.7-0.8-1.7-1.8v-1.8h-24v1.8
	c0,1-0.8,1.8-1.7,1.8c-0.9,0-1.7-0.8-1.7-1.8v-1.8h-5.1c-1.9,0-3.4,1.6-3.4,3.5v8.8h47.9v-8.8C108.3,60.2,106.8,58.7,104.9,58.7z
	 M96.3,81.4v3.5h3.4v-3.5H96.3z M96.3,81.4v3.5h3.4v-3.5H96.3z M69,81.4v3.5h3.4v-3.5H69z M82.7,81.4v3.5h3.4v-3.5H82.7z M96.3,81.4
	v3.5h3.4v-3.5H96.3z M96.3,81.4v3.5h3.4v-3.5H96.3z M82.7,81.4v3.5h3.4v-3.5H82.7z M69,81.4v3.5h3.4v-3.5H69z M69,81.4v3.5h3.4v-3.5
	H69z M69,95.4v3.5h3.4v-3.5H69z M82.7,81.4v3.5h3.4v-3.5H82.7z M82.7,95.4v3.5h3.4v-3.5H82.7z M96.3,81.4v3.5h3.4v-3.5H96.3z
	 M96.3,81.4v3.5h3.4v-3.5H96.3z M82.7,81.4v3.5h3.4v-3.5H82.7z M82.7,95.4v3.5h3.4v-3.5H82.7z M69,81.4v3.5h3.4v-3.5H69z M69,95.4
	v3.5h3.4v-3.5H69z M60.4,74.4v29.8c0,1.9,1.5,3.5,3.4,3.5h31.2c-0.3-1.1-0.4-2.3-0.4-3.5c0-7.7,6.1-14,13.7-14V74.4H60.4z
	 M75.8,98.9c0,1.9-1.5,3.5-3.4,3.5H69c-1.9,0-3.4-1.6-3.4-3.5v-3.5c0-1.9,1.5-3.5,3.4-3.5h3.4c1.9,0,3.4,1.6,3.4,3.5V98.9z
	 M75.8,84.9c0,1.9-1.5,3.5-3.4,3.5H69c-1.9,0-3.4-1.6-3.4-3.5v-3.5c0-1.9,1.5-3.5,3.4-3.5h3.4c1.9,0,3.4,1.6,3.4,3.5V84.9z
	 M89.5,98.9c0,1.9-1.5,3.5-3.4,3.5h-3.4c-1.9,0-3.4-1.6-3.4-3.5v-3.5c0-1.9,1.5-3.5,3.4-3.5h3.4c1.9,0,3.4,1.6,3.4,3.5V98.9z
	 M89.5,84.9c0,1.9-1.5,3.5-3.4,3.5h-3.4c-1.9,0-3.4-1.6-3.4-3.5v-3.5c0-1.9,1.5-3.5,3.4-3.5h3.4c1.9,0,3.4,1.6,3.4,3.5V84.9z
	 M103.2,84.9c0,1.9-1.5,3.5-3.4,3.5h-3.4c-1.9,0-3.4-1.6-3.4-3.5v-3.5c0-1.9,1.5-3.5,3.4-3.5h3.4c1.9,0,3.4,1.6,3.4,3.5V84.9z
	 M96.3,84.9h3.4v-3.5h-3.4V84.9z M82.7,98.9h3.4v-3.5h-3.4V98.9z M82.7,84.9h3.4v-3.5h-3.4V84.9z M69,98.9h3.4v-3.5H69V98.9z
	 M69,84.9h3.4v-3.5H69V84.9z M69,95.4v3.5h3.4v-3.5H69z M69,81.4v3.5h3.4v-3.5H69z M82.7,81.4v3.5h3.4v-3.5H82.7z M96.3,81.4v3.5
	h3.4v-3.5H96.3z M96.3,81.4v3.5h3.4v-3.5H96.3z M82.7,81.4v3.5h3.4v-3.5H82.7z M69,95.4v3.5h3.4v-3.5H69z M69,81.4v3.5h3.4v-3.5H69z
	 M82.7,81.4v3.5h3.4v-3.5H82.7z M96.3,81.4v3.5h3.4v-3.5H96.3z M96.3,81.4v3.5h3.4v-3.5H96.3z M82.7,81.4v3.5h3.4v-3.5H82.7z
	 M108.3,93.7c-5.7,0-10.3,4.7-10.3,10.5c0,5.8,4.6,10.5,10.3,10.5c5.7,0,10.3-4.7,10.3-10.5C118.6,98.3,114,93.7,108.3,93.7z
	 M115.4,100.1l-9,9c-0.2,0.2-0.6,0.2-0.8,0l-3.9-3.9c-0.2-0.2-0.2-0.6,0-0.8c0.2-0.2,0.6-0.2,0.8,0l3.5,3.5l8.6-8.6
	c0.1-0.1,0.2-0.2,0.4-0.2c0.2,0,0.3,0.1,0.4,0.2C115.6,99.5,115.6,99.8,115.4,100.1z M108.3,93.7c-5.7,0-10.3,4.7-10.3,10.5
	c0,5.8,4.6,10.5,10.3,10.5c5.7,0,10.3-4.7,10.3-10.5C118.6,98.3,114,93.7,108.3,93.7z M115.4,100.1l-9,9c-0.2,0.2-0.6,0.2-0.8,0
	l-3.9-3.9c-0.2-0.2-0.2-0.6,0-0.8c0.2-0.2,0.6-0.2,0.8,0l3.5,3.5l8.6-8.6c0.1-0.1,0.2-0.2,0.4-0.2c0.2,0,0.3,0.1,0.4,0.2
	C115.6,99.5,115.6,99.8,115.4,100.1z M96.3,81.4v3.5h3.4v-3.5H96.3z M96.3,81.4v3.5h3.4v-3.5H96.3z M69,81.4v3.5h3.4v-3.5H69z
	 M82.7,81.4v3.5h3.4v-3.5H82.7z M96.3,81.4v3.5h3.4v-3.5H96.3z M96.3,81.4v3.5h3.4v-3.5H96.3z M82.7,81.4v3.5h3.4v-3.5H82.7z
	 M69,81.4v3.5h3.4v-3.5H69z M69,81.4v3.5h3.4v-3.5H69z M69,95.4v3.5h3.4v-3.5H69z M82.7,81.4v3.5h3.4v-3.5H82.7z M82.7,95.4v3.5h3.4
	v-3.5H82.7z M96.3,81.4v3.5h3.4v-3.5H96.3z M96.3,81.4v3.5h3.4v-3.5H96.3z M82.7,81.4v3.5h3.4v-3.5H82.7z M82.7,95.4v3.5h3.4v-3.5
	H82.7z M69,81.4v3.5h3.4v-3.5H69z M69,95.4v3.5h3.4v-3.5H69z M60.4,74.4v29.8c0,1.9,1.5,3.5,3.4,3.5h31.2c-0.3-1.1-0.4-2.3-0.4-3.5
	c0-7.7,6.1-14,13.7-14V74.4H60.4z M75.8,98.9c0,1.9-1.5,3.5-3.4,3.5H69c-1.9,0-3.4-1.6-3.4-3.5v-3.5c0-1.9,1.5-3.5,3.4-3.5h3.4
	c1.9,0,3.4,1.6,3.4,3.5V98.9z M75.8,84.9c0,1.9-1.5,3.5-3.4,3.5H69c-1.9,0-3.4-1.6-3.4-3.5v-3.5c0-1.9,1.5-3.5,3.4-3.5h3.4
	c1.9,0,3.4,1.6,3.4,3.5V84.9z M89.5,98.9c0,1.9-1.5,3.5-3.4,3.5h-3.4c-1.9,0-3.4-1.6-3.4-3.5v-3.5c0-1.9,1.5-3.5,3.4-3.5h3.4
	c1.9,0,3.4,1.6,3.4,3.5V98.9z M89.5,84.9c0,1.9-1.5,3.5-3.4,3.5h-3.4c-1.9,0-3.4-1.6-3.4-3.5v-3.5c0-1.9,1.5-3.5,3.4-3.5h3.4
	c1.9,0,3.4,1.6,3.4,3.5V84.9z M103.2,84.9c0,1.9-1.5,3.5-3.4,3.5h-3.4c-1.9,0-3.4-1.6-3.4-3.5v-3.5c0-1.9,1.5-3.5,3.4-3.5h3.4
	c1.9,0,3.4,1.6,3.4,3.5V84.9z M96.3,84.9h3.4v-3.5h-3.4V84.9z M82.7,98.9h3.4v-3.5h-3.4V98.9z M82.7,84.9h3.4v-3.5h-3.4V84.9z
	 M69,98.9h3.4v-3.5H69V98.9z M69,84.9h3.4v-3.5H69V84.9z M69,95.4v3.5h3.4v-3.5H69z M69,81.4v3.5h3.4v-3.5H69z M82.7,81.4v3.5h3.4
	v-3.5H82.7z M96.3,81.4v3.5h3.4v-3.5H96.3z M96.3,81.4v3.5h3.4v-3.5H96.3z M82.7,81.4v3.5h3.4v-3.5H82.7z M69,95.4v3.5h3.4v-3.5H69z
	 M69,81.4v3.5h3.4v-3.5H69z M82.7,81.4v3.5h3.4v-3.5H82.7z M96.3,81.4v3.5h3.4v-3.5H96.3z M96.3,81.4v3.5h3.4v-3.5H96.3z M82.7,81.4
	v3.5h3.4v-3.5H82.7z M104.9,58.7h-5.1v1.8c0,1-0.8,1.8-1.7,1.8c-0.9,0-1.7-0.8-1.7-1.8v-1.8h-24v1.8c0,1-0.8,1.8-1.7,1.8
	c-0.9,0-1.7-0.8-1.7-1.8v-1.8h-5.1c-1.9,0-3.4,1.6-3.4,3.5v8.8h47.9v-8.8C108.3,60.2,106.8,58.7,104.9,58.7z M96.3,81.4v3.5h3.4
	v-3.5H96.3z M104.9,58.7h-5.1v1.8c0,1-0.8,1.8-1.7,1.8c-0.9,0-1.7-0.8-1.7-1.8v-1.8h-24v1.8c0,1-0.8,1.8-1.7,1.8
	c-0.9,0-1.7-0.8-1.7-1.8v-1.8h-5.1c-1.9,0-3.4,1.6-3.4,3.5v8.8h47.9v-8.8C108.3,60.2,106.8,58.7,104.9,58.7z M96.3,81.4v3.5h3.4
	v-3.5H96.3z M69,81.4v3.5h3.4v-3.5H69z M82.7,81.4v3.5h3.4v-3.5H82.7z M96.3,81.4v3.5h3.4v-3.5H96.3z M96.3,81.4v3.5h3.4v-3.5H96.3z
	 M82.7,81.4v3.5h3.4v-3.5H82.7z M69,81.4v3.5h3.4v-3.5H69z M69,81.4v3.5h3.4v-3.5H69z M69,95.4v3.5h3.4v-3.5H69z M82.7,81.4v3.5h3.4
	v-3.5H82.7z M82.7,95.4v3.5h3.4v-3.5H82.7z M96.3,81.4v3.5h3.4v-3.5H96.3z M96.3,81.4v3.5h3.4v-3.5H96.3z M82.7,81.4v3.5h3.4v-3.5
	H82.7z M82.7,95.4v3.5h3.4v-3.5H82.7z M69,81.4v3.5h3.4v-3.5H69z M69,95.4v3.5h3.4v-3.5H69z M60.4,74.4v29.8c0,1.9,1.5,3.5,3.4,3.5
	h31.2c-0.3-1.1-0.4-2.3-0.4-3.5c0-7.7,6.1-14,13.7-14V74.4H60.4z M75.8,98.9c0,1.9-1.5,3.5-3.4,3.5H69c-1.9,0-3.4-1.6-3.4-3.5v-3.5
	c0-1.9,1.5-3.5,3.4-3.5h3.4c1.9,0,3.4,1.6,3.4,3.5V98.9z M75.8,84.9c0,1.9-1.5,3.5-3.4,3.5H69c-1.9,0-3.4-1.6-3.4-3.5v-3.5
	c0-1.9,1.5-3.5,3.4-3.5h3.4c1.9,0,3.4,1.6,3.4,3.5V84.9z M89.5,98.9c0,1.9-1.5,3.5-3.4,3.5h-3.4c-1.9,0-3.4-1.6-3.4-3.5v-3.5
	c0-1.9,1.5-3.5,3.4-3.5h3.4c1.9,0,3.4,1.6,3.4,3.5V98.9z M89.5,84.9c0,1.9-1.5,3.5-3.4,3.5h-3.4c-1.9,0-3.4-1.6-3.4-3.5v-3.5
	c0-1.9,1.5-3.5,3.4-3.5h3.4c1.9,0,3.4,1.6,3.4,3.5V84.9z M103.2,84.9c0,1.9-1.5,3.5-3.4,3.5h-3.4c-1.9,0-3.4-1.6-3.4-3.5v-3.5
	c0-1.9,1.5-3.5,3.4-3.5h3.4c1.9,0,3.4,1.6,3.4,3.5V84.9z M96.3,84.9h3.4v-3.5h-3.4V84.9z M82.7,98.9h3.4v-3.5h-3.4V98.9z M82.7,84.9
	h3.4v-3.5h-3.4V84.9z M69,98.9h3.4v-3.5H69V98.9z M69,84.9h3.4v-3.5H69V84.9z M69,95.4v3.5h3.4v-3.5H69z M69,81.4v3.5h3.4v-3.5H69z
	 M82.7,81.4v3.5h3.4v-3.5H82.7z M96.3,81.4v3.5h3.4v-3.5H96.3z M96.3,81.4v3.5h3.4v-3.5H96.3z M82.7,81.4v3.5h3.4v-3.5H82.7z
	 M69,95.4v3.5h3.4v-3.5H69z M69,81.4v3.5h3.4v-3.5H69z M82.7,81.4v3.5h3.4v-3.5H82.7z M96.3,81.4v3.5h3.4v-3.5H96.3z M96.3,81.4v3.5
	h3.4v-3.5H96.3z M82.7,81.4v3.5h3.4v-3.5H82.7z M108.3,93.7c-5.7,0-10.3,4.7-10.3,10.5c0,5.8,4.6,10.5,10.3,10.5
	c5.7,0,10.3-4.7,10.3-10.5C118.6,98.3,114,93.7,108.3,93.7z M115.4,100.1l-9,9c-0.2,0.2-0.6,0.2-0.8,0l-3.9-3.9
	c-0.2-0.2-0.2-0.6,0-0.8c0.2-0.2,0.6-0.2,0.8,0l3.5,3.5l8.6-8.6c0.1-0.1,0.2-0.2,0.4-0.2c0.2,0,0.3,0.1,0.4,0.2
	C115.6,99.5,115.6,99.8,115.4,100.1z M108.3,93.7c-5.7,0-10.3,4.7-10.3,10.5c0,5.8,4.6,10.5,10.3,10.5c5.7,0,10.3-4.7,10.3-10.5
	C118.6,98.3,114,93.7,108.3,93.7z M115.4,100.1l-9,9c-0.2,0.2-0.6,0.2-0.8,0l-3.9-3.9c-0.2-0.2-0.2-0.6,0-0.8c0.2-0.2,0.6-0.2,0.8,0
	l3.5,3.5l8.6-8.6c0.1-0.1,0.2-0.2,0.4-0.2c0.2,0,0.3,0.1,0.4,0.2C115.6,99.5,115.6,99.8,115.4,100.1z M69,81.4v3.5h3.4v-3.5H69z
	 M82.7,81.4v3.5h3.4v-3.5H82.7z M96.3,81.4v3.5h3.4v-3.5H96.3z M96.3,81.4v3.5h3.4v-3.5H96.3z M82.7,81.4v3.5h3.4v-3.5H82.7z
	 M69,81.4v3.5h3.4v-3.5H69z M69,81.4v3.5h3.4v-3.5H69z M69,95.4v3.5h3.4v-3.5H69z M82.7,81.4v3.5h3.4v-3.5H82.7z M82.7,95.4v3.5h3.4
	v-3.5H82.7z M96.3,81.4v3.5h3.4v-3.5H96.3z M96.3,81.4v3.5h3.4v-3.5H96.3z M82.7,81.4v3.5h3.4v-3.5H82.7z M82.7,95.4v3.5h3.4v-3.5
	H82.7z M69,81.4v3.5h3.4v-3.5H69z M69,95.4v3.5h3.4v-3.5H69z M60.4,74.4v29.8c0,1.9,1.5,3.5,3.4,3.5h31.2c-0.3-1.1-0.4-2.3-0.4-3.5
	c0-7.7,6.1-14,13.7-14V74.4H60.4z M75.8,98.9c0,1.9-1.5,3.5-3.4,3.5H69c-1.9,0-3.4-1.6-3.4-3.5v-3.5c0-1.9,1.5-3.5,3.4-3.5h3.4
	c1.9,0,3.4,1.6,3.4,3.5V98.9z M75.8,84.9c0,1.9-1.5,3.5-3.4,3.5H69c-1.9,0-3.4-1.6-3.4-3.5v-3.5c0-1.9,1.5-3.5,3.4-3.5h3.4
	c1.9,0,3.4,1.6,3.4,3.5V84.9z M89.5,98.9c0,1.9-1.5,3.5-3.4,3.5h-3.4c-1.9,0-3.4-1.6-3.4-3.5v-3.5c0-1.9,1.5-3.5,3.4-3.5h3.4
	c1.9,0,3.4,1.6,3.4,3.5V98.9z M89.5,84.9c0,1.9-1.5,3.5-3.4,3.5h-3.4c-1.9,0-3.4-1.6-3.4-3.5v-3.5c0-1.9,1.5-3.5,3.4-3.5h3.4
	c1.9,0,3.4,1.6,3.4,3.5V84.9z M103.2,84.9c0,1.9-1.5,3.5-3.4,3.5h-3.4c-1.9,0-3.4-1.6-3.4-3.5v-3.5c0-1.9,1.5-3.5,3.4-3.5h3.4
	c1.9,0,3.4,1.6,3.4,3.5V84.9z M96.3,84.9h3.4v-3.5h-3.4V84.9z M82.7,98.9h3.4v-3.5h-3.4V98.9z M82.7,84.9h3.4v-3.5h-3.4V84.9z
	 M69,98.9h3.4v-3.5H69V98.9z M69,84.9h3.4v-3.5H69V84.9z M69,95.4v3.5h3.4v-3.5H69z M69,81.4v3.5h3.4v-3.5H69z M82.7,81.4v3.5h3.4
	v-3.5H82.7z M96.3,81.4v3.5h3.4v-3.5H96.3z M96.3,81.4v3.5h3.4v-3.5H96.3z M82.7,81.4v3.5h3.4v-3.5H82.7z M69,95.4v3.5h3.4v-3.5H69z
	 M69,81.4v3.5h3.4v-3.5H69z M82.7,81.4v3.5h3.4v-3.5H82.7z M96.3,81.4v3.5h3.4v-3.5H96.3z M104.9,58.7h-5.1v1.8c0,1-0.8,1.8-1.7,1.8
	c-0.9,0-1.7-0.8-1.7-1.8v-1.8h-24v1.8c0,1-0.8,1.8-1.7,1.8c-0.9,0-1.7-0.8-1.7-1.8v-1.8h-5.1c-1.9,0-3.4,1.6-3.4,3.5v8.8h47.9v-8.8
	C108.3,60.2,106.8,58.7,104.9,58.7z M96.3,81.4v3.5h3.4v-3.5H96.3z M82.7,81.4v3.5h3.4v-3.5H82.7z M69,81.4v3.5h3.4v-3.5H69z
	 M82.7,81.4v3.5h3.4v-3.5H82.7z M96.3,81.4v3.5h3.4v-3.5H96.3z M104.9,58.7h-5.1v1.8c0,1-0.8,1.8-1.7,1.8c-0.9,0-1.7-0.8-1.7-1.8
	v-1.8h-24v1.8c0,1-0.8,1.8-1.7,1.8c-0.9,0-1.7-0.8-1.7-1.8v-1.8h-5.1c-1.9,0-3.4,1.6-3.4,3.5v8.8h47.9v-8.8
	C108.3,60.2,106.8,58.7,104.9,58.7z M96.3,81.4v3.5h3.4v-3.5H96.3z M82.7,81.4v3.5h3.4v-3.5H82.7z M69,81.4v3.5h3.4v-3.5H69z
	 M69,81.4v3.5h3.4v-3.5H69z M69,95.4v3.5h3.4v-3.5H69z M82.7,81.4v3.5h3.4v-3.5H82.7z M82.7,95.4v3.5h3.4v-3.5H82.7z M96.3,81.4v3.5
	h3.4v-3.5H96.3z M96.3,81.4v3.5h3.4v-3.5H96.3z M82.7,81.4v3.5h3.4v-3.5H82.7z M82.7,95.4v3.5h3.4v-3.5H82.7z M69,81.4v3.5h3.4v-3.5
	H69z M69,95.4v3.5h3.4v-3.5H69z M60.4,74.4v29.8c0,1.9,1.5,3.5,3.4,3.5h31.2c-0.3-1.1-0.4-2.3-0.4-3.5c0-7.7,6.1-14,13.7-14V74.4
	H60.4z M75.8,98.9c0,1.9-1.5,3.5-3.4,3.5H69c-1.9,0-3.4-1.6-3.4-3.5v-3.5c0-1.9,1.5-3.5,3.4-3.5h3.4c1.9,0,3.4,1.6,3.4,3.5V98.9z
	 M75.8,84.9c0,1.9-1.5,3.5-3.4,3.5H69c-1.9,0-3.4-1.6-3.4-3.5v-3.5c0-1.9,1.5-3.5,3.4-3.5h3.4c1.9,0,3.4,1.6,3.4,3.5V84.9z
	 M89.5,98.9c0,1.9-1.5,3.5-3.4,3.5h-3.4c-1.9,0-3.4-1.6-3.4-3.5v-3.5c0-1.9,1.5-3.5,3.4-3.5h3.4c1.9,0,3.4,1.6,3.4,3.5V98.9z
	 M89.5,84.9c0,1.9-1.5,3.5-3.4,3.5h-3.4c-1.9,0-3.4-1.6-3.4-3.5v-3.5c0-1.9,1.5-3.5,3.4-3.5h3.4c1.9,0,3.4,1.6,3.4,3.5V84.9z
	 M103.2,84.9c0,1.9-1.5,3.5-3.4,3.5h-3.4c-1.9,0-3.4-1.6-3.4-3.5v-3.5c0-1.9,1.5-3.5,3.4-3.5h3.4c1.9,0,3.4,1.6,3.4,3.5V84.9z
	 M96.3,84.9h3.4v-3.5h-3.4V84.9z M82.7,98.9h3.4v-3.5h-3.4V98.9z M82.7,84.9h3.4v-3.5h-3.4V84.9z M69,98.9h3.4v-3.5H69V98.9z
	 M69,84.9h3.4v-3.5H69V84.9z M69,95.4v3.5h3.4v-3.5H69z M69,81.4v3.5h3.4v-3.5H69z M82.7,81.4v3.5h3.4v-3.5H82.7z M96.3,81.4v3.5
	h3.4v-3.5H96.3z M96.3,81.4v3.5h3.4v-3.5H96.3z M82.7,81.4v3.5h3.4v-3.5H82.7z M69,95.4v3.5h3.4v-3.5H69z M69,81.4v3.5h3.4v-3.5H69z
	 M108.3,93.7c-5.7,0-10.3,4.7-10.3,10.5c0,5.8,4.6,10.5,10.3,10.5c5.7,0,10.3-4.7,10.3-10.5C118.6,98.3,114,93.7,108.3,93.7z
	 M115.4,100.1l-9,9c-0.2,0.2-0.6,0.2-0.8,0l-3.9-3.9c-0.2-0.2-0.2-0.6,0-0.8c0.2-0.2,0.6-0.2,0.8,0l3.5,3.5l8.6-8.6
	c0.1-0.1,0.2-0.2,0.4-0.2c0.2,0,0.3,0.1,0.4,0.2C115.6,99.5,115.6,99.8,115.4,100.1z M108.3,93.7c-5.7,0-10.3,4.7-10.3,10.5
	c0,5.8,4.6,10.5,10.3,10.5c5.7,0,10.3-4.7,10.3-10.5C118.6,98.3,114,93.7,108.3,93.7z M115.4,100.1l-9,9c-0.2,0.2-0.6,0.2-0.8,0
	l-3.9-3.9c-0.2-0.2-0.2-0.6,0-0.8c0.2-0.2,0.6-0.2,0.8,0l3.5,3.5l8.6-8.6c0.1-0.1,0.2-0.2,0.4-0.2c0.2,0,0.3,0.1,0.4,0.2
	C115.6,99.5,115.6,99.8,115.4,100.1z M69,81.4v3.5h3.4v-3.5H69z M69,95.4v3.5h3.4v-3.5H69z M82.7,81.4v3.5h3.4v-3.5H82.7z
	 M82.7,95.4v3.5h3.4v-3.5H82.7z M96.3,81.4v3.5h3.4v-3.5H96.3z M96.3,81.4v3.5h3.4v-3.5H96.3z M82.7,81.4v3.5h3.4v-3.5H82.7z
	 M82.7,95.4v3.5h3.4v-3.5H82.7z M69,81.4v3.5h3.4v-3.5H69z M69,95.4v3.5h3.4v-3.5H69z M60.4,74.4v29.8c0,1.9,1.5,3.5,3.4,3.5h31.2
	c-0.3-1.1-0.4-2.3-0.4-3.5c0-7.7,6.1-14,13.7-14V74.4H60.4z M75.8,98.9c0,1.9-1.5,3.5-3.4,3.5H69c-1.9,0-3.4-1.6-3.4-3.5v-3.5
	c0-1.9,1.5-3.5,3.4-3.5h3.4c1.9,0,3.4,1.6,3.4,3.5V98.9z M75.8,84.9c0,1.9-1.5,3.5-3.4,3.5H69c-1.9,0-3.4-1.6-3.4-3.5v-3.5
	c0-1.9,1.5-3.5,3.4-3.5h3.4c1.9,0,3.4,1.6,3.4,3.5V84.9z M89.5,98.9c0,1.9-1.5,3.5-3.4,3.5h-3.4c-1.9,0-3.4-1.6-3.4-3.5v-3.5
	c0-1.9,1.5-3.5,3.4-3.5h3.4c1.9,0,3.4,1.6,3.4,3.5V98.9z M89.5,84.9c0,1.9-1.5,3.5-3.4,3.5h-3.4c-1.9,0-3.4-1.6-3.4-3.5v-3.5
	c0-1.9,1.5-3.5,3.4-3.5h3.4c1.9,0,3.4,1.6,3.4,3.5V84.9z M103.2,84.9c0,1.9-1.5,3.5-3.4,3.5h-3.4c-1.9,0-3.4-1.6-3.4-3.5v-3.5
	c0-1.9,1.5-3.5,3.4-3.5h3.4c1.9,0,3.4,1.6,3.4,3.5V84.9z M96.3,84.9h3.4v-3.5h-3.4V84.9z M82.7,98.9h3.4v-3.5h-3.4V98.9z M82.7,84.9
	h3.4v-3.5h-3.4V84.9z M69,98.9h3.4v-3.5H69V98.9z M69,84.9h3.4v-3.5H69V84.9z M69,95.4v3.5h3.4v-3.5H69z M69,81.4v3.5h3.4v-3.5H69z
	 M82.7,81.4v3.5h3.4v-3.5H82.7z M96.3,81.4v3.5h3.4v-3.5H96.3z M104.9,58.7h-5.1v1.8c0,1-0.8,1.8-1.7,1.8c-0.9,0-1.7-0.8-1.7-1.8
	v-1.8h-24v1.8c0,1-0.8,1.8-1.7,1.8c-0.9,0-1.7-0.8-1.7-1.8v-1.8h-5.1c-1.9,0-3.4,1.6-3.4,3.5v8.8h47.9v-8.8
	C108.3,60.2,106.8,58.7,104.9,58.7z M96.3,81.4v3.5h3.4v-3.5H96.3z M82.7,81.4v3.5h3.4v-3.5H82.7z M69,95.4v3.5h3.4v-3.5H69z
	 M69,81.4v3.5h3.4v-3.5H69z M69,81.4v3.5h3.4v-3.5H69z M69,95.4v3.5h3.4v-3.5H69z M82.7,81.4v3.5h3.4v-3.5H82.7z M82.7,95.4v3.5h3.4
	v-3.5H82.7z M96.3,81.4v3.5h3.4v-3.5H96.3z M104.9,58.7h-5.1v1.8c0,1-0.8,1.8-1.7,1.8c-0.9,0-1.7-0.8-1.7-1.8v-1.8h-24v1.8
	c0,1-0.8,1.8-1.7,1.8c-0.9,0-1.7-0.8-1.7-1.8v-1.8h-5.1c-1.9,0-3.4,1.6-3.4,3.5v8.8h47.9v-8.8C108.3,60.2,106.8,58.7,104.9,58.7z
	 M96.3,81.4v3.5h3.4v-3.5H96.3z M82.7,81.4v3.5h3.4v-3.5H82.7z M82.7,95.4v3.5h3.4v-3.5H82.7z M69,81.4v3.5h3.4v-3.5H69z M69,95.4
	v3.5h3.4v-3.5H69z M60.4,74.4v29.8c0,1.9,1.5,3.5,3.4,3.5h31.2c-0.3-1.1-0.4-2.3-0.4-3.5c0-7.7,6.1-14,13.7-14V74.4H60.4z
	 M75.8,98.9c0,1.9-1.5,3.5-3.4,3.5H69c-1.9,0-3.4-1.6-3.4-3.5v-3.5c0-1.9,1.5-3.5,3.4-3.5h3.4c1.9,0,3.4,1.6,3.4,3.5V98.9z
	 M75.8,84.9c0,1.9-1.5,3.5-3.4,3.5H69c-1.9,0-3.4-1.6-3.4-3.5v-3.5c0-1.9,1.5-3.5,3.4-3.5h3.4c1.9,0,3.4,1.6,3.4,3.5V84.9z
	 M89.5,98.9c0,1.9-1.5,3.5-3.4,3.5h-3.4c-1.9,0-3.4-1.6-3.4-3.5v-3.5c0-1.9,1.5-3.5,3.4-3.5h3.4c1.9,0,3.4,1.6,3.4,3.5V98.9z
	 M89.5,84.9c0,1.9-1.5,3.5-3.4,3.5h-3.4c-1.9,0-3.4-1.6-3.4-3.5v-3.5c0-1.9,1.5-3.5,3.4-3.5h3.4c1.9,0,3.4,1.6,3.4,3.5V84.9z
	 M103.2,84.9c0,1.9-1.5,3.5-3.4,3.5h-3.4c-1.9,0-3.4-1.6-3.4-3.5v-3.5c0-1.9,1.5-3.5,3.4-3.5h3.4c1.9,0,3.4,1.6,3.4,3.5V84.9z
	 M96.3,84.9h3.4v-3.5h-3.4V84.9z M82.7,98.9h3.4v-3.5h-3.4V98.9z M82.7,84.9h3.4v-3.5h-3.4V84.9z M69,98.9h3.4v-3.5H69V98.9z
	 M69,84.9h3.4v-3.5H69V84.9z M108.3,93.7c-5.7,0-10.3,4.7-10.3,10.5c0,5.8,4.6,10.5,10.3,10.5c5.7,0,10.3-4.7,10.3-10.5
	C118.6,98.3,114,93.7,108.3,93.7z M115.4,100.1l-9,9c-0.2,0.2-0.6,0.2-0.8,0l-3.9-3.9c-0.2-0.2-0.2-0.6,0-0.8c0.2-0.2,0.6-0.2,0.8,0
	l3.5,3.5l8.6-8.6c0.1-0.1,0.2-0.2,0.4-0.2c0.2,0,0.3,0.1,0.4,0.2C115.6,99.5,115.6,99.8,115.4,100.1z M108.3,93.7
	c-5.7,0-10.3,4.7-10.3,10.5c0,5.8,4.6,10.5,10.3,10.5c5.7,0,10.3-4.7,10.3-10.5C118.6,98.3,114,93.7,108.3,93.7z M115.4,100.1l-9,9
	c-0.2,0.2-0.6,0.2-0.8,0l-3.9-3.9c-0.2-0.2-0.2-0.6,0-0.8c0.2-0.2,0.6-0.2,0.8,0l3.5,3.5l8.6-8.6c0.1-0.1,0.2-0.2,0.4-0.2
	c0.2,0,0.3,0.1,0.4,0.2C115.6,99.5,115.6,99.8,115.4,100.1z M108.3,90.2V74.4H60.4v29.8c0,1.9,1.5,3.5,3.4,3.5h31.2
	c-0.3-1.1-0.4-2.3-0.4-3.5C94.6,96.4,100.8,90.2,108.3,90.2z M75.8,98.9c0,1.9-1.5,3.5-3.4,3.5H69c-1.9,0-3.4-1.6-3.4-3.5v-3.5
	c0-1.9,1.5-3.5,3.4-3.5h3.4c1.9,0,3.4,1.6,3.4,3.5V98.9z M75.8,84.9c0,1.9-1.5,3.5-3.4,3.5H69c-1.9,0-3.4-1.6-3.4-3.5v-3.5
	c0-1.9,1.5-3.5,3.4-3.5h3.4c1.9,0,3.4,1.6,3.4,3.5V84.9z M89.5,98.9c0,1.9-1.5,3.5-3.4,3.5h-3.4c-1.9,0-3.4-1.6-3.4-3.5v-3.5
	c0-1.9,1.5-3.5,3.4-3.5h3.4c1.9,0,3.4,1.6,3.4,3.5V98.9z M89.5,84.9c0,1.9-1.5,3.5-3.4,3.5h-3.4c-1.9,0-3.4-1.6-3.4-3.5v-3.5
	c0-1.9,1.5-3.5,3.4-3.5h3.4c1.9,0,3.4,1.6,3.4,3.5V84.9z M92.9,84.9v-3.5c0-1.9,1.5-3.5,3.4-3.5h3.4c1.9,0,3.4,1.6,3.4,3.5v3.5
	c0,1.9-1.5,3.5-3.4,3.5h-3.4C94.5,88.4,92.9,86.8,92.9,84.9z M108.3,62.2c0-1.9-1.5-3.5-3.4-3.5h-5.1v1.8c0,1-0.8,1.8-1.7,1.8
	c-0.9,0-1.7-0.8-1.7-1.8v-1.8h-24v1.8c0,1-0.8,1.8-1.7,1.8c-0.9,0-1.7-0.8-1.7-1.8v-1.8h-5.1c-1.9,0-3.4,1.6-3.4,3.5v8.8h47.9V62.2z
	 M99.8,81.4h-3.4v3.5h3.4V81.4z M82.7,98.9h3.4v-3.5h-3.4V98.9z M82.7,84.9h3.4v-3.5h-3.4V84.9z M69,98.9h3.4v-3.5H69V98.9z
	 M69,84.9h3.4v-3.5H69V84.9z M89.8,15.2C52.4,15.2,22,45.5,22,83c0,37.4,30.4,67.8,67.8,67.8s67.8-30.4,67.8-67.8
	C157.6,45.5,127.3,15.2,89.8,15.2z M108.3,118.2c-5.1,0-9.5-2.8-11.9-7H63.8c-3.8,0-6.8-3.1-6.8-7v-42c0-3.9,3.1-7,6.8-7H69v-5.2
	c0-1,0.8-1.8,1.7-1.8c1,0,1.7,0.8,1.7,1.8v5.2h24v-5.2c0-1,0.8-1.8,1.7-1.8c1,0,1.7,0.8,1.7,1.8v5.2h5.1c3.8,0,6.8,3.1,6.8,7v28.4
	c5.9,1.6,10.3,7,10.3,13.6C122,111.9,115.9,118.2,108.3,118.2z M108.3,93.7c-5.7,0-10.3,4.7-10.3,10.5c0,5.8,4.6,10.5,10.3,10.5
	c5.7,0,10.3-4.7,10.3-10.5C118.6,98.3,114,93.7,108.3,93.7z M115.4,100.1l-9,9c-0.2,0.2-0.6,0.2-0.8,0l-3.9-3.9
	c-0.2-0.2-0.2-0.6,0-0.8c0.2-0.2,0.6-0.2,0.8,0l3.5,3.5l8.6-8.6c0.1-0.1,0.2-0.2,0.4-0.2c0.2,0,0.3,0.1,0.4,0.2
	C115.6,99.5,115.6,99.8,115.4,100.1z M108.3,90.2V74.4H60.4v29.8c0,1.9,1.5,3.5,3.4,3.5h31.2c-0.3-1.1-0.4-2.3-0.4-3.5
	C94.6,96.4,100.8,90.2,108.3,90.2z M75.8,98.9c0,1.9-1.5,3.5-3.4,3.5H69c-1.9,0-3.4-1.6-3.4-3.5v-3.5c0-1.9,1.5-3.5,3.4-3.5h3.4
	c1.9,0,3.4,1.6,3.4,3.5V98.9z M75.8,84.9c0,1.9-1.5,3.5-3.4,3.5H69c-1.9,0-3.4-1.6-3.4-3.5v-3.5c0-1.9,1.5-3.5,3.4-3.5h3.4
	c1.9,0,3.4,1.6,3.4,3.5V84.9z M89.5,98.9c0,1.9-1.5,3.5-3.4,3.5h-3.4c-1.9,0-3.4-1.6-3.4-3.5v-3.5c0-1.9,1.5-3.5,3.4-3.5h3.4
	c1.9,0,3.4,1.6,3.4,3.5V98.9z M89.5,84.9c0,1.9-1.5,3.5-3.4,3.5h-3.4c-1.9,0-3.4-1.6-3.4-3.5v-3.5c0-1.9,1.5-3.5,3.4-3.5h3.4
	c1.9,0,3.4,1.6,3.4,3.5V84.9z M92.9,84.9v-3.5c0-1.9,1.5-3.5,3.4-3.5h3.4c1.9,0,3.4,1.6,3.4,3.5v3.5c0,1.9-1.5,3.5-3.4,3.5h-3.4
	C94.5,88.4,92.9,86.8,92.9,84.9z M108.3,62.2c0-1.9-1.5-3.5-3.4-3.5h-5.1v1.8c0,1-0.8,1.8-1.7,1.8c-0.9,0-1.7-0.8-1.7-1.8v-1.8h-24
	v1.8c0,1-0.8,1.8-1.7,1.8c-0.9,0-1.7-0.8-1.7-1.8v-1.8h-5.1c-1.9,0-3.4,1.6-3.4,3.5v8.8h47.9V62.2z M99.8,81.4h-3.4v3.5h3.4V81.4z
	 M82.7,98.9h3.4v-3.5h-3.4V98.9z M82.7,84.9h3.4v-3.5h-3.4V84.9z M69,98.9h3.4v-3.5H69V98.9z M69,84.9h3.4v-3.5H69V84.9z M69,81.4
	v3.5h3.4v-3.5H69z M69,95.4v3.5h3.4v-3.5H69z M82.7,81.4v3.5h3.4v-3.5H82.7z M82.7,95.4v3.5h3.4v-3.5H82.7z M96.3,81.4v3.5h3.4v-3.5
	H96.3z M104.9,58.7h-5.1v1.8c0,1-0.8,1.8-1.7,1.8c-0.9,0-1.7-0.8-1.7-1.8v-1.8h-24v1.8c0,1-0.8,1.8-1.7,1.8c-0.9,0-1.7-0.8-1.7-1.8
	v-1.8h-5.1c-1.9,0-3.4,1.6-3.4,3.5v8.8h47.9v-8.8C108.3,60.2,106.8,58.7,104.9,58.7z M96.3,81.4v3.5h3.4v-3.5H96.3z M82.7,81.4v3.5
	h3.4v-3.5H82.7z M82.7,95.4v3.5h3.4v-3.5H82.7z M69,81.4v3.5h3.4v-3.5H69z M69,95.4v3.5h3.4v-3.5H69z M60.4,74.4v29.8
	c0,1.9,1.5,3.5,3.4,3.5h31.2c-0.3-1.1-0.4-2.3-0.4-3.5c0-7.7,6.1-14,13.7-14V74.4H60.4z M75.8,98.9c0,1.9-1.5,3.5-3.4,3.5H69
	c-1.9,0-3.4-1.6-3.4-3.5v-3.5c0-1.9,1.5-3.5,3.4-3.5h3.4c1.9,0,3.4,1.6,3.4,3.5V98.9z M75.8,84.9c0,1.9-1.5,3.5-3.4,3.5H69
	c-1.9,0-3.4-1.6-3.4-3.5v-3.5c0-1.9,1.5-3.5,3.4-3.5h3.4c1.9,0,3.4,1.6,3.4,3.5V84.9z M89.5,98.9c0,1.9-1.5,3.5-3.4,3.5h-3.4
	c-1.9,0-3.4-1.6-3.4-3.5v-3.5c0-1.9,1.5-3.5,3.4-3.5h3.4c1.9,0,3.4,1.6,3.4,3.5V98.9z M89.5,84.9c0,1.9-1.5,3.5-3.4,3.5h-3.4
	c-1.9,0-3.4-1.6-3.4-3.5v-3.5c0-1.9,1.5-3.5,3.4-3.5h3.4c1.9,0,3.4,1.6,3.4,3.5V84.9z M103.2,84.9c0,1.9-1.5,3.5-3.4,3.5h-3.4
	c-1.9,0-3.4-1.6-3.4-3.5v-3.5c0-1.9,1.5-3.5,3.4-3.5h3.4c1.9,0,3.4,1.6,3.4,3.5V84.9z M96.3,84.9h3.4v-3.5h-3.4V84.9z M82.7,98.9
	h3.4v-3.5h-3.4V98.9z M82.7,84.9h3.4v-3.5h-3.4V84.9z M69,98.9h3.4v-3.5H69V98.9z M69,84.9h3.4v-3.5H69V84.9z M108.3,93.7
	c-5.7,0-10.3,4.7-10.3,10.5c0,5.8,4.6,10.5,10.3,10.5c5.7,0,10.3-4.7,10.3-10.5C118.6,98.3,114,93.7,108.3,93.7z M115.4,100.1l-9,9
	c-0.2,0.2-0.6,0.2-0.8,0l-3.9-3.9c-0.2-0.2-0.2-0.6,0-0.8c0.2-0.2,0.6-0.2,0.8,0l3.5,3.5l8.6-8.6c0.1-0.1,0.2-0.2,0.4-0.2
	c0.2,0,0.3,0.1,0.4,0.2C115.6,99.5,115.6,99.8,115.4,100.1z M108.3,93.7c-5.7,0-10.3,4.7-10.3,10.5c0,5.8,4.6,10.5,10.3,10.5
	c5.7,0,10.3-4.7,10.3-10.5C118.6,98.3,114,93.7,108.3,93.7z M115.4,100.1l-9,9c-0.2,0.2-0.6,0.2-0.8,0l-3.9-3.9
	c-0.2-0.2-0.2-0.6,0-0.8c0.2-0.2,0.6-0.2,0.8,0l3.5,3.5l8.6-8.6c0.1-0.1,0.2-0.2,0.4-0.2c0.2,0,0.3,0.1,0.4,0.2
	C115.6,99.5,115.6,99.8,115.4,100.1z M69,81.4v3.5h3.4v-3.5H69z M69,95.4v3.5h3.4v-3.5H69z M82.7,81.4v3.5h3.4v-3.5H82.7z
	 M82.7,95.4v3.5h3.4v-3.5H82.7z M96.3,81.4v3.5h3.4v-3.5H96.3z M96.3,81.4v3.5h3.4v-3.5H96.3z M82.7,81.4v3.5h3.4v-3.5H82.7z
	 M82.7,95.4v3.5h3.4v-3.5H82.7z M69,81.4v3.5h3.4v-3.5H69z M69,95.4v3.5h3.4v-3.5H69z M60.4,74.4v29.8c0,1.9,1.5,3.5,3.4,3.5h31.2
	c-0.3-1.1-0.4-2.3-0.4-3.5c0-7.7,6.1-14,13.7-14V74.4H60.4z M75.8,98.9c0,1.9-1.5,3.5-3.4,3.5H69c-1.9,0-3.4-1.6-3.4-3.5v-3.5
	c0-1.9,1.5-3.5,3.4-3.5h3.4c1.9,0,3.4,1.6,3.4,3.5V98.9z M75.8,84.9c0,1.9-1.5,3.5-3.4,3.5H69c-1.9,0-3.4-1.6-3.4-3.5v-3.5
	c0-1.9,1.5-3.5,3.4-3.5h3.4c1.9,0,3.4,1.6,3.4,3.5V84.9z M89.5,98.9c0,1.9-1.5,3.5-3.4,3.5h-3.4c-1.9,0-3.4-1.6-3.4-3.5v-3.5
	c0-1.9,1.5-3.5,3.4-3.5h3.4c1.9,0,3.4,1.6,3.4,3.5V98.9z M89.5,84.9c0,1.9-1.5,3.5-3.4,3.5h-3.4c-1.9,0-3.4-1.6-3.4-3.5v-3.5
	c0-1.9,1.5-3.5,3.4-3.5h3.4c1.9,0,3.4,1.6,3.4,3.5V84.9z M103.2,84.9c0,1.9-1.5,3.5-3.4,3.5h-3.4c-1.9,0-3.4-1.6-3.4-3.5v-3.5
	c0-1.9,1.5-3.5,3.4-3.5h3.4c1.9,0,3.4,1.6,3.4,3.5V84.9z M96.3,84.9h3.4v-3.5h-3.4V84.9z M82.7,98.9h3.4v-3.5h-3.4V98.9z M82.7,84.9
	h3.4v-3.5h-3.4V84.9z M69,98.9h3.4v-3.5H69V98.9z M69,84.9h3.4v-3.5H69V84.9z M69,95.4v3.5h3.4v-3.5H69z M69,81.4v3.5h3.4v-3.5H69z
	 M82.7,81.4v3.5h3.4v-3.5H82.7z M96.3,81.4v3.5h3.4v-3.5H96.3z M104.9,58.7h-5.1v1.8c0,1-0.8,1.8-1.7,1.8c-0.9,0-1.7-0.8-1.7-1.8
	v-1.8h-24v1.8c0,1-0.8,1.8-1.7,1.8c-0.9,0-1.7-0.8-1.7-1.8v-1.8h-5.1c-1.9,0-3.4,1.6-3.4,3.5v8.8h47.9v-8.8
	C108.3,60.2,106.8,58.7,104.9,58.7z M96.3,81.4v3.5h3.4v-3.5H96.3z M82.7,81.4v3.5h3.4v-3.5H82.7z M69,95.4v3.5h3.4v-3.5H69z
	 M69,81.4v3.5h3.4v-3.5H69z M69,81.4v3.5h3.4v-3.5H69z M82.7,81.4v3.5h3.4v-3.5H82.7z M96.3,81.4v3.5h3.4v-3.5H96.3z M104.9,58.7
	h-5.1v1.8c0,1-0.8,1.8-1.7,1.8c-0.9,0-1.7-0.8-1.7-1.8v-1.8h-24v1.8c0,1-0.8,1.8-1.7,1.8c-0.9,0-1.7-0.8-1.7-1.8v-1.8h-5.1
	c-1.9,0-3.4,1.6-3.4,3.5v8.8h47.9v-8.8C108.3,60.2,106.8,58.7,104.9,58.7z M96.3,81.4v3.5h3.4v-3.5H96.3z M82.7,81.4v3.5h3.4v-3.5
	H82.7z M69,81.4v3.5h3.4v-3.5H69z M69,81.4v3.5h3.4v-3.5H69z M69,95.4v3.5h3.4v-3.5H69z M82.7,81.4v3.5h3.4v-3.5H82.7z M82.7,95.4
	v3.5h3.4v-3.5H82.7z M96.3,81.4v3.5h3.4v-3.5H96.3z M96.3,81.4v3.5h3.4v-3.5H96.3z M82.7,81.4v3.5h3.4v-3.5H82.7z M82.7,95.4v3.5
	h3.4v-3.5H82.7z M69,81.4v3.5h3.4v-3.5H69z M69,95.4v3.5h3.4v-3.5H69z M60.4,74.4v29.8c0,1.9,1.5,3.5,3.4,3.5h31.2
	c-0.3-1.1-0.4-2.3-0.4-3.5c0-7.7,6.1-14,13.7-14V74.4H60.4z M75.8,98.9c0,1.9-1.5,3.5-3.4,3.5H69c-1.9,0-3.4-1.6-3.4-3.5v-3.5
	c0-1.9,1.5-3.5,3.4-3.5h3.4c1.9,0,3.4,1.6,3.4,3.5V98.9z M75.8,84.9c0,1.9-1.5,3.5-3.4,3.5H69c-1.9,0-3.4-1.6-3.4-3.5v-3.5
	c0-1.9,1.5-3.5,3.4-3.5h3.4c1.9,0,3.4,1.6,3.4,3.5V84.9z M89.5,98.9c0,1.9-1.5,3.5-3.4,3.5h-3.4c-1.9,0-3.4-1.6-3.4-3.5v-3.5
	c0-1.9,1.5-3.5,3.4-3.5h3.4c1.9,0,3.4,1.6,3.4,3.5V98.9z M89.5,84.9c0,1.9-1.5,3.5-3.4,3.5h-3.4c-1.9,0-3.4-1.6-3.4-3.5v-3.5
	c0-1.9,1.5-3.5,3.4-3.5h3.4c1.9,0,3.4,1.6,3.4,3.5V84.9z M103.2,84.9c0,1.9-1.5,3.5-3.4,3.5h-3.4c-1.9,0-3.4-1.6-3.4-3.5v-3.5
	c0-1.9,1.5-3.5,3.4-3.5h3.4c1.9,0,3.4,1.6,3.4,3.5V84.9z M96.3,84.9h3.4v-3.5h-3.4V84.9z M82.7,98.9h3.4v-3.5h-3.4V98.9z M82.7,84.9
	h3.4v-3.5h-3.4V84.9z M69,98.9h3.4v-3.5H69V98.9z M69,84.9h3.4v-3.5H69V84.9z M69,95.4v3.5h3.4v-3.5H69z M69,81.4v3.5h3.4v-3.5H69z
	 M82.7,81.4v3.5h3.4v-3.5H82.7z M96.3,81.4v3.5h3.4v-3.5H96.3z M96.3,81.4v3.5h3.4v-3.5H96.3z M82.7,81.4v3.5h3.4v-3.5H82.7z
	 M69,95.4v3.5h3.4v-3.5H69z M69,81.4v3.5h3.4v-3.5H69z M108.3,93.7c-5.7,0-10.3,4.7-10.3,10.5c0,5.8,4.6,10.5,10.3,10.5
	c5.7,0,10.3-4.7,10.3-10.5C118.6,98.3,114,93.7,108.3,93.7z M115.4,100.1l-9,9c-0.2,0.2-0.6,0.2-0.8,0l-3.9-3.9
	c-0.2-0.2-0.2-0.6,0-0.8c0.2-0.2,0.6-0.2,0.8,0l3.5,3.5l8.6-8.6c0.1-0.1,0.2-0.2,0.4-0.2c0.2,0,0.3,0.1,0.4,0.2
	C115.6,99.5,115.6,99.8,115.4,100.1z M108.3,93.7c-5.7,0-10.3,4.7-10.3,10.5c0,5.8,4.6,10.5,10.3,10.5c5.7,0,10.3-4.7,10.3-10.5
	C118.6,98.3,114,93.7,108.3,93.7z M115.4,100.1l-9,9c-0.2,0.2-0.6,0.2-0.8,0l-3.9-3.9c-0.2-0.2-0.2-0.6,0-0.8c0.2-0.2,0.6-0.2,0.8,0
	l3.5,3.5l8.6-8.6c0.1-0.1,0.2-0.2,0.4-0.2c0.2,0,0.3,0.1,0.4,0.2C115.6,99.5,115.6,99.8,115.4,100.1z M69,81.4v3.5h3.4v-3.5H69z
	 M82.7,81.4v3.5h3.4v-3.5H82.7z M96.3,81.4v3.5h3.4v-3.5H96.3z M96.3,81.4v3.5h3.4v-3.5H96.3z M82.7,81.4v3.5h3.4v-3.5H82.7z
	 M69,81.4v3.5h3.4v-3.5H69z M69,81.4v3.5h3.4v-3.5H69z M69,95.4v3.5h3.4v-3.5H69z M82.7,81.4v3.5h3.4v-3.5H82.7z M82.7,95.4v3.5h3.4
	v-3.5H82.7z M96.3,81.4v3.5h3.4v-3.5H96.3z M96.3,81.4v3.5h3.4v-3.5H96.3z M82.7,81.4v3.5h3.4v-3.5H82.7z M82.7,95.4v3.5h3.4v-3.5
	H82.7z M69,81.4v3.5h3.4v-3.5H69z M69,95.4v3.5h3.4v-3.5H69z M60.4,74.4v29.8c0,1.9,1.5,3.5,3.4,3.5h31.2c-0.3-1.1-0.4-2.3-0.4-3.5
	c0-7.7,6.1-14,13.7-14V74.4H60.4z M75.8,98.9c0,1.9-1.5,3.5-3.4,3.5H69c-1.9,0-3.4-1.6-3.4-3.5v-3.5c0-1.9,1.5-3.5,3.4-3.5h3.4
	c1.9,0,3.4,1.6,3.4,3.5V98.9z M75.8,84.9c0,1.9-1.5,3.5-3.4,3.5H69c-1.9,0-3.4-1.6-3.4-3.5v-3.5c0-1.9,1.5-3.5,3.4-3.5h3.4
	c1.9,0,3.4,1.6,3.4,3.5V84.9z M89.5,98.9c0,1.9-1.5,3.5-3.4,3.5h-3.4c-1.9,0-3.4-1.6-3.4-3.5v-3.5c0-1.9,1.5-3.5,3.4-3.5h3.4
	c1.9,0,3.4,1.6,3.4,3.5V98.9z M89.5,84.9c0,1.9-1.5,3.5-3.4,3.5h-3.4c-1.9,0-3.4-1.6-3.4-3.5v-3.5c0-1.9,1.5-3.5,3.4-3.5h3.4
	c1.9,0,3.4,1.6,3.4,3.5V84.9z M103.2,84.9c0,1.9-1.5,3.5-3.4,3.5h-3.4c-1.9,0-3.4-1.6-3.4-3.5v-3.5c0-1.9,1.5-3.5,3.4-3.5h3.4
	c1.9,0,3.4,1.6,3.4,3.5V84.9z M96.3,84.9h3.4v-3.5h-3.4V84.9z M82.7,98.9h3.4v-3.5h-3.4V98.9z M82.7,84.9h3.4v-3.5h-3.4V84.9z
	 M69,98.9h3.4v-3.5H69V98.9z M69,84.9h3.4v-3.5H69V84.9z M69,95.4v3.5h3.4v-3.5H69z M69,81.4v3.5h3.4v-3.5H69z M82.7,81.4v3.5h3.4
	v-3.5H82.7z M96.3,81.4v3.5h3.4v-3.5H96.3z M96.3,81.4v3.5h3.4v-3.5H96.3z M82.7,81.4v3.5h3.4v-3.5H82.7z M69,95.4v3.5h3.4v-3.5H69z
	 M69,81.4v3.5h3.4v-3.5H69z M82.7,81.4v3.5h3.4v-3.5H82.7z M96.3,81.4v3.5h3.4v-3.5H96.3z M104.9,58.7h-5.1v1.8c0,1-0.8,1.8-1.7,1.8
	c-0.9,0-1.7-0.8-1.7-1.8v-1.8h-24v1.8c0,1-0.8,1.8-1.7,1.8c-0.9,0-1.7-0.8-1.7-1.8v-1.8h-5.1c-1.9,0-3.4,1.6-3.4,3.5v8.8h47.9v-8.8
	C108.3,60.2,106.8,58.7,104.9,58.7z M96.3,81.4v3.5h3.4v-3.5H96.3z M82.7,81.4v3.5h3.4v-3.5H82.7z M96.3,81.4v3.5h3.4v-3.5H96.3z
	 M104.9,58.7h-5.1v1.8c0,1-0.8,1.8-1.7,1.8c-0.9,0-1.7-0.8-1.7-1.8v-1.8h-24v1.8c0,1-0.8,1.8-1.7,1.8c-0.9,0-1.7-0.8-1.7-1.8v-1.8
	h-5.1c-1.9,0-3.4,1.6-3.4,3.5v8.8h47.9v-8.8C108.3,60.2,106.8,58.7,104.9,58.7z M96.3,81.4v3.5h3.4v-3.5H96.3z M69,81.4v3.5h3.4
	v-3.5H69z M82.7,81.4v3.5h3.4v-3.5H82.7z M96.3,81.4v3.5h3.4v-3.5H96.3z M96.3,81.4v3.5h3.4v-3.5H96.3z M82.7,81.4v3.5h3.4v-3.5
	H82.7z M69,81.4v3.5h3.4v-3.5H69z M69,81.4v3.5h3.4v-3.5H69z M69,95.4v3.5h3.4v-3.5H69z M82.7,81.4v3.5h3.4v-3.5H82.7z M82.7,95.4
	v3.5h3.4v-3.5H82.7z M96.3,81.4v3.5h3.4v-3.5H96.3z M96.3,81.4v3.5h3.4v-3.5H96.3z M82.7,81.4v3.5h3.4v-3.5H82.7z M82.7,95.4v3.5
	h3.4v-3.5H82.7z M69,81.4v3.5h3.4v-3.5H69z M69,95.4v3.5h3.4v-3.5H69z M60.4,74.4v29.8c0,1.9,1.5,3.5,3.4,3.5h31.2
	c-0.3-1.1-0.4-2.3-0.4-3.5c0-7.7,6.1-14,13.7-14V74.4H60.4z M75.8,98.9c0,1.9-1.5,3.5-3.4,3.5H69c-1.9,0-3.4-1.6-3.4-3.5v-3.5
	c0-1.9,1.5-3.5,3.4-3.5h3.4c1.9,0,3.4,1.6,3.4,3.5V98.9z M75.8,84.9c0,1.9-1.5,3.5-3.4,3.5H69c-1.9,0-3.4-1.6-3.4-3.5v-3.5
	c0-1.9,1.5-3.5,3.4-3.5h3.4c1.9,0,3.4,1.6,3.4,3.5V84.9z M89.5,98.9c0,1.9-1.5,3.5-3.4,3.5h-3.4c-1.9,0-3.4-1.6-3.4-3.5v-3.5
	c0-1.9,1.5-3.5,3.4-3.5h3.4c1.9,0,3.4,1.6,3.4,3.5V98.9z M89.5,84.9c0,1.9-1.5,3.5-3.4,3.5h-3.4c-1.9,0-3.4-1.6-3.4-3.5v-3.5
	c0-1.9,1.5-3.5,3.4-3.5h3.4c1.9,0,3.4,1.6,3.4,3.5V84.9z M103.2,84.9c0,1.9-1.5,3.5-3.4,3.5h-3.4c-1.9,0-3.4-1.6-3.4-3.5v-3.5
	c0-1.9,1.5-3.5,3.4-3.5h3.4c1.9,0,3.4,1.6,3.4,3.5V84.9z M96.3,84.9h3.4v-3.5h-3.4V84.9z M82.7,98.9h3.4v-3.5h-3.4V98.9z M82.7,84.9
	h3.4v-3.5h-3.4V84.9z M69,98.9h3.4v-3.5H69V98.9z M69,84.9h3.4v-3.5H69V84.9z M69,95.4v3.5h3.4v-3.5H69z M69,81.4v3.5h3.4v-3.5H69z
	 M82.7,81.4v3.5h3.4v-3.5H82.7z M96.3,81.4v3.5h3.4v-3.5H96.3z M96.3,81.4v3.5h3.4v-3.5H96.3z M82.7,81.4v3.5h3.4v-3.5H82.7z
	 M69,95.4v3.5h3.4v-3.5H69z M69,81.4v3.5h3.4v-3.5H69z M82.7,81.4v3.5h3.4v-3.5H82.7z M96.3,81.4v3.5h3.4v-3.5H96.3z M96.3,81.4v3.5
	h3.4v-3.5H96.3z M82.7,81.4v3.5h3.4v-3.5H82.7z M108.3,93.7c-5.7,0-10.3,4.7-10.3,10.5c0,5.8,4.6,10.5,10.3,10.5
	c5.7,0,10.3-4.7,10.3-10.5C118.6,98.3,114,93.7,108.3,93.7z M115.4,100.1l-9,9c-0.2,0.2-0.6,0.2-0.8,0l-3.9-3.9
	c-0.2-0.2-0.2-0.6,0-0.8c0.2-0.2,0.6-0.2,0.8,0l3.5,3.5l8.6-8.6c0.1-0.1,0.2-0.2,0.4-0.2c0.2,0,0.3,0.1,0.4,0.2
	C115.6,99.5,115.6,99.8,115.4,100.1z M108.3,93.7c-5.7,0-10.3,4.7-10.3,10.5c0,5.8,4.6,10.5,10.3,10.5c5.7,0,10.3-4.7,10.3-10.5
	C118.6,98.3,114,93.7,108.3,93.7z M115.4,100.1l-9,9c-0.2,0.2-0.6,0.2-0.8,0l-3.9-3.9c-0.2-0.2-0.2-0.6,0-0.8c0.2-0.2,0.6-0.2,0.8,0
	l3.5,3.5l8.6-8.6c0.1-0.1,0.2-0.2,0.4-0.2c0.2,0,0.3,0.1,0.4,0.2C115.6,99.5,115.6,99.8,115.4,100.1z M96.3,81.4v3.5h3.4v-3.5H96.3z
	 M96.3,81.4v3.5h3.4v-3.5H96.3z M69,81.4v3.5h3.4v-3.5H69z M82.7,81.4v3.5h3.4v-3.5H82.7z M96.3,81.4v3.5h3.4v-3.5H96.3z M96.3,81.4
	v3.5h3.4v-3.5H96.3z M82.7,81.4v3.5h3.4v-3.5H82.7z M69,81.4v3.5h3.4v-3.5H69z M69,81.4v3.5h3.4v-3.5H69z M69,95.4v3.5h3.4v-3.5H69z
	 M82.7,81.4v3.5h3.4v-3.5H82.7z M82.7,95.4v3.5h3.4v-3.5H82.7z M96.3,81.4v3.5h3.4v-3.5H96.3z M96.3,81.4v3.5h3.4v-3.5H96.3z
	 M82.7,81.4v3.5h3.4v-3.5H82.7z M82.7,95.4v3.5h3.4v-3.5H82.7z M69,81.4v3.5h3.4v-3.5H69z M69,95.4v3.5h3.4v-3.5H69z M60.4,74.4
	v29.8c0,1.9,1.5,3.5,3.4,3.5h31.2c-0.3-1.1-0.4-2.3-0.4-3.5c0-7.7,6.1-14,13.7-14V74.4H60.4z M75.8,98.9c0,1.9-1.5,3.5-3.4,3.5H69
	c-1.9,0-3.4-1.6-3.4-3.5v-3.5c0-1.9,1.5-3.5,3.4-3.5h3.4c1.9,0,3.4,1.6,3.4,3.5V98.9z M75.8,84.9c0,1.9-1.5,3.5-3.4,3.5H69
	c-1.9,0-3.4-1.6-3.4-3.5v-3.5c0-1.9,1.5-3.5,3.4-3.5h3.4c1.9,0,3.4,1.6,3.4,3.5V84.9z M89.5,98.9c0,1.9-1.5,3.5-3.4,3.5h-3.4
	c-1.9,0-3.4-1.6-3.4-3.5v-3.5c0-1.9,1.5-3.5,3.4-3.5h3.4c1.9,0,3.4,1.6,3.4,3.5V98.9z M89.5,84.9c0,1.9-1.5,3.5-3.4,3.5h-3.4
	c-1.9,0-3.4-1.6-3.4-3.5v-3.5c0-1.9,1.5-3.5,3.4-3.5h3.4c1.9,0,3.4,1.6,3.4,3.5V84.9z M103.2,84.9c0,1.9-1.5,3.5-3.4,3.5h-3.4
	c-1.9,0-3.4-1.6-3.4-3.5v-3.5c0-1.9,1.5-3.5,3.4-3.5h3.4c1.9,0,3.4,1.6,3.4,3.5V84.9z M96.3,84.9h3.4v-3.5h-3.4V84.9z M82.7,98.9
	h3.4v-3.5h-3.4V98.9z M82.7,84.9h3.4v-3.5h-3.4V84.9z M69,98.9h3.4v-3.5H69V98.9z M69,84.9h3.4v-3.5H69V84.9z M69,95.4v3.5h3.4v-3.5
	H69z M69,81.4v3.5h3.4v-3.5H69z M82.7,81.4v3.5h3.4v-3.5H82.7z M96.3,81.4v3.5h3.4v-3.5H96.3z M96.3,81.4v3.5h3.4v-3.5H96.3z
	 M82.7,81.4v3.5h3.4v-3.5H82.7z M69,95.4v3.5h3.4v-3.5H69z M69,81.4v3.5h3.4v-3.5H69z M82.7,81.4v3.5h3.4v-3.5H82.7z M96.3,81.4v3.5
	h3.4v-3.5H96.3z M96.3,81.4v3.5h3.4v-3.5H96.3z M82.7,81.4v3.5h3.4v-3.5H82.7z M104.9,58.7h-5.1v1.8c0,1-0.8,1.8-1.7,1.8
	c-0.9,0-1.7-0.8-1.7-1.8v-1.8h-24v1.8c0,1-0.8,1.8-1.7,1.8c-0.9,0-1.7-0.8-1.7-1.8v-1.8h-5.1c-1.9,0-3.4,1.6-3.4,3.5v8.8h47.9v-8.8
	C108.3,60.2,106.8,58.7,104.9,58.7z M104.9,58.7h-5.1v1.8c0,1-0.8,1.8-1.7,1.8c-0.9,0-1.7-0.8-1.7-1.8v-1.8h-24v1.8
	c0,1-0.8,1.8-1.7,1.8c-0.9,0-1.7-0.8-1.7-1.8v-1.8h-5.1c-1.9,0-3.4,1.6-3.4,3.5v8.8h47.9v-8.8C108.3,60.2,106.8,58.7,104.9,58.7z
	 M96.3,81.4v3.5h3.4v-3.5H96.3z M96.3,81.4v3.5h3.4v-3.5H96.3z M69,81.4v3.5h3.4v-3.5H69z M82.7,81.4v3.5h3.4v-3.5H82.7z M96.3,81.4
	v3.5h3.4v-3.5H96.3z M96.3,81.4v3.5h3.4v-3.5H96.3z M82.7,81.4v3.5h3.4v-3.5H82.7z M69,81.4v3.5h3.4v-3.5H69z M69,81.4v3.5h3.4v-3.5
	H69z M69,95.4v3.5h3.4v-3.5H69z M82.7,81.4v3.5h3.4v-3.5H82.7z M82.7,95.4v3.5h3.4v-3.5H82.7z M96.3,81.4v3.5h3.4v-3.5H96.3z
	 M96.3,81.4v3.5h3.4v-3.5H96.3z M82.7,81.4v3.5h3.4v-3.5H82.7z M82.7,95.4v3.5h3.4v-3.5H82.7z M69,81.4v3.5h3.4v-3.5H69z M69,95.4
	v3.5h3.4v-3.5H69z M60.4,74.4v29.8c0,1.9,1.5,3.5,3.4,3.5h31.2c-0.3-1.1-0.4-2.3-0.4-3.5c0-7.7,6.1-14,13.7-14V74.4H60.4z
	 M75.8,98.9c0,1.9-1.5,3.5-3.4,3.5H69c-1.9,0-3.4-1.6-3.4-3.5v-3.5c0-1.9,1.5-3.5,3.4-3.5h3.4c1.9,0,3.4,1.6,3.4,3.5V98.9z
	 M75.8,84.9c0,1.9-1.5,3.5-3.4,3.5H69c-1.9,0-3.4-1.6-3.4-3.5v-3.5c0-1.9,1.5-3.5,3.4-3.5h3.4c1.9,0,3.4,1.6,3.4,3.5V84.9z
	 M89.5,98.9c0,1.9-1.5,3.5-3.4,3.5h-3.4c-1.9,0-3.4-1.6-3.4-3.5v-3.5c0-1.9,1.5-3.5,3.4-3.5h3.4c1.9,0,3.4,1.6,3.4,3.5V98.9z
	 M89.5,84.9c0,1.9-1.5,3.5-3.4,3.5h-3.4c-1.9,0-3.4-1.6-3.4-3.5v-3.5c0-1.9,1.5-3.5,3.4-3.5h3.4c1.9,0,3.4,1.6,3.4,3.5V84.9z
	 M103.2,84.9c0,1.9-1.5,3.5-3.4,3.5h-3.4c-1.9,0-3.4-1.6-3.4-3.5v-3.5c0-1.9,1.5-3.5,3.4-3.5h3.4c1.9,0,3.4,1.6,3.4,3.5V84.9z
	 M96.3,84.9h3.4v-3.5h-3.4V84.9z M82.7,98.9h3.4v-3.5h-3.4V98.9z M82.7,84.9h3.4v-3.5h-3.4V84.9z M69,98.9h3.4v-3.5H69V98.9z
	 M69,84.9h3.4v-3.5H69V84.9z M69,95.4v3.5h3.4v-3.5H69z M69,81.4v3.5h3.4v-3.5H69z M82.7,81.4v3.5h3.4v-3.5H82.7z M96.3,81.4v3.5
	h3.4v-3.5H96.3z M96.3,81.4v3.5h3.4v-3.5H96.3z M82.7,81.4v3.5h3.4v-3.5H82.7z M69,95.4v3.5h3.4v-3.5H69z M69,81.4v3.5h3.4v-3.5H69z
	 M82.7,81.4v3.5h3.4v-3.5H82.7z M96.3,81.4v3.5h3.4v-3.5H96.3z M96.3,81.4v3.5h3.4v-3.5H96.3z M82.7,81.4v3.5h3.4v-3.5H82.7z
	 M108.3,93.7c-5.7,0-10.3,4.7-10.3,10.5c0,5.8,4.6,10.5,10.3,10.5c5.7,0,10.3-4.7,10.3-10.5C118.6,98.3,114,93.7,108.3,93.7z
	 M115.4,100.1l-9,9c-0.2,0.2-0.6,0.2-0.8,0l-3.9-3.9c-0.2-0.2-0.2-0.6,0-0.8c0.2-0.2,0.6-0.2,0.8,0l3.5,3.5l8.6-8.6
	c0.1-0.1,0.2-0.2,0.4-0.2c0.2,0,0.3,0.1,0.4,0.2C115.6,99.5,115.6,99.8,115.4,100.1z M108.3,93.7c-5.7,0-10.3,4.7-10.3,10.5
	c0,5.8,4.6,10.5,10.3,10.5c5.7,0,10.3-4.7,10.3-10.5C118.6,98.3,114,93.7,108.3,93.7z M115.4,100.1l-9,9c-0.2,0.2-0.6,0.2-0.8,0
	l-3.9-3.9c-0.2-0.2-0.2-0.6,0-0.8c0.2-0.2,0.6-0.2,0.8,0l3.5,3.5l8.6-8.6c0.1-0.1,0.2-0.2,0.4-0.2c0.2,0,0.3,0.1,0.4,0.2
	C115.6,99.5,115.6,99.8,115.4,100.1z M96.3,81.4v3.5h3.4v-3.5H96.3z M96.3,81.4v3.5h3.4v-3.5H96.3z M69,81.4v3.5h3.4v-3.5H69z
	 M82.7,81.4v3.5h3.4v-3.5H82.7z M96.3,81.4v3.5h3.4v-3.5H96.3z M96.3,81.4v3.5h3.4v-3.5H96.3z M82.7,81.4v3.5h3.4v-3.5H82.7z
	 M69,81.4v3.5h3.4v-3.5H69z M69,81.4v3.5h3.4v-3.5H69z M69,95.4v3.5h3.4v-3.5H69z M82.7,81.4v3.5h3.4v-3.5H82.7z M82.7,95.4v3.5h3.4
	v-3.5H82.7z M96.3,81.4v3.5h3.4v-3.5H96.3z M96.3,81.4v3.5h3.4v-3.5H96.3z M82.7,81.4v3.5h3.4v-3.5H82.7z M82.7,95.4v3.5h3.4v-3.5
	H82.7z M69,81.4v3.5h3.4v-3.5H69z M69,95.4v3.5h3.4v-3.5H69z M60.4,74.4v29.8c0,1.9,1.5,3.5,3.4,3.5h31.2c-0.3-1.1-0.4-2.3-0.4-3.5
	c0-7.7,6.1-14,13.7-14V74.4H60.4z M75.8,98.9c0,1.9-1.5,3.5-3.4,3.5H69c-1.9,0-3.4-1.6-3.4-3.5v-3.5c0-1.9,1.5-3.5,3.4-3.5h3.4
	c1.9,0,3.4,1.6,3.4,3.5V98.9z M75.8,84.9c0,1.9-1.5,3.5-3.4,3.5H69c-1.9,0-3.4-1.6-3.4-3.5v-3.5c0-1.9,1.5-3.5,3.4-3.5h3.4
	c1.9,0,3.4,1.6,3.4,3.5V84.9z M89.5,98.9c0,1.9-1.5,3.5-3.4,3.5h-3.4c-1.9,0-3.4-1.6-3.4-3.5v-3.5c0-1.9,1.5-3.5,3.4-3.5h3.4
	c1.9,0,3.4,1.6,3.4,3.5V98.9z M89.5,84.9c0,1.9-1.5,3.5-3.4,3.5h-3.4c-1.9,0-3.4-1.6-3.4-3.5v-3.5c0-1.9,1.5-3.5,3.4-3.5h3.4
	c1.9,0,3.4,1.6,3.4,3.5V84.9z M103.2,84.9c0,1.9-1.5,3.5-3.4,3.5h-3.4c-1.9,0-3.4-1.6-3.4-3.5v-3.5c0-1.9,1.5-3.5,3.4-3.5h3.4
	c1.9,0,3.4,1.6,3.4,3.5V84.9z M96.3,84.9h3.4v-3.5h-3.4V84.9z M82.7,98.9h3.4v-3.5h-3.4V98.9z M82.7,84.9h3.4v-3.5h-3.4V84.9z
	 M69,98.9h3.4v-3.5H69V98.9z M69,84.9h3.4v-3.5H69V84.9z M69,95.4v3.5h3.4v-3.5H69z M69,81.4v3.5h3.4v-3.5H69z M82.7,81.4v3.5h3.4
	v-3.5H82.7z M96.3,81.4v3.5h3.4v-3.5H96.3z M96.3,81.4v3.5h3.4v-3.5H96.3z M82.7,81.4v3.5h3.4v-3.5H82.7z M69,95.4v3.5h3.4v-3.5H69z
	 M69,81.4v3.5h3.4v-3.5H69z M82.7,81.4v3.5h3.4v-3.5H82.7z M96.3,81.4v3.5h3.4v-3.5H96.3z M96.3,81.4v3.5h3.4v-3.5H96.3z M82.7,81.4
	v3.5h3.4v-3.5H82.7z M104.9,58.7h-5.1v1.8c0,1-0.8,1.8-1.7,1.8c-0.9,0-1.7-0.8-1.7-1.8v-1.8h-24v1.8c0,1-0.8,1.8-1.7,1.8
	c-0.9,0-1.7-0.8-1.7-1.8v-1.8h-5.1c-1.9,0-3.4,1.6-3.4,3.5v8.8h47.9v-8.8C108.3,60.2,106.8,58.7,104.9,58.7z M104.9,58.7h-5.1v1.8
	c0,1-0.8,1.8-1.7,1.8c-0.9,0-1.7-0.8-1.7-1.8v-1.8h-24v1.8c0,1-0.8,1.8-1.7,1.8c-0.9,0-1.7-0.8-1.7-1.8v-1.8h-5.1
	c-1.9,0-3.4,1.6-3.4,3.5v8.8h47.9v-8.8C108.3,60.2,106.8,58.7,104.9,58.7z M96.3,81.4v3.5h3.4v-3.5H96.3z M96.3,81.4v3.5h3.4v-3.5
	H96.3z M69,81.4v3.5h3.4v-3.5H69z M82.7,81.4v3.5h3.4v-3.5H82.7z M96.3,81.4v3.5h3.4v-3.5H96.3z M96.3,81.4v3.5h3.4v-3.5H96.3z
	 M82.7,81.4v3.5h3.4v-3.5H82.7z M69,81.4v3.5h3.4v-3.5H69z M69,81.4v3.5h3.4v-3.5H69z M69,95.4v3.5h3.4v-3.5H69z M82.7,81.4v3.5h3.4
	v-3.5H82.7z M82.7,95.4v3.5h3.4v-3.5H82.7z M96.3,81.4v3.5h3.4v-3.5H96.3z M96.3,81.4v3.5h3.4v-3.5H96.3z M82.7,81.4v3.5h3.4v-3.5
	H82.7z M82.7,95.4v3.5h3.4v-3.5H82.7z M69,81.4v3.5h3.4v-3.5H69z M69,95.4v3.5h3.4v-3.5H69z M60.4,74.4v29.8c0,1.9,1.5,3.5,3.4,3.5
	h31.2c-0.3-1.1-0.4-2.3-0.4-3.5c0-7.7,6.1-14,13.7-14V74.4H60.4z M75.8,98.9c0,1.9-1.5,3.5-3.4,3.5H69c-1.9,0-3.4-1.6-3.4-3.5v-3.5
	c0-1.9,1.5-3.5,3.4-3.5h3.4c1.9,0,3.4,1.6,3.4,3.5V98.9z M75.8,84.9c0,1.9-1.5,3.5-3.4,3.5H69c-1.9,0-3.4-1.6-3.4-3.5v-3.5
	c0-1.9,1.5-3.5,3.4-3.5h3.4c1.9,0,3.4,1.6,3.4,3.5V84.9z M89.5,98.9c0,1.9-1.5,3.5-3.4,3.5h-3.4c-1.9,0-3.4-1.6-3.4-3.5v-3.5
	c0-1.9,1.5-3.5,3.4-3.5h3.4c1.9,0,3.4,1.6,3.4,3.5V98.9z M89.5,84.9c0,1.9-1.5,3.5-3.4,3.5h-3.4c-1.9,0-3.4-1.6-3.4-3.5v-3.5
	c0-1.9,1.5-3.5,3.4-3.5h3.4c1.9,0,3.4,1.6,3.4,3.5V84.9z M103.2,84.9c0,1.9-1.5,3.5-3.4,3.5h-3.4c-1.9,0-3.4-1.6-3.4-3.5v-3.5
	c0-1.9,1.5-3.5,3.4-3.5h3.4c1.9,0,3.4,1.6,3.4,3.5V84.9z M96.3,84.9h3.4v-3.5h-3.4V84.9z M82.7,98.9h3.4v-3.5h-3.4V98.9z M82.7,84.9
	h3.4v-3.5h-3.4V84.9z M69,98.9h3.4v-3.5H69V98.9z M69,84.9h3.4v-3.5H69V84.9z M69,95.4v3.5h3.4v-3.5H69z M69,81.4v3.5h3.4v-3.5H69z
	 M82.7,81.4v3.5h3.4v-3.5H82.7z M96.3,81.4v3.5h3.4v-3.5H96.3z M96.3,81.4v3.5h3.4v-3.5H96.3z M82.7,81.4v3.5h3.4v-3.5H82.7z
	 M69,95.4v3.5h3.4v-3.5H69z M69,81.4v3.5h3.4v-3.5H69z M82.7,81.4v3.5h3.4v-3.5H82.7z M96.3,81.4v3.5h3.4v-3.5H96.3z M96.3,81.4v3.5
	h3.4v-3.5H96.3z M82.7,81.4v3.5h3.4v-3.5H82.7z M108.3,93.7c-5.7,0-10.3,4.7-10.3,10.5c0,5.8,4.6,10.5,10.3,10.5
	c5.7,0,10.3-4.7,10.3-10.5C118.6,98.3,114,93.7,108.3,93.7z M115.4,100.1l-9,9c-0.2,0.2-0.6,0.2-0.8,0l-3.9-3.9
	c-0.2-0.2-0.2-0.6,0-0.8c0.2-0.2,0.6-0.2,0.8,0l3.5,3.5l8.6-8.6c0.1-0.1,0.2-0.2,0.4-0.2c0.2,0,0.3,0.1,0.4,0.2
	C115.6,99.5,115.6,99.8,115.4,100.1z M108.3,93.7c-5.7,0-10.3,4.7-10.3,10.5c0,5.8,4.6,10.5,10.3,10.5c5.7,0,10.3-4.7,10.3-10.5
	C118.6,98.3,114,93.7,108.3,93.7z M115.4,100.1l-9,9c-0.2,0.2-0.6,0.2-0.8,0l-3.9-3.9c-0.2-0.2-0.2-0.6,0-0.8c0.2-0.2,0.6-0.2,0.8,0
	l3.5,3.5l8.6-8.6c0.1-0.1,0.2-0.2,0.4-0.2c0.2,0,0.3,0.1,0.4,0.2C115.6,99.5,115.6,99.8,115.4,100.1z M96.3,81.4v3.5h3.4v-3.5H96.3z
	 M96.3,81.4v3.5h3.4v-3.5H96.3z M69,81.4v3.5h3.4v-3.5H69z M82.7,81.4v3.5h3.4v-3.5H82.7z M96.3,81.4v3.5h3.4v-3.5H96.3z M96.3,81.4
	v3.5h3.4v-3.5H96.3z M82.7,81.4v3.5h3.4v-3.5H82.7z M69,81.4v3.5h3.4v-3.5H69z M69,81.4v3.5h3.4v-3.5H69z M69,95.4v3.5h3.4v-3.5H69z
	 M82.7,81.4v3.5h3.4v-3.5H82.7z M82.7,95.4v3.5h3.4v-3.5H82.7z M96.3,81.4v3.5h3.4v-3.5H96.3z M96.3,81.4v3.5h3.4v-3.5H96.3z
	 M82.7,81.4v3.5h3.4v-3.5H82.7z M82.7,95.4v3.5h3.4v-3.5H82.7z M69,81.4v3.5h3.4v-3.5H69z M69,95.4v3.5h3.4v-3.5H69z M60.4,74.4
	v29.8c0,1.9,1.5,3.5,3.4,3.5h31.2c-0.3-1.1-0.4-2.3-0.4-3.5c0-7.7,6.1-14,13.7-14V74.4H60.4z M75.8,98.9c0,1.9-1.5,3.5-3.4,3.5H69
	c-1.9,0-3.4-1.6-3.4-3.5v-3.5c0-1.9,1.5-3.5,3.4-3.5h3.4c1.9,0,3.4,1.6,3.4,3.5V98.9z M75.8,84.9c0,1.9-1.5,3.5-3.4,3.5H69
	c-1.9,0-3.4-1.6-3.4-3.5v-3.5c0-1.9,1.5-3.5,3.4-3.5h3.4c1.9,0,3.4,1.6,3.4,3.5V84.9z M89.5,98.9c0,1.9-1.5,3.5-3.4,3.5h-3.4
	c-1.9,0-3.4-1.6-3.4-3.5v-3.5c0-1.9,1.5-3.5,3.4-3.5h3.4c1.9,0,3.4,1.6,3.4,3.5V98.9z M89.5,84.9c0,1.9-1.5,3.5-3.4,3.5h-3.4
	c-1.9,0-3.4-1.6-3.4-3.5v-3.5c0-1.9,1.5-3.5,3.4-3.5h3.4c1.9,0,3.4,1.6,3.4,3.5V84.9z M103.2,84.9c0,1.9-1.5,3.5-3.4,3.5h-3.4
	c-1.9,0-3.4-1.6-3.4-3.5v-3.5c0-1.9,1.5-3.5,3.4-3.5h3.4c1.9,0,3.4,1.6,3.4,3.5V84.9z M96.3,84.9h3.4v-3.5h-3.4V84.9z M82.7,98.9
	h3.4v-3.5h-3.4V98.9z M82.7,84.9h3.4v-3.5h-3.4V84.9z M69,98.9h3.4v-3.5H69V98.9z M69,84.9h3.4v-3.5H69V84.9z M69,95.4v3.5h3.4v-3.5
	H69z M69,81.4v3.5h3.4v-3.5H69z M82.7,81.4v3.5h3.4v-3.5H82.7z M96.3,81.4v3.5h3.4v-3.5H96.3z M96.3,81.4v3.5h3.4v-3.5H96.3z
	 M82.7,81.4v3.5h3.4v-3.5H82.7z M69,95.4v3.5h3.4v-3.5H69z M69,81.4v3.5h3.4v-3.5H69z M82.7,81.4v3.5h3.4v-3.5H82.7z M96.3,81.4v3.5
	h3.4v-3.5H96.3z M96.3,81.4v3.5h3.4v-3.5H96.3z M82.7,81.4v3.5h3.4v-3.5H82.7z M104.9,58.7h-5.1v1.8c0,1-0.8,1.8-1.7,1.8
	c-0.9,0-1.7-0.8-1.7-1.8v-1.8h-24v1.8c0,1-0.8,1.8-1.7,1.8c-0.9,0-1.7-0.8-1.7-1.8v-1.8h-5.1c-1.9,0-3.4,1.6-3.4,3.5v8.8h47.9v-8.8
	C108.3,60.2,106.8,58.7,104.9,58.7z M104.9,58.7h-5.1v1.8c0,1-0.8,1.8-1.7,1.8c-0.9,0-1.7-0.8-1.7-1.8v-1.8h-24v1.8
	c0,1-0.8,1.8-1.7,1.8c-0.9,0-1.7-0.8-1.7-1.8v-1.8h-5.1c-1.9,0-3.4,1.6-3.4,3.5v8.8h47.9v-8.8C108.3,60.2,106.8,58.7,104.9,58.7z
	 M96.3,81.4v3.5h3.4v-3.5H96.3z M96.3,81.4v3.5h3.4v-3.5H96.3z M69,81.4v3.5h3.4v-3.5H69z M82.7,81.4v3.5h3.4v-3.5H82.7z M96.3,81.4
	v3.5h3.4v-3.5H96.3z M96.3,81.4v3.5h3.4v-3.5H96.3z M82.7,81.4v3.5h3.4v-3.5H82.7z M69,81.4v3.5h3.4v-3.5H69z M69,81.4v3.5h3.4v-3.5
	H69z M69,95.4v3.5h3.4v-3.5H69z M82.7,81.4v3.5h3.4v-3.5H82.7z M82.7,95.4v3.5h3.4v-3.5H82.7z M96.3,81.4v3.5h3.4v-3.5H96.3z
	 M96.3,81.4v3.5h3.4v-3.5H96.3z M82.7,81.4v3.5h3.4v-3.5H82.7z M82.7,95.4v3.5h3.4v-3.5H82.7z M69,81.4v3.5h3.4v-3.5H69z M69,95.4
	v3.5h3.4v-3.5H69z M60.4,74.4v29.8c0,1.9,1.5,3.5,3.4,3.5h31.2c-0.3-1.1-0.4-2.3-0.4-3.5c0-7.7,6.1-14,13.7-14V74.4H60.4z
	 M75.8,98.9c0,1.9-1.5,3.5-3.4,3.5H69c-1.9,0-3.4-1.6-3.4-3.5v-3.5c0-1.9,1.5-3.5,3.4-3.5h3.4c1.9,0,3.4,1.6,3.4,3.5V98.9z
	 M75.8,84.9c0,1.9-1.5,3.5-3.4,3.5H69c-1.9,0-3.4-1.6-3.4-3.5v-3.5c0-1.9,1.5-3.5,3.4-3.5h3.4c1.9,0,3.4,1.6,3.4,3.5V84.9z
	 M89.5,98.9c0,1.9-1.5,3.5-3.4,3.5h-3.4c-1.9,0-3.4-1.6-3.4-3.5v-3.5c0-1.9,1.5-3.5,3.4-3.5h3.4c1.9,0,3.4,1.6,3.4,3.5V98.9z
	 M89.5,84.9c0,1.9-1.5,3.5-3.4,3.5h-3.4c-1.9,0-3.4-1.6-3.4-3.5v-3.5c0-1.9,1.5-3.5,3.4-3.5h3.4c1.9,0,3.4,1.6,3.4,3.5V84.9z
	 M103.2,84.9c0,1.9-1.5,3.5-3.4,3.5h-3.4c-1.9,0-3.4-1.6-3.4-3.5v-3.5c0-1.9,1.5-3.5,3.4-3.5h3.4c1.9,0,3.4,1.6,3.4,3.5V84.9z
	 M96.3,84.9h3.4v-3.5h-3.4V84.9z M82.7,98.9h3.4v-3.5h-3.4V98.9z M82.7,84.9h3.4v-3.5h-3.4V84.9z M69,98.9h3.4v-3.5H69V98.9z
	 M69,84.9h3.4v-3.5H69V84.9z M69,95.4v3.5h3.4v-3.5H69z M69,81.4v3.5h3.4v-3.5H69z M82.7,81.4v3.5h3.4v-3.5H82.7z M96.3,81.4v3.5
	h3.4v-3.5H96.3z M96.3,81.4v3.5h3.4v-3.5H96.3z M82.7,81.4v3.5h3.4v-3.5H82.7z M69,95.4v3.5h3.4v-3.5H69z M69,81.4v3.5h3.4v-3.5H69z
	 M82.7,81.4v3.5h3.4v-3.5H82.7z M96.3,81.4v3.5h3.4v-3.5H96.3z M96.3,81.4v3.5h3.4v-3.5H96.3z M82.7,81.4v3.5h3.4v-3.5H82.7z
	 M108.3,93.7c-5.7,0-10.3,4.7-10.3,10.5c0,5.8,4.6,10.5,10.3,10.5c5.7,0,10.3-4.7,10.3-10.5C118.6,98.3,114,93.7,108.3,93.7z
	 M115.4,100.1l-9,9c-0.2,0.2-0.6,0.2-0.8,0l-3.9-3.9c-0.2-0.2-0.2-0.6,0-0.8c0.2-0.2,0.6-0.2,0.8,0l3.5,3.5l8.6-8.6
	c0.1-0.1,0.2-0.2,0.4-0.2c0.2,0,0.3,0.1,0.4,0.2C115.6,99.5,115.6,99.8,115.4,100.1z M108.3,93.7c-5.7,0-10.3,4.7-10.3,10.5
	c0,5.8,4.6,10.5,10.3,10.5c5.7,0,10.3-4.7,10.3-10.5C118.6,98.3,114,93.7,108.3,93.7z M115.4,100.1l-9,9c-0.2,0.2-0.6,0.2-0.8,0
	l-3.9-3.9c-0.2-0.2-0.2-0.6,0-0.8c0.2-0.2,0.6-0.2,0.8,0l3.5,3.5l8.6-8.6c0.1-0.1,0.2-0.2,0.4-0.2c0.2,0,0.3,0.1,0.4,0.2
	C115.6,99.5,115.6,99.8,115.4,100.1z M96.3,81.4v3.5h3.4v-3.5H96.3z M96.3,81.4v3.5h3.4v-3.5H96.3z M69,81.4v3.5h3.4v-3.5H69z
	 M82.7,81.4v3.5h3.4v-3.5H82.7z M96.3,81.4v3.5h3.4v-3.5H96.3z M96.3,81.4v3.5h3.4v-3.5H96.3z M82.7,81.4v3.5h3.4v-3.5H82.7z
	 M69,81.4v3.5h3.4v-3.5H69z M69,81.4v3.5h3.4v-3.5H69z M69,95.4v3.5h3.4v-3.5H69z M82.7,81.4v3.5h3.4v-3.5H82.7z M82.7,95.4v3.5h3.4
	v-3.5H82.7z M96.3,81.4v3.5h3.4v-3.5H96.3z M96.3,81.4v3.5h3.4v-3.5H96.3z M82.7,81.4v3.5h3.4v-3.5H82.7z M82.7,95.4v3.5h3.4v-3.5
	H82.7z M69,81.4v3.5h3.4v-3.5H69z M69,95.4v3.5h3.4v-3.5H69z M60.4,74.4v29.8c0,1.9,1.5,3.5,3.4,3.5h31.2c-0.3-1.1-0.4-2.3-0.4-3.5
	c0-7.7,6.1-14,13.7-14V74.4H60.4z M75.8,98.9c0,1.9-1.5,3.5-3.4,3.5H69c-1.9,0-3.4-1.6-3.4-3.5v-3.5c0-1.9,1.5-3.5,3.4-3.5h3.4
	c1.9,0,3.4,1.6,3.4,3.5V98.9z M75.8,84.9c0,1.9-1.5,3.5-3.4,3.5H69c-1.9,0-3.4-1.6-3.4-3.5v-3.5c0-1.9,1.5-3.5,3.4-3.5h3.4
	c1.9,0,3.4,1.6,3.4,3.5V84.9z M89.5,98.9c0,1.9-1.5,3.5-3.4,3.5h-3.4c-1.9,0-3.4-1.6-3.4-3.5v-3.5c0-1.9,1.5-3.5,3.4-3.5h3.4
	c1.9,0,3.4,1.6,3.4,3.5V98.9z M89.5,84.9c0,1.9-1.5,3.5-3.4,3.5h-3.4c-1.9,0-3.4-1.6-3.4-3.5v-3.5c0-1.9,1.5-3.5,3.4-3.5h3.4
	c1.9,0,3.4,1.6,3.4,3.5V84.9z M103.2,84.9c0,1.9-1.5,3.5-3.4,3.5h-3.4c-1.9,0-3.4-1.6-3.4-3.5v-3.5c0-1.9,1.5-3.5,3.4-3.5h3.4
	c1.9,0,3.4,1.6,3.4,3.5V84.9z M96.3,84.9h3.4v-3.5h-3.4V84.9z M82.7,98.9h3.4v-3.5h-3.4V98.9z M82.7,84.9h3.4v-3.5h-3.4V84.9z
	 M69,98.9h3.4v-3.5H69V98.9z M69,84.9h3.4v-3.5H69V84.9z M69,95.4v3.5h3.4v-3.5H69z M69,81.4v3.5h3.4v-3.5H69z M82.7,81.4v3.5h3.4
	v-3.5H82.7z M96.3,81.4v3.5h3.4v-3.5H96.3z M96.3,81.4v3.5h3.4v-3.5H96.3z M82.7,81.4v3.5h3.4v-3.5H82.7z M69,95.4v3.5h3.4v-3.5H69z
	 M69,81.4v3.5h3.4v-3.5H69z M82.7,81.4v3.5h3.4v-3.5H82.7z M96.3,81.4v3.5h3.4v-3.5H96.3z M96.3,81.4v3.5h3.4v-3.5H96.3z M82.7,81.4
	v3.5h3.4v-3.5H82.7z M104.9,58.7h-5.1v1.8c0,1-0.8,1.8-1.7,1.8c-0.9,0-1.7-0.8-1.7-1.8v-1.8h-24v1.8c0,1-0.8,1.8-1.7,1.8
	c-0.9,0-1.7-0.8-1.7-1.8v-1.8h-5.1c-1.9,0-3.4,1.6-3.4,3.5v8.8h47.9v-8.8C108.3,60.2,106.8,58.7,104.9,58.7z M96.3,81.4v3.5h3.4
	v-3.5H96.3z M96.3,81.4v3.5h3.4v-3.5H96.3z M69,81.4v3.5h3.4v-3.5H69z M82.7,81.4v3.5h3.4v-3.5H82.7z M96.3,81.4v3.5h3.4v-3.5H96.3z
	 M96.3,81.4v3.5h3.4v-3.5H96.3z M82.7,81.4v3.5h3.4v-3.5H82.7z M69,81.4v3.5h3.4v-3.5H69z M69,81.4v3.5h3.4v-3.5H69z M69,95.4v3.5
	h3.4v-3.5H69z M82.7,81.4v3.5h3.4v-3.5H82.7z M82.7,95.4v3.5h3.4v-3.5H82.7z M96.3,81.4v3.5h3.4v-3.5H96.3z M96.3,81.4v3.5h3.4v-3.5
	H96.3z M82.7,81.4v3.5h3.4v-3.5H82.7z M82.7,95.4v3.5h3.4v-3.5H82.7z M69,81.4v3.5h3.4v-3.5H69z M69,95.4v3.5h3.4v-3.5H69z
	 M60.4,74.4v29.8c0,1.9,1.5,3.5,3.4,3.5h31.2c-0.3-1.1-0.4-2.3-0.4-3.5c0-7.7,6.1-14,13.7-14V74.4H60.4z M75.8,98.9
	c0,1.9-1.5,3.5-3.4,3.5H69c-1.9,0-3.4-1.6-3.4-3.5v-3.5c0-1.9,1.5-3.5,3.4-3.5h3.4c1.9,0,3.4,1.6,3.4,3.5V98.9z M75.8,84.9
	c0,1.9-1.5,3.5-3.4,3.5H69c-1.9,0-3.4-1.6-3.4-3.5v-3.5c0-1.9,1.5-3.5,3.4-3.5h3.4c1.9,0,3.4,1.6,3.4,3.5V84.9z M89.5,98.9
	c0,1.9-1.5,3.5-3.4,3.5h-3.4c-1.9,0-3.4-1.6-3.4-3.5v-3.5c0-1.9,1.5-3.5,3.4-3.5h3.4c1.9,0,3.4,1.6,3.4,3.5V98.9z M89.5,84.9
	c0,1.9-1.5,3.5-3.4,3.5h-3.4c-1.9,0-3.4-1.6-3.4-3.5v-3.5c0-1.9,1.5-3.5,3.4-3.5h3.4c1.9,0,3.4,1.6,3.4,3.5V84.9z M103.2,84.9
	c0,1.9-1.5,3.5-3.4,3.5h-3.4c-1.9,0-3.4-1.6-3.4-3.5v-3.5c0-1.9,1.5-3.5,3.4-3.5h3.4c1.9,0,3.4,1.6,3.4,3.5V84.9z M96.3,84.9h3.4
	v-3.5h-3.4V84.9z M82.7,98.9h3.4v-3.5h-3.4V98.9z M82.7,84.9h3.4v-3.5h-3.4V84.9z M69,98.9h3.4v-3.5H69V98.9z M69,84.9h3.4v-3.5H69
	V84.9z M69,95.4v3.5h3.4v-3.5H69z M69,81.4v3.5h3.4v-3.5H69z M82.7,81.4v3.5h3.4v-3.5H82.7z M96.3,81.4v3.5h3.4v-3.5H96.3z
	 M96.3,81.4v3.5h3.4v-3.5H96.3z M82.7,81.4v3.5h3.4v-3.5H82.7z M69,95.4v3.5h3.4v-3.5H69z M69,81.4v3.5h3.4v-3.5H69z M82.7,81.4v3.5
	h3.4v-3.5H82.7z M96.3,81.4v3.5h3.4v-3.5H96.3z M96.3,81.4v3.5h3.4v-3.5H96.3z M82.7,81.4v3.5h3.4v-3.5H82.7z M108.3,93.7
	c-5.7,0-10.3,4.7-10.3,10.5c0,5.8,4.6,10.5,10.3,10.5c5.7,0,10.3-4.7,10.3-10.5C118.6,98.3,114,93.7,108.3,93.7z M115.4,100.1l-9,9
	c-0.2,0.2-0.6,0.2-0.8,0l-3.9-3.9c-0.2-0.2-0.2-0.6,0-0.8c0.2-0.2,0.6-0.2,0.8,0l3.5,3.5l8.6-8.6c0.1-0.1,0.2-0.2,0.4-0.2
	c0.2,0,0.3,0.1,0.4,0.2C115.6,99.5,115.6,99.8,115.4,100.1z M108.3,93.7c-5.7,0-10.3,4.7-10.3,10.5c0,5.8,4.6,10.5,10.3,10.5
	c5.7,0,10.3-4.7,10.3-10.5C118.6,98.3,114,93.7,108.3,93.7z M115.4,100.1l-9,9c-0.2,0.2-0.6,0.2-0.8,0l-3.9-3.9
	c-0.2-0.2-0.2-0.6,0-0.8c0.2-0.2,0.6-0.2,0.8,0l3.5,3.5l8.6-8.6c0.1-0.1,0.2-0.2,0.4-0.2c0.2,0,0.3,0.1,0.4,0.2
	C115.6,99.5,115.6,99.8,115.4,100.1z M96.3,81.4v3.5h3.4v-3.5H96.3z M96.3,81.4v3.5h3.4v-3.5H96.3z M69,81.4v3.5h3.4v-3.5H69z
	 M82.7,81.4v3.5h3.4v-3.5H82.7z M96.3,81.4v3.5h3.4v-3.5H96.3z M96.3,81.4v3.5h3.4v-3.5H96.3z M82.7,81.4v3.5h3.4v-3.5H82.7z
	 M69,81.4v3.5h3.4v-3.5H69z M69,81.4v3.5h3.4v-3.5H69z M69,95.4v3.5h3.4v-3.5H69z M82.7,81.4v3.5h3.4v-3.5H82.7z M82.7,95.4v3.5h3.4
	v-3.5H82.7z M96.3,81.4v3.5h3.4v-3.5H96.3z M96.3,81.4v3.5h3.4v-3.5H96.3z M82.7,81.4v3.5h3.4v-3.5H82.7z M82.7,95.4v3.5h3.4v-3.5
	H82.7z M69,81.4v3.5h3.4v-3.5H69z M69,95.4v3.5h3.4v-3.5H69z M60.4,74.4v29.8c0,1.9,1.5,3.5,3.4,3.5h31.2c-0.3-1.1-0.4-2.3-0.4-3.5
	c0-7.7,6.1-14,13.7-14V74.4H60.4z M75.8,98.9c0,1.9-1.5,3.5-3.4,3.5H69c-1.9,0-3.4-1.6-3.4-3.5v-3.5c0-1.9,1.5-3.5,3.4-3.5h3.4
	c1.9,0,3.4,1.6,3.4,3.5V98.9z M75.8,84.9c0,1.9-1.5,3.5-3.4,3.5H69c-1.9,0-3.4-1.6-3.4-3.5v-3.5c0-1.9,1.5-3.5,3.4-3.5h3.4
	c1.9,0,3.4,1.6,3.4,3.5V84.9z M89.5,98.9c0,1.9-1.5,3.5-3.4,3.5h-3.4c-1.9,0-3.4-1.6-3.4-3.5v-3.5c0-1.9,1.5-3.5,3.4-3.5h3.4
	c1.9,0,3.4,1.6,3.4,3.5V98.9z M89.5,84.9c0,1.9-1.5,3.5-3.4,3.5h-3.4c-1.9,0-3.4-1.6-3.4-3.5v-3.5c0-1.9,1.5-3.5,3.4-3.5h3.4
	c1.9,0,3.4,1.6,3.4,3.5V84.9z M103.2,84.9c0,1.9-1.5,3.5-3.4,3.5h-3.4c-1.9,0-3.4-1.6-3.4-3.5v-3.5c0-1.9,1.5-3.5,3.4-3.5h3.4
	c1.9,0,3.4,1.6,3.4,3.5V84.9z M96.3,84.9h3.4v-3.5h-3.4V84.9z M82.7,98.9h3.4v-3.5h-3.4V98.9z M82.7,84.9h3.4v-3.5h-3.4V84.9z
	 M69,98.9h3.4v-3.5H69V98.9z M69,84.9h3.4v-3.5H69V84.9z M69,95.4v3.5h3.4v-3.5H69z M69,81.4v3.5h3.4v-3.5H69z M82.7,81.4v3.5h3.4
	v-3.5H82.7z M96.3,81.4v3.5h3.4v-3.5H96.3z M96.3,81.4v3.5h3.4v-3.5H96.3z M82.7,81.4v3.5h3.4v-3.5H82.7z M69,95.4v3.5h3.4v-3.5H69z
	 M69,81.4v3.5h3.4v-3.5H69z M82.7,81.4v3.5h3.4v-3.5H82.7z M96.3,81.4v3.5h3.4v-3.5H96.3z M96.3,81.4v3.5h3.4v-3.5H96.3z M82.7,81.4
	v3.5h3.4v-3.5H82.7z M104.9,58.7h-5.1v1.8c0,1-0.8,1.8-1.7,1.8c-0.9,0-1.7-0.8-1.7-1.8v-1.8h-24v1.8c0,1-0.8,1.8-1.7,1.8
	c-0.9,0-1.7-0.8-1.7-1.8v-1.8h-5.1c-1.9,0-3.4,1.6-3.4,3.5v8.8h47.9v-8.8C108.3,60.2,106.8,58.7,104.9,58.7z M96.3,81.4v3.5h3.4
	v-3.5H96.3z M96.3,81.4v3.5h3.4v-3.5H96.3z M69,81.4v3.5h3.4v-3.5H69z M82.7,81.4v3.5h3.4v-3.5H82.7z M96.3,81.4v3.5h3.4v-3.5H96.3z
	 M96.3,81.4v3.5h3.4v-3.5H96.3z M82.7,81.4v3.5h3.4v-3.5H82.7z M69,81.4v3.5h3.4v-3.5H69z M69,81.4v3.5h3.4v-3.5H69z M69,95.4v3.5
	h3.4v-3.5H69z M82.7,81.4v3.5h3.4v-3.5H82.7z M82.7,95.4v3.5h3.4v-3.5H82.7z M96.3,81.4v3.5h3.4v-3.5H96.3z M96.3,81.4v3.5h3.4v-3.5
	H96.3z M82.7,81.4v3.5h3.4v-3.5H82.7z M82.7,95.4v3.5h3.4v-3.5H82.7z M69,81.4v3.5h3.4v-3.5H69z M69,95.4v3.5h3.4v-3.5H69z
	 M60.4,74.4v29.8c0,1.9,1.5,3.5,3.4,3.5h31.2c-0.3-1.1-0.4-2.3-0.4-3.5c0-7.7,6.1-14,13.7-14V74.4H60.4z M75.8,98.9
	c0,1.9-1.5,3.5-3.4,3.5H69c-1.9,0-3.4-1.6-3.4-3.5v-3.5c0-1.9,1.5-3.5,3.4-3.5h3.4c1.9,0,3.4,1.6,3.4,3.5V98.9z M75.8,84.9
	c0,1.9-1.5,3.5-3.4,3.5H69c-1.9,0-3.4-1.6-3.4-3.5v-3.5c0-1.9,1.5-3.5,3.4-3.5h3.4c1.9,0,3.4,1.6,3.4,3.5V84.9z M89.5,98.9
	c0,1.9-1.5,3.5-3.4,3.5h-3.4c-1.9,0-3.4-1.6-3.4-3.5v-3.5c0-1.9,1.5-3.5,3.4-3.5h3.4c1.9,0,3.4,1.6,3.4,3.5V98.9z M89.5,84.9
	c0,1.9-1.5,3.5-3.4,3.5h-3.4c-1.9,0-3.4-1.6-3.4-3.5v-3.5c0-1.9,1.5-3.5,3.4-3.5h3.4c1.9,0,3.4,1.6,3.4,3.5V84.9z M103.2,84.9
	c0,1.9-1.5,3.5-3.4,3.5h-3.4c-1.9,0-3.4-1.6-3.4-3.5v-3.5c0-1.9,1.5-3.5,3.4-3.5h3.4c1.9,0,3.4,1.6,3.4,3.5V84.9z M96.3,84.9h3.4
	v-3.5h-3.4V84.9z M82.7,98.9h3.4v-3.5h-3.4V98.9z M82.7,84.9h3.4v-3.5h-3.4V84.9z M69,98.9h3.4v-3.5H69V98.9z M69,84.9h3.4v-3.5H69
	V84.9z M69,95.4v3.5h3.4v-3.5H69z M69,81.4v3.5h3.4v-3.5H69z M82.7,81.4v3.5h3.4v-3.5H82.7z M96.3,81.4v3.5h3.4v-3.5H96.3z
	 M96.3,81.4v3.5h3.4v-3.5H96.3z M82.7,81.4v3.5h3.4v-3.5H82.7z M69,95.4v3.5h3.4v-3.5H69z M69,81.4v3.5h3.4v-3.5H69z M82.7,81.4v3.5
	h3.4v-3.5H82.7z M96.3,81.4v3.5h3.4v-3.5H96.3z M96.3,81.4v3.5h3.4v-3.5H96.3z M82.7,81.4v3.5h3.4v-3.5H82.7z M108.3,93.7
	c-5.7,0-10.3,4.7-10.3,10.5c0,5.8,4.6,10.5,10.3,10.5c5.7,0,10.3-4.7,10.3-10.5C118.6,98.3,114,93.7,108.3,93.7z M115.4,100.1l-9,9
	c-0.2,0.2-0.6,0.2-0.8,0l-3.9-3.9c-0.2-0.2-0.2-0.6,0-0.8c0.2-0.2,0.6-0.2,0.8,0l3.5,3.5l8.6-8.6c0.1-0.1,0.2-0.2,0.4-0.2
	c0.2,0,0.3,0.1,0.4,0.2C115.6,99.5,115.6,99.8,115.4,100.1z M108.3,93.7c-5.7,0-10.3,4.7-10.3,10.5c0,5.8,4.6,10.5,10.3,10.5
	c5.7,0,10.3-4.7,10.3-10.5C118.6,98.3,114,93.7,108.3,93.7z M115.4,100.1l-9,9c-0.2,0.2-0.6,0.2-0.8,0l-3.9-3.9
	c-0.2-0.2-0.2-0.6,0-0.8c0.2-0.2,0.6-0.2,0.8,0l3.5,3.5l8.6-8.6c0.1-0.1,0.2-0.2,0.4-0.2c0.2,0,0.3,0.1,0.4,0.2
	C115.6,99.5,115.6,99.8,115.4,100.1z"/>
<ellipse class="st0" cx="21.6" cy="9.9" rx="10.5" ry="9.9"/>
<ellipse class="st0" cx="173.2" cy="26.2" rx="6.8" ry="6.4"/>
<ellipse class="st0" cx="10.5" cy="120.7" rx="5.5" ry="5.2"/>
<ellipse class="st0" cx="61.6" cy="160.9" rx="3.7" ry="3.5"/>
<ellipse class="st0" cx="164" cy="100.3" rx="2.5" ry="2.3"/>
<ellipse class="st0" cx="159" cy="145.8" rx="2.5" ry="2.3"/>
<ellipse class="st0" cx="104.8" cy="8.2" rx="2.5" ry="2.3"/>
<ellipse class="st0" cx="1.2" cy="68.8" rx="1.2" ry="1.2"/>
<ellipse class="st0" cx="119.6" cy="155.1" rx="2.5" ry="2.3"/>
</svg>
